# This file uses meters as units for non-parametric coordinates.

mtllib Blocco sabbia 03.mtl
g default
v 93.619263 120.338113 -94.417533
v 82.607666 120.337266 -98.976981
v 82.607056 131.349908 -94.416434
v 82.607544 135.911432 -83.403739
v 93.619263 131.349908 -83.405936
v 98.181274 120.337266 -83.403739
v 82.609375 131.349908 94.650476
v 82.607300 120.337266 99.212488
v 93.614502 120.314172 94.694421
v 98.181763 120.292795 83.682702
v 93.618896 131.336877 83.678308
v 82.607056 135.911432 83.637780
v -93.381897 131.349908 -83.402518
v -82.369080 135.911432 -83.403739
v -82.303833 131.349908 -94.417533
v -82.280151 120.337266 -98.976981
v -93.323914 120.337266 -94.419730
v -97.943237 120.337266 -83.405936
v 93.619263 -0.000005 -94.417533
v 98.181274 -0.000005 -83.403739
v 82.607666 -0.000005 -98.976981
v -97.942688 -0.000005 -83.447440
v -93.337280 -0.000005 -94.436698
v -82.324402 -0.000005 -98.978202
v 82.562744 -0.000005 99.212488
v 98.181763 -0.000022 83.682702
v 93.601440 -0.000022 94.695398
v -94.388428 120.337327 93.645349
v -83.402649 120.337327 98.265710
v -83.375488 131.349908 93.707116
v -83.313660 135.911432 82.693445
v -94.325256 131.349908 82.633874
v -98.887573 120.337327 82.607019
v -94.388428 -0.000005 93.645349
v -98.887573 -0.000005 82.607019
v -83.402649 -0.000005 98.265710
v 91.595459 129.326196 -92.392508
v 91.592407 129.316140 92.662683
v -91.309204 129.325921 -92.394950
v -92.353333 129.325891 91.632898
vt 2.349143 0.809884
vt 2.347980 0.805893
vt 2.374865 0.791588
vt 2.379436 0.797374
vt 2.345707 0.802540
vt 2.370020 0.786082
vt 2.344140 0.809395
vt 2.346632 0.809774
vt 2.339938 0.854597
vt 2.336518 0.853740
vt 2.343313 0.855892
vt 2.344778 0.806010
vt 2.302178 0.802542
vt 2.302775 0.799908
vt 2.301408 0.805109
vt 2.296336 0.803735
vt 2.298832 0.804542
vt 2.285776 0.847259
vt 2.282248 0.846793
vt 2.289118 0.848052
vt 2.299186 0.801169
vt 2.278110 0.770109
vt 2.284298 0.765964
vt 2.272106 0.774435
vt 2.336082 0.856407
vt 2.288044 0.851137
vt 2.335964 0.859060
vt 2.286645 0.854156
vt 2.339911 0.857995
vt 2.354806 0.885047
vt 2.349166 0.889572
vt 2.360177 0.880248
vt 2.283999 0.850706
vt 2.264073 0.865019
vt 2.260277 0.859222
vt 2.268231 0.870519
vt 2.346696 0.807026
vt 2.299899 0.802454
vt 2.338792 0.856510
vt 2.285721 0.849790
vn 0.382560 0.000000 -0.923931
vn 0.382560 0.000000 -0.923931
vn 0.382560 0.000000 -0.923931
vn 0.382560 0.000000 -0.923931
vn 0.924668 0.022019 -0.380137
vn 0.998584 0.043007 -0.031298
vn 0.999164 0.000000 -0.040889
vn 0.923877 0.000000 -0.382690
vn 0.025414 0.999363 -0.025065
vn 0.016266 0.924515 -0.380798
vn -0.016161 0.924482 -0.380884
vn -0.025092 0.999371 -0.025071
vn 0.016264 0.380721 -0.924547
vn 0.025182 0.034152 -0.999099
vn -0.025106 0.034191 -0.999100
vn -0.016291 0.380681 -0.924563
vn 0.998584 0.043007 -0.031298
vn 0.924662 0.380453 -0.015992
vn 0.924670 0.380427 0.016136
vn 0.998850 0.044493 0.017866
vn 0.381304 0.924311 -0.016036
vn 0.025414 0.999363 -0.025065
vn 0.025387 0.999356 0.025362
vn 0.381290 0.924314 0.016164
vn 0.014041 0.034603 0.999303
vn 0.010968 0.380760 0.924609
vn -0.021419 0.380727 0.924439
vn -0.030704 0.034156 0.998945
vn 0.014187 0.924548 0.380801
vn 0.025387 0.999356 0.025362
vn -0.025379 0.999364 0.025070
vn -0.018335 0.924513 0.380710
vn 0.998850 0.044493 0.017866
vn 0.924650 0.039801 0.378733
vn 0.923496 -0.000093 0.383607
vn 0.999888 -0.000004 0.014959
vn 0.376168 0.028206 0.926122
vn 0.014041 0.034603 0.999303
vn -0.002973 0.000000 0.999996
vn 0.379432 -0.000114 0.925220
vn -0.025092 0.999371 -0.025071
vn -0.380826 0.924467 -0.018229
vn -0.380922 0.924501 0.014004
vn -0.025379 0.999364 0.025070
vn -0.924400 0.380821 -0.021443
vn -0.998946 0.034201 -0.030632
vn -0.999229 0.034167 0.019343
vn -0.924570 0.380855 0.010911
vn -0.998946 0.034201 -0.030632
vn -0.923018 0.022160 -0.384119
vn -0.922224 0.000144 -0.386655
vn -0.999507 0.000008 -0.031384
vn -0.378819 0.022170 -0.925205
vn -0.025106 0.034191 -0.999100
vn -0.025861 0.000015 -0.999666
vn -0.381360 0.000161 -0.924427
vn -0.030704 0.034156 0.998945
vn -0.385116 0.022016 0.922606
vn -0.387663 0.000000 0.921801
vn -0.031436 0.000001 0.999506
vn -0.926807 0.022023 0.374892
vn -0.999229 0.034167 0.019343
vn -0.999799 -0.000002 0.020070
vn -0.926030 0.000000 0.377451
vn 0.025182 0.034152 -0.999099
vn 0.025916 0.000004 -0.999664
vn -0.025861 0.000015 -0.999666
vn -0.025106 0.034191 -0.999100
vn 0.998850 0.044493 0.017866
vn 0.999888 -0.000004 0.014959
vn 0.999164 0.000000 -0.040889
vn 0.998584 0.043007 -0.031298
vn -0.025379 0.999364 0.025070
vn 0.025387 0.999356 0.025362
vn 0.025414 0.999363 -0.025065
vn -0.025092 0.999371 -0.025071
vn -0.998946 0.034201 -0.030632
vn -0.999507 0.000008 -0.031384
vn -0.999799 -0.000002 0.020070
vn -0.999229 0.034167 0.019343
vn 0.014041 0.034603 0.999303
vn -0.030704 0.034156 0.998945
vn -0.031436 0.000001 0.999506
vn -0.002973 0.000000 0.999996
vn 0.924662 0.380453 -0.015992
vn 0.998584 0.043007 -0.031298
vn 0.924668 0.022019 -0.380137
vn 0.887937 0.325239 -0.325251
vn 0.380087 0.022025 -0.924688
vn 0.025182 0.034152 -0.999099
vn 0.016264 0.380721 -0.924547
vn 0.325074 0.325297 -0.887980
vn 0.016266 0.924515 -0.380798
vn 0.025414 0.999363 -0.025065
vn 0.381304 0.924311 -0.016036
vn 0.325255 0.887917 -0.325289
vn 0.381290 0.924314 0.016164
vn 0.025387 0.999356 0.025362
vn 0.014187 0.924548 0.380801
vn 0.325142 0.887989 0.325204
vn 0.010968 0.380760 0.924609
vn 0.014041 0.034603 0.999303
vn 0.376168 0.028206 0.926122
vn 0.322736 0.325373 0.888805
vn 0.924650 0.039801 0.378733
vn 0.998850 0.044493 0.017866
vn 0.924670 0.380427 0.016136
vn 0.888094 0.324753 0.325307
vn -0.923018 0.022160 -0.384119
vn -0.998946 0.034201 -0.030632
vn -0.924400 0.380821 -0.021443
vn -0.886556 0.324845 -0.329385
vn -0.380826 0.924467 -0.018229
vn -0.025092 0.999371 -0.025071
vn -0.016161 0.924482 -0.380884
vn -0.325001 0.887434 -0.326857
vn -0.016291 0.380681 -0.924563
vn -0.025106 0.034191 -0.999100
vn -0.378819 0.022170 -0.925205
vn -0.324309 0.324768 -0.888453
vn -0.924570 0.380855 0.010911
vn -0.999229 0.034167 0.019343
vn -0.926807 0.022023 0.374892
vn -0.889763 0.325268 0.320191
vn -0.385116 0.022016 0.922606
vn -0.030704 0.034156 0.998945
vn -0.021419 0.380727 0.924439
vn -0.330076 0.325174 0.886178
vn -0.018335 0.924513 0.380710
vn -0.025379 0.999364 0.025070
vn -0.380922 0.924501 0.014004
vn -0.327080 0.887936 0.323402
s off
g Blocco_sabbia_03:group3
usemtl initialShadingGroup
f 2/1/1 1/2/2 19/3/3 21/4/4
f 1/2/5 6/5/6 20/6/7 19/3/8
f 4/7/9 3/8/10 15/9/11 14/10/12
f 3/8/13 2/1/14 16/11/15 15/9/16
f 6/5/17 5/12/18 11/13/19 10/14/20
f 5/12/21 4/7/22 12/15/23 11/13/24
f 8/16/25 7/17/26 30/18/27 29/19/28
f 7/17/29 12/15/30 31/20/31 30/18/32
f 10/14/33 9/21/34 27/22/35 26/23/36
f 9/21/37 8/16/38 25/24/39 27/22/40
f 14/10/41 13/25/42 32/26/43 31/20/44
f 13/25/45 18/27/46 33/28/47 32/26/48
f 18/27/49 17/29/50 23/30/51 22/31/52
f 17/29/53 16/11/54 24/32/55 23/30/56
f 29/19/57 28/33/58 34/34/59 36/35/60
f 28/33/61 33/28/62 35/36/63 34/34/64
f 2/1/65 21/4/66 24/32/67 16/11/68
f 10/14/69 26/23/70 20/6/71 6/5/72
f 31/20/73 12/15/74 4/7/75 14/10/76
f 18/27/77 22/31/78 35/36/79 33/28/80
f 8/16/81 29/19/82 36/35/83 25/24/84
f 5/12/85 6/5/86 1/2/87 37/37/88
f 1/2/89 2/1/90 3/8/91 37/37/92
f 3/8/93 4/7/94 5/12/95 37/37/96
f 11/13/97 12/15/98 7/17/99 38/38/100
f 7/17/101 8/16/102 9/21/103 38/38/104
f 9/21/105 10/14/106 11/13/107 38/38/108
f 17/29/109 18/27/110 13/25/111 39/39/112
f 13/25/113 14/10/114 15/9/115 39/39/116
f 15/9/117 16/11/118 17/29/119 39/39/120
f 32/26/121 33/28/122 28/33/123 40/40/124
f 28/33/125 29/19/126 30/18/127 40/40/128
f 30/18/129 31/20/130 32/26/131 40/40/132
