# This file uses meters as units for non-parametric coordinates.

mtllib Blocco sabbia 04.mtl
g default
v 93.586984 208.450336 -88.774379
v 82.575387 208.449481 -93.335414
v 82.574777 219.462101 -88.774379
v 82.575265 224.023624 -77.760707
v 93.586984 219.462101 -77.762904
v 98.148995 208.449481 -77.761684
v 82.577096 219.462101 100.293492
v 82.575021 208.449481 104.854283
v 93.582223 208.426395 100.337438
v 98.149484 208.404987 89.325719
v 93.586617 219.449085 89.320348
v 82.574777 224.023624 89.280797
v -93.414176 219.462101 -77.759730
v -82.401359 224.023624 -77.760707
v -82.336112 219.462101 -88.774379
v -82.312430 208.449481 -93.335414
v -93.356193 208.449481 -88.776820
v -97.975516 208.449481 -77.762904
v 93.586984 0.000007 -88.774379
v 98.148995 0.000007 -77.761684
v 82.575387 0.000007 -93.335414
v -97.974967 0.000007 -77.804652
v -93.369559 0.000007 -88.793422
v -82.356681 0.000007 -93.335414
v 82.530465 0.000007 104.854283
v 98.149484 0.000032 89.325719
v 93.569161 0.000032 100.338414
v -94.420707 208.449512 99.287145
v -83.434928 208.449512 103.908727
v -83.407767 219.462101 99.350133
v -83.345939 224.023624 88.335240
v -94.357535 219.462101 88.276891
v -98.919852 208.449512 88.248815
v -94.420707 0.000007 99.287145
v -98.919852 0.000007 88.248815
v -83.434928 0.000007 103.908727
v 91.563180 217.438404 -86.750941
v 91.560128 217.428272 98.305699
v -91.341483 217.438129 -86.752894
v -92.385612 217.438114 97.274693
vt 2.654706 0.627418
vt 2.652151 0.623312
vt 2.675662 0.598020
vt 2.682742 0.603358
vt 2.646349 0.621651
vt 2.668403 0.593106
vt 2.650817 0.630768
vt 2.653187 0.628855
vt 2.654037 0.697552
vt 2.649371 0.697904
vt 2.658620 0.697268
vt 2.649395 0.626302
vt 2.591728 0.625258
vt 2.592290 0.619616
vt 2.591431 0.629919
vt 2.586856 0.629970
vt 2.588896 0.628936
vt 2.582108 0.696452
vt 2.577360 0.694919
vt 2.586643 0.695529
vt 2.587317 0.624107
vt 2.547081 0.599909
vt 2.552942 0.593633
vt 2.541404 0.606293
vt 2.650455 0.701186
vt 2.584269 0.701019
vt 2.651321 0.703308
vt 2.582625 0.703857
vt 2.655394 0.700685
vt 2.681623 0.722525
vt 2.676437 0.729355
vt 2.686410 0.715412
vt 2.579463 0.699660
vt 2.562086 0.722779
vt 2.555989 0.717115
vt 2.568553 0.728033
vt 2.652426 0.624884
vt 2.587280 0.624468
vt 2.653539 0.699781
vt 2.581645 0.698879
vn 0.382676 0.000000 -0.923883
vn 0.382676 0.000000 -0.923883
vn 0.382676 0.000000 -0.923883
vn 0.382676 0.000000 -0.923883
vn 0.924382 0.012926 -0.381249
vn 0.998895 0.029448 -0.036639
vn 0.997858 0.000000 -0.065413
vn 0.923863 0.000000 -0.382724
vn 0.025414 0.999363 -0.025065
vn 0.016264 0.924523 -0.380780
vn -0.016164 0.924489 -0.380867
vn -0.025093 0.999371 -0.025071
vn 0.016273 0.380756 -0.924532
vn 0.025488 0.020219 -0.999471
vn -0.025425 0.020245 -0.999472
vn -0.016302 0.380718 -0.924547
vn 0.998895 0.029448 -0.036639
vn 0.924661 0.380456 -0.015990
vn 0.924671 0.380426 0.016134
vn 0.999431 0.031315 0.012574
vn 0.381303 0.924311 -0.016036
vn 0.025414 0.999363 -0.025065
vn 0.025385 0.999356 0.025362
vn 0.381293 0.924313 0.016162
vn 0.011449 0.020632 0.999722
vn 0.010966 0.380720 0.924625
vn -0.021424 0.380689 0.924455
vn -0.031011 0.020220 0.999315
vn 0.014189 0.924555 0.380784
vn 0.025385 0.999356 0.025362
vn -0.025380 0.999364 0.025070
vn -0.018332 0.924519 0.380694
vn 0.999431 0.031315 0.012574
vn 0.924666 0.039801 0.378694
vn 0.923513 -0.000093 0.383568
vn 0.999965 -0.000002 0.008432
vn 0.377248 0.019417 0.925909
vn 0.011449 0.020632 0.999722
vn -0.004782 0.000000 0.999989
vn 0.379466 -0.000077 0.925206
vn -0.025093 0.999371 -0.025071
vn -0.380827 0.924467 -0.018229
vn -0.380920 0.924502 0.014006
vn -0.025380 0.999364 0.025070
vn -0.924400 0.380822 -0.021444
vn -0.999316 0.020251 -0.030939
vn -0.999602 0.020229 0.019643
vn -0.924570 0.380855 0.010912
vn -0.999316 0.020251 -0.030939
vn -0.922749 0.013009 -0.385183
vn -0.922227 0.000082 -0.386648
vn -0.999508 0.000005 -0.031380
vn -0.380031 0.013010 -0.924882
vn -0.025425 0.020245 -0.999472
vn -0.025868 0.000006 -0.999665
vn -0.381501 0.000090 -0.924369
vn -0.031011 0.020220 0.999315
vn -0.386256 0.012923 0.922301
vn -0.387727 0.000000 0.921774
vn -0.031441 0.000001 0.999506
vn -0.926550 0.012923 0.375949
vn -0.999602 0.020229 0.019643
vn -0.999799 -0.000001 0.020070
vn -0.926039 0.000000 0.377428
vn 0.025488 0.020219 -0.999471
vn 0.025918 0.000000 -0.999664
vn -0.025868 0.000006 -0.999665
vn -0.025425 0.020245 -0.999472
vn 0.999431 0.031315 0.012574
vn 0.999965 -0.000002 0.008432
vn 0.997858 0.000000 -0.065413
vn 0.998895 0.029448 -0.036639
vn -0.025380 0.999364 0.025070
vn 0.025385 0.999356 0.025362
vn 0.025414 0.999363 -0.025065
vn -0.025093 0.999371 -0.025071
vn -0.999316 0.020251 -0.030939
vn -0.999508 0.000005 -0.031380
vn -0.999799 -0.000001 0.020070
vn -0.999602 0.020229 0.019643
vn 0.011449 0.020632 0.999722
vn -0.031011 0.020220 0.999315
vn -0.031441 0.000001 0.999506
vn -0.004782 0.000000 0.999989
vn 0.924661 0.380456 -0.015990
vn 0.998895 0.029448 -0.036639
vn 0.924382 0.012926 -0.381249
vn 0.887898 0.325293 -0.325302
vn 0.381204 0.012926 -0.924401
vn 0.025488 0.020219 -0.999471
vn 0.016273 0.380756 -0.924532
vn 0.325328 0.325227 -0.887913
vn 0.016264 0.924523 -0.380780
vn 0.025414 0.999363 -0.025065
vn 0.381303 0.924311 -0.016036
vn 0.325247 0.887933 -0.325252
vn 0.381293 0.924313 0.016162
vn 0.025385 0.999356 0.025362
vn 0.014189 0.924555 0.380784
vn 0.325211 0.887971 0.325185
vn 0.010966 0.380720 0.924625
vn 0.011449 0.020632 0.999722
vn 0.377248 0.019417 0.925909
vn 0.322701 0.325328 0.888834
vn 0.924666 0.039801 0.378694
vn 0.999431 0.031315 0.012574
vn 0.924671 0.380426 0.016134
vn 0.888104 0.324755 0.325276
vn -0.922749 0.013009 -0.385183
vn -0.999316 0.020251 -0.030939
vn -0.924400 0.380822 -0.021444
vn -0.886556 0.324845 -0.329384
vn -0.380827 0.924467 -0.018229
vn -0.025093 0.999371 -0.025071
vn -0.016164 0.924489 -0.380867
vn -0.324985 0.887447 -0.326836
vn -0.016302 0.380718 -0.924547
vn -0.025425 0.020245 -0.999472
vn -0.380031 0.013010 -0.924882
vn -0.324412 0.324756 -0.888420
vn -0.924570 0.380855 0.010912
vn -0.999602 0.020229 0.019643
vn -0.926550 0.012923 0.375949
vn -0.889773 0.325238 0.320195
vn -0.386256 0.012923 0.922301
vn -0.031011 0.020220 0.999315
vn -0.021424 0.380689 0.924455
vn -0.330157 0.325173 0.886148
vn -0.018332 0.924519 0.380694
vn -0.025380 0.999364 0.025070
vn -0.380920 0.924502 0.014006
vn -0.327018 0.887955 0.323411
s off
g Blocco_sabbia_04:group3
usemtl initialShadingGroup
f 2/1/1 1/2/2 19/3/3 21/4/4
f 1/2/5 6/5/6 20/6/7 19/3/8
f 4/7/9 3/8/10 15/9/11 14/10/12
f 3/8/13 2/1/14 16/11/15 15/9/16
f 6/5/17 5/12/18 11/13/19 10/14/20
f 5/12/21 4/7/22 12/15/23 11/13/24
f 8/16/25 7/17/26 30/18/27 29/19/28
f 7/17/29 12/15/30 31/20/31 30/18/32
f 10/14/33 9/21/34 27/22/35 26/23/36
f 9/21/37 8/16/38 25/24/39 27/22/40
f 14/10/41 13/25/42 32/26/43 31/20/44
f 13/25/45 18/27/46 33/28/47 32/26/48
f 18/27/49 17/29/50 23/30/51 22/31/52
f 17/29/53 16/11/54 24/32/55 23/30/56
f 29/19/57 28/33/58 34/34/59 36/35/60
f 28/33/61 33/28/62 35/36/63 34/34/64
f 2/1/65 21/4/66 24/32/67 16/11/68
f 10/14/69 26/23/70 20/6/71 6/5/72
f 31/20/73 12/15/74 4/7/75 14/10/76
f 18/27/77 22/31/78 35/36/79 33/28/80
f 8/16/81 29/19/82 36/35/83 25/24/84
f 5/12/85 6/5/86 1/2/87 37/37/88
f 1/2/89 2/1/90 3/8/91 37/37/92
f 3/8/93 4/7/94 5/12/95 37/37/96
f 11/13/97 12/15/98 7/17/99 38/38/100
f 7/17/101 8/16/102 9/21/103 38/38/104
f 9/21/105 10/14/106 11/13/107 38/38/108
f 17/29/109 18/27/110 13/25/111 39/39/112
f 13/25/113 14/10/114 15/9/115 39/39/116
f 15/9/117 16/11/118 17/29/119 39/39/120
f 32/26/121 33/28/122 28/33/123 40/40/124
f 28/33/125 29/19/126 30/18/127 40/40/128
f 30/18/129 31/20/130 32/26/131 40/40/132
