# This file uses meters as units for non-parametric coordinates.

mtllib Blocco sabbia 01.mtl
g default
v 90.382813 0.000002 -106.820131
v 90.382935 0.000002 91.457945
v 90.382935 78.101125 91.457945
v 90.382813 62.482503 -106.820131
v 90.382935 73.526524 -102.247133
v 90.383301 78.101125 -91.201845
v -101.166565 73.526524 -91.198549
v -90.122437 78.101125 -91.201845
v -90.057922 73.526524 -102.244814
v -90.034058 62.482503 -106.820131
v -101.109741 62.482503 -102.251650
v -105.742371 62.482503 -91.204164
v -105.741760 0.000002 -91.246767
v -101.122192 0.000002 -102.263979
v -90.078247 0.000002 -106.820131
v -91.156067 78.101125 90.424742
v -102.173523 73.526524 85.791075
v -106.684998 62.482503 74.719908
v -102.173523 0.000002 85.791075
v -106.684998 0.000002 74.719908
v -91.156067 0.000002 90.424742
v -99.088745 71.496823 -100.220034
vt 2.745528 0.727392
vt 2.742386 0.728657
vt 2.740715 0.682430
vt 2.743432 0.681070
vt 2.739931 0.730638
vt 2.738360 0.680607
vt 2.743135 0.678270
vt 2.791300 0.675785
vt 2.792336 0.678835
vt 2.742279 0.675580
vt 2.789244 0.672691
vt 2.739983 0.677908
vt 2.726381 0.666704
vt 2.730686 0.661920
vt 2.722454 0.671692
vt 2.730160 0.741164
vt 2.790105 0.722976
vt 2.795726 0.660486
vt 2.805619 0.667629
vt 2.806308 0.739901
vt 2.800865 0.663937
vt 2.741258 0.679526
vn -0.000002 0.923881 -0.382681
vn -0.000002 0.923881 -0.382681
vn -0.000002 0.923881 -0.382681
vn -0.000002 0.923881 -0.382681
vn -0.000005 0.382655 -0.923891
vn -0.000001 0.062089 -0.998071
vn -0.022572 0.061028 -0.997881
vn -0.014987 0.380912 -0.924490
vn -0.022888 0.999470 -0.023163
vn -0.380957 0.924434 -0.017134
vn -0.382689 0.923875 -0.002178
vn -0.018249 0.999834 -0.000104
vn -0.924384 0.380886 -0.020991
vn -0.997590 0.062580 -0.029983
vn -0.996384 0.080770 0.026368
vn -0.923850 0.382718 -0.005252
vn -0.997590 0.062580 -0.029983
vn -0.923319 0.040180 -0.381926
vn -0.922211 0.000258 -0.386686
vn -0.999505 0.000015 -0.031472
vn -0.376591 0.040170 -0.925508
vn -0.022572 0.061028 -0.997881
vn -0.023839 0.000017 -0.999716
vn -0.381365 0.000264 -0.924425
vn -0.022572 0.061028 -0.997881
vn -0.000001 0.062089 -0.998071
vn 0.000000 0.000000 -1.000000
vn -0.023839 0.000017 -0.999716
vn -0.018249 0.999834 -0.000104
vn 0.000000 1.000000 0.000000
vn 0.000000 0.999721 -0.023605
vn -0.022888 0.999470 -0.023163
vn -0.997590 0.062580 -0.029983
vn -0.999505 0.000015 -0.031472
vn -0.999752 -0.000002 0.022283
vn -0.996384 0.080770 0.026368
vn -0.005690 0.000000 0.999984
vn -0.023630 0.000000 0.999721
vn -0.028765 0.000000 0.999586
vn -0.005690 0.000000 0.999984
vn 1.000000 -0.000003 0.000000
vn 1.000000 -0.000003 0.000000
vn 1.000000 -0.000003 0.000000
vn 1.000000 -0.000003 0.000000
vn 1.000000 -0.000003 0.000000
vn 1.000000 -0.000003 0.000000
vn -0.023630 0.000000 0.999721
vn -0.387761 0.000000 0.921760
vn -0.387761 0.000000 0.921760
vn -0.028765 0.000000 0.999586
vn -0.926052 0.000000 0.377396
vn -0.996384 0.080770 0.026368
vn -0.999752 -0.000002 0.022283
vn -0.926052 0.000000 0.377396
vn -0.923319 0.040180 -0.381926
vn -0.997590 0.062580 -0.029983
vn -0.924384 0.380886 -0.020991
vn -0.886565 0.324956 -0.329251
vn -0.380957 0.924434 -0.017134
vn -0.022888 0.999470 -0.023163
vn -0.014879 0.924436 -0.381046
vn -0.324984 0.887457 -0.326811
vn -0.014987 0.380912 -0.924490
vn -0.022572 0.061028 -0.997881
vn -0.376591 0.040170 -0.925508
vn -0.324064 0.324928 -0.888484
s off
g Blocco_sabbia_01:group3
usemtl initialShadingGroup
f 6/1/1 5/2/2 9/3/3 8/4/4
f 5/2/5 4/5/6 10/6/7 9/3/8
f 8/4/9 7/7/10 17/8/11 16/9/12
f 7/7/13 12/10/14 18/11/15 17/8/16
f 12/10/17 11/12/18 14/13/19 13/14/20
f 11/12/21 10/6/22 15/15/23 14/13/24
f 10/6/25 4/5/26 1/16/27 15/15/28
f 16/9/29 3/17/30 6/1/31 8/4/32
f 12/10/33 13/14/34 20/18/35 18/11/36
f 3/17/37 16/9/38 21/19/39 2/20/40
f 3/17/41 2/20/42 1/16/43 4/5/44 5/2/45 6/1/46
f 16/9/47 17/8/48 19/21/49 21/19/50
f 17/8/51 18/11/52 20/18/53 19/21/54
f 11/12/55 12/10/56 7/7/57 22/22/58
f 7/7/59 8/4/60 9/3/61 22/22/62
f 9/3/63 10/6/64 11/12/65 22/22/66
