# This file uses meters as units for non-parametric coordinates.

mtllib Chiave d'oro.mtl
g default
v -739.828819 14.950264 894.284180
v -712.510750 14.950264 894.284180
v -739.828819 15.928114 894.284180
v -712.510750 15.928114 894.284180
v -739.828819 15.928114 892.931396
v -712.510750 15.928114 892.931396
v -739.828819 14.950264 892.931396
v -712.510750 14.950264 892.931396
v -720.595955 15.928114 894.284180
v -720.595955 15.928114 892.931396
v -720.595955 14.950264 892.931396
v -720.595955 14.950264 894.284180
v -744.155357 14.576543 885.705566
v -750.700066 14.576543 885.709839
v -755.324852 14.576543 890.340515
v -755.320549 14.576543 896.885376
v -750.689674 14.576543 901.510010
v -744.144981 14.576543 901.505859
v -739.520195 14.576543 896.874939
v -739.524498 14.576543 890.330200
v -744.155357 16.311518 885.705566
v -750.700066 16.311518 885.709839
v -755.324852 16.311518 890.340515
v -755.320549 16.311518 896.885376
v -750.689674 16.311518 901.510010
v -744.144981 16.311518 901.505859
v -739.520195 16.311518 896.874939
v -739.524498 16.311518 890.330200
v -744.508995 14.585562 886.560791
v -750.345299 14.585562 886.564636
v -754.469521 14.585562 890.694214
v -754.465691 14.585562 896.530640
v -750.336052 14.585562 900.654785
v -744.499718 14.585562 900.650940
v -740.375526 14.585562 896.521301
v -740.379372 14.585562 890.684937
v -744.508995 16.311518 886.560791
v -750.345299 16.311518 886.564636
v -754.469521 16.311518 890.694214
v -754.465691 16.311518 896.530640
v -750.336052 16.311518 900.654785
v -744.499718 16.311518 900.650940
v -740.375526 16.311518 896.521301
v -740.379372 16.311518 890.684937
v -720.595955 14.950264 891.398560
v -712.510750 14.950264 891.398560
v -720.595955 15.928114 891.398560
v -712.510750 15.928114 891.398560
v -713.918572 15.928114 894.284180
v -713.918572 15.928114 892.931396
v -713.918572 15.928114 891.398560
v -713.918572 14.950264 891.398560
v -713.918572 14.950264 892.931396
v -713.918572 14.950264 894.284180
v -713.918572 14.950264 886.085815
v -712.510750 14.950264 886.085815
v -713.918572 15.928114 886.085815
v -712.510750 15.928114 886.085815
v -713.918572 15.928114 888.867554
v -713.918572 14.950264 888.867554
v -712.510750 14.950264 888.867554
v -712.510750 15.928114 888.867554
v -715.340843 15.928377 888.867249
v -715.342186 14.950527 888.867798
v -715.343559 15.927835 886.085571
v -715.344872 14.949997 886.085999
v -718.160851 15.928114 894.284180
v -718.160851 15.928114 892.931396
v -718.160851 15.928114 891.398560
v -718.160851 14.950274 891.398560
v -718.160851 14.950274 892.931396
v -718.160851 14.950274 894.284180
v -720.595955 14.950264 886.795593
v -718.160851 14.950274 886.795593
v -720.595955 15.928114 886.795593
v -718.160851 15.928114 886.795593
v -711.345085 14.950264 892.931396
v -711.345085 14.950264 894.284180
v -711.345085 15.928114 892.931396
v -711.345085 15.928114 894.284180
v -711.345085 14.950264 891.398560
v -711.345085 15.928114 891.398560
v -711.345085 14.950264 888.867554
v -711.345085 15.928114 888.867554
v -711.345085 14.950264 886.085815
v -711.345085 15.928114 886.085815
vt 0.302895 0.745535
vt 0.330834 0.732504
vt 0.303755 0.728961
vt 0.299720 0.745532
vt 0.263336 0.743446
vt 0.300886 0.745533
vt 0.332729 0.732797
vt 0.301729 0.745534
vt 0.327956 0.744644
vt 0.328939 0.745746
vt 0.327678 0.746516
vt 0.326517 0.744834
vt 0.329276 0.735895
vt 0.263388 0.739755
vt 0.333004 0.736526
vt 0.330813 0.736161
vt 0.293143 0.719084
vt 0.304786 0.719259
vt 0.304969 0.712612
vt 0.293284 0.712436
vt 0.316428 0.719506
vt 0.316652 0.712860
vt 0.328067 0.719831
vt 0.328335 0.713178
vt 0.339720 0.720270
vt 0.340034 0.713523
vt 0.352037 0.720478
vt 0.257498 0.712633
vt 0.269848 0.719040
vt 0.269872 0.712280
vt 0.281502 0.718988
vt 0.281591 0.712328
vt 0.293197 0.717449
vt 0.304850 0.717624
vt 0.316502 0.717871
vt 0.328153 0.718193
vt 0.339776 0.718599
vt 0.351306 0.718816
vt 0.269890 0.717398
vt 0.281543 0.717350
vt 0.304910 0.714250
vt 0.293235 0.714074
vt 0.316583 0.714497
vt 0.328255 0.714814
vt 0.339920 0.715158
vt 0.258295 0.714271
vt 0.269886 0.713952
vt 0.281556 0.713968
vt 0.341772 0.734028
vt 0.341160 0.730932
vt 0.272638 0.743578
vt 0.343152 0.734481
vt 0.334745 0.732705
vt 0.335513 0.736865
vt 0.265660 0.743479
vt 0.336840 0.737750
vt 0.330184 0.746908
vt 0.265858 0.729455
vt 0.261429 0.733294
vt 0.327045 0.743163
vt 0.263510 0.731189
vt 0.263479 0.733323
vt 0.335049 0.743911
vt 0.265833 0.731222
vt 0.337751 0.752582
vt 0.339165 0.751644
vt 0.340221 0.752683
vt 0.273887 0.731336
vt 0.330240 0.744623
vt 0.331403 0.742912
vt 0.333636 0.744222
vt 0.331983 0.746361
vt 0.329367 0.742021
vt 0.328501 0.743522
vt 0.336561 0.747581
vt 0.334742 0.749249
vt 0.269640 0.733410
vt 0.333377 0.750037
vt 0.338952 0.747653
vt 0.269610 0.735567
vt 0.341687 0.750899
vt 0.340364 0.750553
vt 0.333219 0.751612
vt 0.334339 0.750939
vt 0.336520 0.753498
vt 0.273912 0.729569
vt 0.351309 0.715596
vt 0.258411 0.717488
vt 0.352074 0.723855
vt 0.257700 0.719096
vt 0.281508 0.722382
vt 0.293128 0.722477
vt 0.269831 0.722435
vt 0.257601 0.722481
vt 0.352073 0.714012
vt 0.339709 0.723662
vt 0.327993 0.723228
vt 0.316372 0.722898
vt 0.304751 0.722651
vt 0.261459 0.731160
vt 0.261338 0.739726
vt 0.327877 0.741563
vt 0.299738 0.728957
vt 0.303737 0.745536
vt 0.269696 0.729509
vt 0.336171 0.754862
vt 0.338383 0.754155
vt 0.269670 0.731276
vt 0.263535 0.729422
vt 0.329330 0.748025
vt 0.331188 0.747933
vt 0.261484 0.729393
vt 0.341758 0.729807
vt 0.272690 0.739886
vt 0.265712 0.739787
vt 0.334555 0.731077
vt 0.265803 0.733356
vt 0.340136 0.746779
vt 0.273827 0.735630
vt 0.273857 0.733470
vt 0.337594 0.746209
vt 0.300904 0.728958
vt 0.332464 0.731289
vt 0.302912 0.728960
vt 0.261286 0.743417
vt 0.329343 0.732330
vt 0.301746 0.728959
vn 0.000000 0.000000 1.000000
vn 0.000000 0.000000 1.000000
vn 0.000000 0.000000 1.000000
vn 0.000000 0.000000 1.000000
vn 0.000000 1.000000 0.000000
vn 0.000000 1.000000 0.000000
vn 0.000000 1.000000 0.000000
vn 0.000000 1.000000 0.000000
vn 0.000000 0.000000 -1.000000
vn 0.000000 0.000000 -1.000000
vn 0.000000 0.000000 -1.000000
vn 0.000000 0.000000 -1.000000
vn 0.000000 -1.000000 0.000000
vn 0.000001 -1.000000 0.000000
vn 0.000000 -1.000000 0.000000
vn 0.000000 -1.000000 0.000000
vn 1.000000 0.000000 0.000000
vn 1.000000 0.000000 0.000000
vn 1.000000 0.000000 0.000000
vn 1.000000 0.000000 0.000000
vn 0.000000 1.000000 0.000000
vn 0.000000 1.000000 0.000000
vn -0.000000 -1.000000 0.000000
vn 0.000000 -1.000000 0.000000
vn 0.000000 0.000000 1.000000
vn 0.000000 0.000000 1.000000
vn -0.000656 0.000000 -1.000000
vn -0.000656 0.000000 -1.000000
vn -0.000656 0.000000 -1.000000
vn -0.000656 0.000000 -1.000000
vn -0.707555 0.000000 -0.706659
vn -0.707555 0.000000 -0.706659
vn -0.707555 0.000000 -0.706659
vn -0.707555 0.000000 -0.706659
vn -1.000000 0.000000 0.000657
vn -1.000000 0.000000 0.000657
vn -1.000000 0.000000 0.000657
vn -1.000000 0.000000 0.000657
vn -0.706627 0.000000 0.707586
vn -0.706627 0.000000 0.707586
vn -0.706627 0.000000 0.707586
vn -0.706627 0.000000 0.707586
vn 0.000634 0.000000 1.000000
vn 0.000634 0.000000 1.000000
vn 0.000634 0.000000 1.000000
vn 0.000634 0.000000 1.000000
vn 0.707576 0.000000 0.706637
vn 0.707576 0.000000 0.706637
vn 0.707576 0.000000 0.706637
vn 0.707576 0.000000 0.706637
vn 1.000000 0.000000 -0.000657
vn 1.000000 0.000000 -0.000657
vn 1.000000 0.000000 -0.000657
vn 1.000000 0.000000 -0.000657
vn 0.706634 0.000000 -0.707580
vn 0.706634 0.000000 -0.707580
vn 0.706634 0.000000 -0.707580
vn 0.706634 0.000000 -0.707580
vn 0.003735 -0.999953 0.009000
vn -0.003723 -0.999953 0.009005
vn -0.003723 -0.999952 0.009005
vn 0.003735 -0.999953 0.009000
vn 0.009005 -0.999953 0.003723
vn 0.009005 -0.999953 0.003722
vn 0.009000 -0.999953 -0.003735
vn 0.009000 -0.999953 -0.003735
vn 0.003723 -0.999952 -0.009006
vn 0.003723 -0.999953 -0.009006
vn -0.003735 -0.999953 -0.009000
vn -0.003735 -0.999953 -0.009000
vn -0.009004 -0.999953 -0.003723
vn -0.009004 -0.999953 -0.003723
vn -0.009000 -0.999953 0.003735
vn -0.009000 -0.999953 0.003735
vn 0.000000 1.000000 0.000000
vn 0.000000 1.000000 0.000000
vn 0.000000 1.000000 0.000000
vn 0.000000 1.000000 -0.000000
vn 0.000000 1.000000 0.000000
vn 0.000000 1.000000 0.000000
vn 0.000000 1.000000 -0.000000
vn 0.000000 1.000000 -0.000000
vn 0.000000 1.000000 -0.000000
vn 0.000000 1.000000 -0.000000
vn 0.000000 1.000000 -0.000000
vn 0.000000 1.000000 -0.000000
vn 0.000000 1.000000 -0.000000
vn 0.000000 1.000000 -0.000000
vn 0.000000 1.000000 0.000000
vn 0.000000 1.000000 0.000000
vn 0.000654 0.000000 1.000000
vn 0.000654 0.000000 1.000000
vn 0.000654 0.000000 1.000000
vn 0.000654 0.000000 1.000000
vn 0.707564 0.000000 0.706649
vn 0.707564 0.000000 0.706649
vn 0.707564 0.000000 0.706649
vn 0.707564 0.000000 0.706649
vn 1.000000 0.000000 -0.000656
vn 1.000000 0.000000 -0.000656
vn 1.000000 0.000000 -0.000656
vn 1.000000 0.000000 -0.000656
vn 0.706634 0.000000 -0.707580
vn 0.706634 0.000000 -0.707580
vn 0.706634 0.000000 -0.707580
vn 0.706634 0.000000 -0.707580
vn -0.000654 0.000000 -1.000000
vn -0.000654 0.000000 -1.000000
vn -0.000654 0.000000 -1.000000
vn -0.000654 0.000000 -1.000000
vn -0.707573 0.000000 -0.706640
vn -0.707573 0.000000 -0.706640
vn -0.707573 0.000000 -0.706640
vn -0.707573 0.000000 -0.706640
vn -1.000000 0.000000 0.000659
vn -1.000000 0.000000 0.000659
vn -1.000000 0.000000 0.000659
vn -1.000000 0.000000 0.000659
vn -0.706635 0.000000 0.707579
vn -0.706635 0.000000 0.707579
vn -0.706635 0.000000 0.707579
vn -0.706635 0.000000 0.707579
vn 0.000000 0.000000 -1.000000
vn 0.000000 0.000000 -1.000000
vn 0.000000 0.000000 -1.000000
vn 0.000000 0.000000 -1.000000
vn 0.000004 -1.000000 0.000000
vn 0.000002 -1.000000 0.000000
vn -1.000000 0.000000 0.000000
vn -1.000000 0.000000 0.000000
vn -1.000000 0.000000 0.000000
vn -1.000000 0.000000 0.000000
vn 0.000000 1.000000 0.000000
vn 0.000000 1.000000 0.000000
vn 1.000000 0.000000 0.000000
vn 1.000000 0.000000 0.000000
vn 0.000000 1.000000 0.000000
vn 0.000000 1.000000 0.000000
vn 0.000000 1.000000 0.000000
vn 0.000000 1.000000 0.000000
vn 0.000000 1.000000 0.000000
vn 0.000000 1.000000 0.000000
vn 0.000000 0.000000 -1.000000
vn 0.000005 -0.000110 -1.000000
vn 0.000005 -0.000110 -1.000000
vn 0.000000 0.000000 -1.000000
vn 0.000000 -1.000000 0.000000
vn -0.000002 -1.000000 0.000000
vn -0.000001 -1.000000 0.000000
vn 0.000000 -1.000000 0.000000
vn -0.000002 -1.000000 0.000000
vn 0.000000 -1.000000 0.000000
vn 0.000000 0.000000 1.000000
vn 0.000000 0.000000 1.000000
vn 0.000000 0.000000 1.000000
vn 0.000000 0.000000 1.000000
vn 0.000000 -1.000000 0.000033
vn 0.000000 -1.000000 0.000000
vn -1.000000 0.000000 0.000000
vn -1.000000 0.000000 0.000000
vn -1.000000 0.000000 0.000000
vn -1.000000 0.000000 0.000000
vn 0.000000 1.000000 0.000000
vn -0.000002 1.000000 -0.000034
vn 1.000000 0.000000 0.000000
vn 1.000000 0.000000 0.000000
vn 1.000000 0.000000 0.000000
vn 1.000000 0.000000 0.000000
vn -0.999999 0.001369 0.000971
vn -0.999999 0.001369 0.000971
vn -0.999999 0.001369 0.000971
vn -0.999999 0.001369 0.000971
vn 0.000001 -1.000000 0.000048
vn 0.000000 -1.000000 0.000000
vn 1.000000 0.000000 0.000000
vn 1.000000 0.000000 0.000000
vn 1.000000 0.000000 0.000000
vn 1.000000 0.000000 0.000000
vn 0.000000 1.000000 0.000000
vn -0.000003 1.000000 -0.000049
vn 0.000011 0.000281 1.000000
vn 0.000011 0.000281 1.000000
vn 0.000011 0.000281 1.000000
vn 0.000011 0.000281 1.000000
vn -0.000005 1.000000 -0.000097
vn -0.000005 1.000000 -0.000097
vn 0.000010 -0.000218 -1.000000
vn 0.000010 -0.000218 -1.000000
vn 0.000001 -1.000000 0.000095
vn 0.000001 -1.000000 0.000095
vn 0.000000 0.000000 -1.000000
vn 0.000000 0.000000 -1.000000
vn 0.000000 0.000000 -1.000000
vn 0.000000 0.000000 -1.000000
vn 0.000004 -1.000000 0.000000
vn 0.000004 -1.000000 0.000000
vn -1.000000 0.000000 0.000000
vn -1.000000 0.000000 0.000000
vn 0.000000 1.000000 0.000000
vn 0.000000 1.000000 0.000000
vn 1.000000 0.000000 0.000000
vn 1.000000 0.000000 0.000000
vn 1.000000 0.000000 0.000000
vn 1.000000 0.000000 0.000000
vn 0.000000 -1.000000 0.000000
vn 0.000000 -1.000000 0.000000
vn 0.000000 1.000000 0.000000
vn 0.000000 1.000000 0.000000
vn 0.000000 0.000000 1.000000
vn 0.000000 0.000000 1.000000
vn 0.000000 -1.000000 0.000000
vn 0.000000 0.000000 -1.000000
vn 0.000000 0.000000 -1.000000
vn 0.000000 0.000000 -1.000000
vn 0.000000 0.000000 -1.000000
vn 0.000000 1.000000 0.000000
vn 0.000000 0.000000 1.000000
vn 0.000000 0.000000 1.000000
vn 0.000000 0.000000 1.000000
vn 0.000000 0.000000 1.000000
vn 0.000000 -1.000000 0.000000
vn 0.000000 -1.000000 0.000000
vn 0.000000 0.000000 -1.000000
vn 0.000000 0.000000 -1.000000
vn 0.000000 1.000000 0.000000
vn 0.000000 1.000000 0.000000
s 1
g Key1 Propos:group3
usemtl lambert27SG
f 1/1/1 12/124/2 9/3/3 3/104/4
s 2
f 3/4/5 9/103/6 10/122/7 5/6/8
s off
f 5/6/9 10/122/10 11/127/11 7/8/12
s 3
f 7/8/13 11/127/14 12/124/15 1/1/16
s 4
f 78/9/17 77/10/18 79/11/19 80/12/20
s 2
f 9/125/6 67/101/21 68/14/22 10/5/7
s 3
f 12/2/15 11/7/14 71/15/23 72/16/24
s 1
f 9/126/3 12/2/2 72/16/25 67/13/26
s off
f 13/17/27 14/18/28 22/99/29 21/92/30
f 14/18/31 15/21/32 23/98/33 22/99/34
f 15/21/35 16/23/36 24/97/37 23/98/38
f 16/23/39 17/25/40 25/96/41 24/97/42
f 17/25/43 18/27/44 26/89/45 25/96/46
f 18/90/47 19/29/48 27/93/49 26/94/50
f 19/29/51 20/31/52 28/91/53 27/93/54
f 20/31/55 13/17/56 21/92/57 28/91/58
s 5
f 14/18/59 13/17/60 29/33/61 30/34/62
f 15/21/63 14/18/59 30/34/62 31/35/64
f 16/23/65 15/21/63 31/35/64 32/36/66
f 17/25/67 16/23/65 32/36/66 33/37/68
f 18/27/69 17/25/67 33/37/68 34/38/70
f 19/29/71 18/90/69 34/88/70 35/39/72
f 20/31/73 19/29/71 35/39/72 36/40/74
f 13/17/60 20/31/73 36/40/74 29/33/61
s 6
f 21/20/75 22/19/76 38/41/77 37/42/78
f 22/19/76 23/22/79 39/43/80 38/41/77
f 23/22/79 24/24/81 40/44/82 39/43/80
f 24/24/81 25/26/83 41/45/84 40/44/82
f 25/26/83 26/95/85 42/87/86 41/45/84
f 26/28/85 27/30/87 43/47/88 42/46/86
f 27/30/87 28/32/89 44/48/90 43/47/88
f 28/32/89 21/20/75 37/42/78 44/48/90
s off
f 37/42/91 38/41/92 30/34/93 29/33/94
f 38/41/95 39/43/96 31/35/97 30/34/98
f 39/43/99 40/44/100 32/36/101 31/35/102
f 40/44/103 41/45/104 33/37/105 32/36/106
f 41/45/107 42/87/108 34/38/109 33/37/110
f 42/46/111 43/47/112 35/39/113 34/88/114
f 43/47/115 44/48/116 36/40/117 35/39/118
f 44/48/119 37/42/120 29/33/121 36/40/122
f 74/49/123 73/50/124 75/113/125 76/52/126
s 3
f 71/15/23 11/7/14 45/53/127 70/54/128
s 7
f 11/7/129 10/123/130 47/116/131 45/53/132
s 2
f 10/5/7 68/14/22 69/115/133 47/55/134
s 4
f 79/11/19 77/10/18 81/57/135 82/110/136
s 2
f 49/59/137 4/100/138 6/61/139 50/62/140
f 51/117/141 50/62/140 6/61/139 48/64/142
s 9
f 56/65/143 55/66/144 57/67/145 58/107/146
s 3
f 8/69/147 53/70/148 52/71/149 46/72/150
f 54/73/151 53/70/148 8/69/147 2/74/152
s 1
f 49/102/153 54/73/154 2/74/155 4/60/156
s 3
f 46/72/150 52/71/149 60/75/157 61/76/158
s off
f 52/71/159 51/63/160 59/121/161 60/75/162
s 2
f 51/117/141 48/64/142 62/108/163 59/77/164
s off
f 48/111/165 46/72/166 61/76/167 62/78/168
f 64/79/169 63/118/170 65/81/171 66/82/172
s 3
f 61/76/158 60/75/157 55/66/173 56/65/174
s off
f 84/83/175 83/84/176 85/85/177 86/106/178
s 2
f 59/77/164 62/108/163 58/68/179 57/120/180
s off
f 60/75/181 59/121/182 63/118/183 64/79/184
s 2
f 59/77/164 57/120/180 65/119/185 63/80/186
s 9
f 57/67/145 55/66/144 66/82/187 65/81/188
s 3
f 55/66/173 60/75/157 64/79/189 66/82/190
s 2
f 67/101/21 49/59/137 50/62/140 68/14/22
f 69/115/133 68/14/22 50/62/140 51/117/141
s off
f 52/71/191 70/54/192 69/56/193 51/63/194
s 3
f 53/70/148 71/15/23 70/54/128 52/71/149
f 72/16/24 71/15/23 53/70/148 54/73/151
s 1
f 67/13/26 72/16/25 54/73/154 49/102/153
s 3
f 70/54/128 45/53/127 73/50/195 74/49/196
s 7
f 45/53/132 47/116/131 75/113/197 73/50/198
s 2
f 47/55/134 69/115/133 76/114/199 75/51/200
s off
f 69/56/201 70/54/202 74/49/203 76/52/204
s 3
f 2/74/152 8/69/147 77/10/205 78/9/206
s 2
f 6/61/139 4/100/138 80/112/207 79/109/208
s 1
f 4/60/156 2/74/155 78/9/209 80/12/210
s 3
f 8/69/147 46/72/150 81/57/211 77/10/205
s off
f 46/72/212 48/111/213 82/110/214 81/57/215
s 2
f 48/64/142 6/61/139 79/109/208 82/58/216
s off
f 62/78/217 61/76/218 83/84/219 84/83/220
s 3
f 61/76/158 56/65/174 85/85/221 83/84/222
s 9
f 56/65/143 58/107/146 86/106/223 85/85/224
s 2
f 58/68/179 62/108/163 84/105/225 86/86/226
