# This file uses meters as units for non-parametric coordinates.

mtllib Ciocco di legna.mtl
g default
v -590.769920 19.881611 -229.955811
v -590.762810 28.968983 -233.362427
v -590.655602 34.370323 -241.321411
v -590.489189 34.022503 -250.792297
v -590.327141 28.058395 -258.157959
v -590.231407 18.756069 -260.604614
v -715.921455 19.164745 -232.128418
v -715.914345 28.252113 -235.535156
v -715.807137 33.653446 -243.493896
v -715.640740 33.305641 -252.964844
v -715.478752 27.341526 -260.330566
v -715.382942 18.039211 -262.777161
v -590.500694 19.318836 -245.280273
v -715.652245 18.601974 -247.452881
vt 1.077044 0.480063
vt 1.071238 0.481699
vt 1.160388 0.485911
vt 1.154762 0.483734
vt 1.067477 0.486348
vt 1.163693 0.490893
vt 1.067199 0.492233
vt 1.163415 0.496778
vt 1.070510 0.497107
vt 1.159660 0.501319
vt 1.076144 0.499108
vt 1.153862 0.502779
vt 1.076594 0.489585
vt 1.154312 0.493257
vt 1.249898 0.608137
vt 1.249890 0.612552
vt 1.192443 0.608034
vt 1.192435 0.612450
vt 1.249883 0.616903
vt 1.192427 0.616801
vt 1.249875 0.621254
vt 1.192419 0.621151
vt 1.249867 0.625669
vt 1.192411 0.625567
vt 1.249859 0.630124
vt 1.192403 0.630022
vn -0.018263 0.350979 0.936205
vn -0.018263 0.350979 0.936205
vn -0.018263 0.350979 0.936205
vn -0.018263 0.350979 0.936205
vn -0.017191 0.617193 0.786624
vn -0.010333 0.960438 0.278303
vn -0.010333 0.960438 0.278303
vn -0.017191 0.617193 0.786624
vn -0.010333 0.960438 0.278303
vn 0.000730 0.936366 -0.351024
vn 0.000730 0.936366 -0.351024
vn -0.010333 0.960438 0.278303
vn 0.000730 0.936366 -0.351024
vn 0.006471 0.777220 -0.629196
vn 0.006471 0.777220 -0.629196
vn 0.000730 0.936366 -0.351024
vn 0.015328 0.254489 -0.966954
vn 0.015328 0.254489 -0.966954
vn 0.015328 0.254489 -0.966954
vn 0.015328 0.254489 -0.966954
vn 0.999833 0.005727 0.017357
vn 0.999833 0.005727 0.017356
vn 0.999833 0.005727 0.017357
vn 0.999833 0.005727 0.017357
vn 0.999833 0.005727 0.017357
vn 0.999833 0.005727 0.017357
vn 0.999833 0.005727 0.017357
vn 0.999833 0.005727 0.017357
vn 0.999833 0.005727 0.017357
vn 0.999833 0.005727 0.017357
vn 0.999833 0.005727 0.017357
vn 0.999833 0.005727 0.017357
vn 0.999833 0.005727 0.017357
vn 0.999833 0.005727 0.017357
vn 0.999833 0.005727 0.017357
vn -0.999833 -0.005727 -0.017357
vn -0.999833 -0.005727 -0.017357
vn -0.999833 -0.005727 -0.017357
vn -0.999833 -0.005727 -0.017357
vn -0.999833 -0.005727 -0.017357
vn -0.999833 -0.005727 -0.017357
vn -0.999833 -0.005727 -0.017357
vn -0.999833 -0.005727 -0.017357
vn -0.999833 -0.005727 -0.017357
vn -0.999833 -0.005727 -0.017357
vn -0.999833 -0.005727 -0.017357
vn -0.999833 -0.005727 -0.017357
vn -0.999833 -0.005727 -0.017357
vn -0.999833 -0.005727 -0.017357
vn -0.999833 -0.005727 -0.017357
vn 0.005085 -0.999310 0.036788
vn 0.005085 -0.999310 0.036788
vn 0.005085 -0.999310 0.036788
vn 0.005085 -0.999310 0.036788
vn 0.005085 -0.999310 0.036788
vn 0.005085 -0.999310 0.036788
s off
g Propos:group1WoodLog Propos:group3
usemtl Propos:lambert7SG
f 1/26/1 2/24/2 8/23/3 7/25/4
f 2/24/5 3/22/6 9/21/7 8/23/8
f 3/22/9 4/20/10 10/19/11 9/21/12
f 4/20/13 5/18/14 11/16/15 10/19/16
f 5/18/17 6/17/18 12/15/19 11/16/20
f 2/2/21 1/1/22 13/13/23
f 3/5/24 2/2/25 13/13/26
f 4/7/27 3/5/28 13/13/29
f 5/9/30 4/7/31 13/13/32
f 6/11/33 5/9/34 13/13/35
f 7/4/36 8/3/37 14/14/38
f 8/3/39 9/6/40 14/14/41
f 9/6/42 10/8/43 14/14/44
f 10/8/45 11/10/46 14/14/47
f 11/10/48 12/12/49 14/14/50
f 7/4/51 14/14/52 12/12/53 6/11/54 13/13/55 1/1/56
