# This file uses meters as units for non-parametric coordinates.

mtllib Componente pietra B.mtl
g default
v 98.159458 0.000000 -99.000244
v -97.876617 0.000000 -99.000244
v 98.159458 0.000000 99.277954
v 98.159458 78.101170 -99.000244
v -97.876617 78.101170 -99.000244
v 98.159458 78.101170 99.277954
v -98.997955 0.000000 98.157104
v -98.997955 78.101170 98.157104
vt 2.343765 0.714753
vt 2.344176 0.731410
vt 2.302366 0.732440
vt 2.301955 0.715783
vt 2.342724 0.672465
vt 2.342219 0.655810
vt 2.384500 0.654528
vt 2.385005 0.671183
vt 2.300175 0.657085
vt 2.300680 0.673740
vt 2.258637 0.675015
vt 2.258132 0.658360
vn 0.000000 0.000000 -1.000000
vn 0.000000 0.000000 -1.000000
vn 0.000000 0.000000 -1.000000
vn 0.000000 0.000000 -1.000000
vn 1.000000 0.000000 0.000000
vn 1.000000 0.000000 0.000000
vn 0.711115 0.000000 -0.703076
vn 0.711115 0.000000 -0.703076
vn 0.000000 1.000000 0.000000
vn 0.000000 1.000000 0.000000
vn 0.000000 1.000000 0.000000
vn 0.000000 1.000000 0.000000
vn -0.999984 0.000000 -0.005688
vn -0.999984 0.000000 -0.005688
vn -0.999984 0.000000 -0.005688
vn -0.999984 0.000000 -0.005688
vn -0.005685 0.000000 0.999984
vn -0.005685 0.000000 0.999984
vn -0.005685 0.000000 0.999984
vn -0.005685 0.000000 0.999984
s off
g Componente_pietra_B:group3
usemtl initialShadingGroup
f 4/1/1 1/2/2 2/3/3 5/4/4
f 6/5/5 3/6/6 1/7/7 4/8/8
f 8/10/9 6/5/10 4/1/11 5/4/12
f 5/11/13 2/12/14 7/9/15 8/10/16
f 6/5/17 8/10/18 7/9/19 3/6/20
