# This file uses meters as units for non-parametric coordinates.

mtllib Componente pietra A.mtl
g default
v 81.557535 0.000000 -37.262085
v 38.188093 0.000000 -81.128540
v -16.613909 0.000000 -109.446289
v -77.484026 0.000000 -119.441467
v 118.552050 0.000000 78.836731
v 109.249071 0.000000 17.857239
v 81.557535 78.101170 -37.262085
v 38.188093 78.101170 -81.128540
v -16.613909 78.101170 -109.446289
v -77.484026 78.101170 -119.441467
v 118.552050 78.101170 78.836731
v 109.249071 78.101170 17.857239
v -78.605364 0.000000 77.715942
v -78.605364 78.101170 77.715942
vt 2.540829 0.511160
vt 2.540657 0.525648
vt 2.522314 0.525430
vt 2.522485 0.510942
vt 2.540485 0.540136
vt 2.522141 0.539918
vt 2.540313 0.554624
vt 2.521969 0.554407
vt 2.541173 0.482184
vt 2.541001 0.496672
vt 2.522657 0.496454
vt 2.522829 0.481966
vt 2.541723 0.435877
vt 2.495716 0.472800
vt 2.485593 0.462433
vt 2.523379 0.435659
vt 2.479168 0.449446
vt 2.477072 0.435110
vt 2.508547 0.479530
vt 2.523929 0.389352
vt 2.542273 0.389570
vn 0.711124 0.000000 -0.703067
vn 0.711124 0.000000 -0.703067
vn 0.711124 0.000000 -0.703067
vn 0.711124 0.000000 -0.703067
vn 0.592383 0.000000 -0.805656
vn 0.314428 0.000000 -0.949281
vn 0.314428 0.000000 -0.949281
vn 0.592383 0.000000 -0.805656
vn 0.314428 0.000000 -0.949281
vn 0.162047 0.000000 -0.986783
vn 0.162047 0.000000 -0.986783
vn 0.314428 0.000000 -0.949281
vn 0.988562 0.000000 -0.150816
vn 0.952798 0.000000 -0.303605
vn 0.952798 0.000000 -0.303605
vn 0.988562 0.000000 -0.150816
vn 0.952798 0.000000 -0.303605
vn 0.812347 0.000000 -0.583175
vn 0.812347 0.000000 -0.583175
vn 0.952798 0.000000 -0.303605
vn 0.000000 1.000000 0.000000
vn 0.000000 1.000000 0.000000
vn 0.000000 1.000000 0.000000
vn 0.000000 1.000000 0.000000
vn 0.000000 1.000000 0.000000
vn 0.000000 1.000000 0.000000
vn 0.000000 1.000000 0.000000
vn 0.000000 1.000000 0.000000
vn 0.000000 1.000000 0.000000
vn 0.000000 1.000000 -0.000001
vn 0.000000 1.000000 0.000000
vn 0.000000 1.000000 0.000000
vn 0.000000 1.000000 0.000000
vn 0.000000 1.000000 0.000000
vn 0.000000 1.000000 0.000000
vn -0.999984 0.000000 -0.005688
vn -0.999984 0.000000 -0.005688
vn -0.999984 0.000000 -0.005688
vn -0.999984 0.000000 -0.005688
vn -0.005685 0.000000 0.999984
vn -0.005685 0.000000 0.999984
vn -0.005685 0.000000 0.999984
vn -0.005685 0.000000 0.999984
s off
g Componente_pietra_A:group3
usemtl initialShadingGroup
f 1/1/1 2/2/2 8/3/3 7/4/4
f 2/2/5 3/5/6 9/6/7 8/3/8
f 3/5/9 4/7/10 10/8/11 9/6/12
f 5/9/13 6/10/14 12/11/15 11/12/16
f 6/10/17 1/1/18 7/4/19 12/11/20
f 7/14/21 8/15/22 14/16/23
f 8/15/24 9/17/25 14/16/26
f 9/17/27 10/18/28 14/16/29
f 11/12/30 12/19/31 14/16/32
f 12/19/33 7/14/34 14/16/35
f 10/20/36 4/21/37 13/13/38 14/16/39
f 11/12/40 14/16/41 13/13/42 5/9/43
