# This file uses meters as units for non-parametric coordinates.

mtllib Freccia.mtl
g default
v 22.612549 1.422760 7.052124
v 22.612549 0.000000 7.052124
v 38.875732 1.422760 10.044922
v 38.875732 0.000000 10.044922
v 38.875732 1.422760 -10.017700
v 38.875732 0.000000 -10.017700
v 22.612549 1.422760 -7.025024
v 22.612549 0.000000 -7.025024
v 43.971313 1.422760 0.013672
v 21.271118 1.422760 0.013672
v 21.271118 0.000000 0.013672
v 43.971313 0.000000 0.013672
v -44.007996 -0.750965 1.480591
v 44.007813 -0.750965 1.480591
v -44.007996 2.210297 1.480591
v 44.007813 2.210297 1.480591
v -44.007996 2.210297 -1.480591
v 44.007813 2.210297 -1.480591
v -44.007996 -0.750965 -1.480591
v 44.007813 -0.750965 -1.480591
v -42.433777 0.892864 -7.758301
v -42.433777 -6.700985 -0.030151
v -42.433777 1.027340 7.563843
v -42.433777 8.621189 -0.164429
v -50.095093 0.960110 -0.097412
vt 1.305393 0.740719
vt 1.308859 0.743327
vt 1.299430 0.793140
vt 1.295350 0.794710
vt 1.329223 0.810587
vt 1.328950 0.814985
vt 1.364490 0.797575
vt 1.360658 0.795516
vt 1.354602 0.744727
vt 1.358369 0.742464
vt 1.332146 0.732744
vt 1.331998 0.737227
vt 1.320233 0.834737
vt 1.311368 0.880782
vt 1.291378 0.884422
vt 1.291907 0.820054
vt 1.351996 0.885256
vt 1.332342 0.880944
vt 1.325204 0.835059
vt 1.353758 0.821534
vt 1.381523 0.836617
vt 1.371859 0.882037
vt 1.263344 0.834269
vt 1.271451 0.880454
vt 1.211798 0.933560
vt 1.518104 0.937166
vt 1.521440 0.946928
vt 1.211678 0.944199
vt 1.521372 0.957455
vt 1.211603 0.954728
vt 1.212084 0.912505
vt 1.521840 0.916849
vt 1.521686 0.927376
vt 1.211938 0.923032
vt 1.529007 0.937239
vt 1.426213 0.874529
vt 1.384688 0.858651
vt 1.400566 0.817127
vt 1.442091 0.833005
vt 1.470113 0.867518
vt 1.435079 0.789104
vt 1.393556 0.773226
vt 1.454234 0.909042
vn -0.180984 0.000000 0.983486
vn -0.180984 0.000000 0.983486
vn -0.180984 0.000000 0.983486
vn -0.180984 0.000000 0.983486
vn 0.891570 0.000000 0.452882
vn 0.891570 0.000000 0.452882
vn 1.000000 0.000000 0.000000
vn 1.000000 0.000000 0.000000
vn -0.180992 0.000000 -0.983485
vn -0.180992 0.000000 -0.983485
vn -0.180992 0.000000 -0.983485
vn -0.180992 0.000000 -0.983485
vn -0.982318 0.000000 0.187219
vn -0.982318 0.000000 0.187219
vn -1.000000 0.000000 0.000000
vn -1.000000 0.000000 0.000000
vn 0.000000 -1.000000 0.000000
vn 0.000000 -1.000000 0.000000
vn 0.000000 -1.000000 0.000000
vn 0.000000 -1.000000 0.000000
vn 0.000000 1.000000 0.000000
vn 0.000000 1.000000 0.000000
vn 0.000000 1.000000 0.000000
vn 0.000000 1.000000 0.000000
vn 0.000000 1.000000 0.000000
vn 0.000000 1.000000 0.000000
vn 0.000000 1.000000 0.000000
vn 0.000000 1.000000 0.000000
vn -1.000000 0.000000 0.000000
vn -1.000000 0.000000 0.000000
vn -0.982318 0.000000 -0.187219
vn -0.982318 0.000000 -0.187219
vn 0.000000 -1.000000 0.000000
vn 0.000000 -1.000000 0.000000
vn 0.000000 -1.000000 0.000000
vn 0.000000 -1.000000 0.000000
vn 1.000000 0.000000 0.000000
vn 1.000000 0.000000 0.000000
vn 0.891569 0.000000 -0.452885
vn 0.891569 0.000000 -0.452885
vn 0.000000 0.000000 1.000000
vn 0.000000 0.000000 1.000000
vn 0.000000 0.000000 1.000000
vn 0.000000 0.000000 1.000000
vn 0.000000 1.000000 0.000000
vn 0.000000 1.000000 0.000000
vn 0.000000 1.000000 0.000000
vn 0.000000 1.000000 0.000000
vn 0.000000 0.000000 -1.000000
vn 0.000000 0.000000 -1.000000
vn 0.000000 0.000000 -1.000000
vn 0.000000 0.000000 -1.000000
vn 0.000000 -1.000000 0.000000
vn 0.000000 -1.000000 0.000000
vn 0.000000 -1.000000 0.000000
vn 0.000000 -1.000000 0.000000
vn 1.000000 0.000000 0.000000
vn 1.000000 0.000000 0.000000
vn 1.000000 0.000000 0.000000
vn 1.000000 0.000000 0.000000
vn 1.000000 0.000000 0.000000
vn 1.000000 0.000000 0.000000
vn 1.000000 0.000000 0.000000
vn 1.000000 0.000000 0.000000
vn -0.577349 -0.582395 -0.572263
vn -0.577349 -0.582395 -0.572263
vn -0.577349 -0.582395 -0.572263
vn -0.577341 -0.572266 0.582400
vn -0.577341 -0.572266 0.582400
vn -0.577341 -0.572266 0.582400
vn -0.577346 0.582396 0.572264
vn -0.577346 0.582396 0.572264
vn -0.577346 0.582396 0.572264
vn -0.577341 0.572266 -0.582400
vn -0.577341 0.572266 -0.582400
vn -0.577341 0.572266 -0.582400
s off
g Freccia:group3
usemtl Freccia:lambert4SG
f 1/1/1 2/2/2 4/3/3 3/4/4
f 3/4/5 4/3/6 12/5/7 9/6/8
f 5/7/9 6/8/10 8/9/11 7/10/12
f 2/2/13 1/1/14 10/11/15 11/12/16
f 4/13/17 2/14/18 11/15/19 12/16/20
f 10/17/21 1/18/22 3/19/23 9/20/24
f 9/20/25 5/21/26 7/22/27 10/17/28
f 11/12/29 10/11/30 7/10/31 8/9/32
f 6/23/33 12/16/34 11/15/35 8/24/36
f 9/6/37 12/5/38 6/8/39 5/7/40
usemtl Freccia:lambert23SG
f 13/25/41 14/26/42 16/27/43 15/28/44
f 15/28/45 16/27/46 18/29/47 17/30/48
f 17/31/49 18/32/50 20/33/51 19/34/52
f 19/34/53 20/33/54 14/26/55 13/25/56
f 14/26/57 20/33/58 18/35/59 16/27/60
usemtl Freccia:lambert4SG
f 21/36/61 24/37/62 23/38/63 22/39/64
f 21/36/65 22/39/66 25/40/67
f 22/39/68 23/38/69 25/41/70
f 23/38/71 24/42/72 25/41/73
f 24/43/74 21/36/75 25/40/76
