# This file uses meters as units for non-parametric coordinates.

mtllib Grata.mtl
g default
v -6.101074 -0.000000 32.572632
v 6.101074 -0.000000 32.572632
v -6.101074 67.451866 32.572632
v 6.101074 67.451866 32.572632
v -6.101074 67.451866 -32.572632
v 6.101074 67.451866 -32.572632
v -6.101074 -0.000000 -32.572632
v 6.101074 -0.000000 -32.572632
v -6.101074 81.900787 -16.286316
v -6.101074 -0.000000 -16.286316
v 6.101074 -0.000000 -16.286316
v 6.101074 81.900787 -16.286316
v -6.101074 85.351318 -0.000000
v -6.101074 -0.000000 -0.000000
v 6.101074 -0.000000 -0.000000
v 6.101074 85.351318 -0.000000
v -6.101074 81.900787 16.286377
v -6.101074 -0.000000 16.286377
v 6.101074 -0.000000 16.286377
v 6.101074 81.900787 16.286377
v -6.101074 4.757595 14.470520
v -6.101074 4.757595 28.941345
v -6.101074 64.689758 28.941345
v -6.101074 77.527847 14.470520
v -6.101074 4.757595 -28.941406
v -6.101074 4.757595 -14.470703
v -6.101074 77.527847 -14.470703
v -6.101074 64.689758 -28.941406
v -6.101074 4.757595 -0.000000
v -6.101074 80.593735 -0.000000
v -0.262939 4.757595 14.470520
v -0.262939 4.757595 28.941345
v -0.262939 64.689758 28.941345
v -0.262939 77.527847 14.470520
v -0.262939 4.757595 -28.941406
v -0.262939 4.757595 -14.470703
v -0.262939 77.527847 -14.470703
v -0.262939 64.689758 -28.941406
v -0.262939 4.757595 -0.000000
v -0.262939 80.593735 -0.000000
vt 2.142890 0.463005
vt 2.147466 0.461371
vt 2.146154 0.492981
vt 2.141778 0.490819
vt 2.136662 0.501496
vt 2.134528 0.497217
vt 2.113101 0.489756
vt 2.108309 0.491391
vt 2.110117 0.459609
vt 2.114118 0.461994
vt 2.136619 0.460082
vt 2.138840 0.455529
vt 2.062799 0.457704
vt 2.071978 0.457433
vt 2.073340 0.503596
vt 2.063920 0.495723
vt 2.047327 0.455934
vt 2.055487 0.455910
vt 2.055583 0.489705
vt 2.047445 0.496968
vt 2.022847 0.456004
vt 2.031007 0.455981
vt 2.031125 0.497015
vt 2.022944 0.489799
vt 2.119036 0.454812
vt 2.120699 0.459407
vt 2.091700 0.503054
vt 2.090338 0.456891
vt 2.099517 0.456621
vt 2.100639 0.494640
vt 2.119854 0.496630
vt 2.117167 0.500695
vt 2.039167 0.455957
vt 2.039290 0.498720
vt 2.128973 0.453527
vt 2.128735 0.458512
vt 2.082577 0.505270
vt 2.081158 0.457162
vt 2.127114 0.498648
vt 2.126823 0.503459
vt 2.141376 0.464618
vt 2.135110 0.461619
vt 2.140372 0.489587
vt 2.133837 0.495465
vt 2.122069 0.461060
vt 2.115513 0.463672
vt 2.114598 0.488637
vt 2.120691 0.494948
vt 2.128632 0.460527
vt 2.127199 0.496771
vt 2.139484 0.465539
vt 2.134270 0.463808
vt 2.138237 0.488646
vt 2.132799 0.493465
vt 2.122752 0.463415
vt 2.117422 0.464615
vt 2.116748 0.487833
vt 2.121821 0.493039
vt 2.128531 0.462960
vt 2.127275 0.494528
vn 0.000000 0.000000 1.000000
vn 0.000000 0.000000 1.000000
vn 0.000000 0.000000 1.000000
vn 0.000000 0.000000 1.000000
vn 0.000000 0.748043 0.663650
vn 0.000000 0.748043 0.663650
vn 0.000000 0.876392 0.481599
vn 0.000000 0.876392 0.481599
vn 0.000000 0.000000 -1.000000
vn 0.000000 0.000000 -1.000000
vn 0.000000 0.000000 -1.000000
vn 0.000000 0.000000 -1.000000
vn 0.000000 -1.000000 0.000000
vn 0.000000 -1.000000 0.000000
vn 0.000000 -1.000000 0.000000
vn 0.000000 -1.000000 0.000000
vn 1.000000 0.000000 0.000000
vn 1.000000 0.000000 0.000000
vn 1.000000 0.000000 0.000000
vn 1.000000 0.000000 0.000000
vn -1.000000 0.000000 0.000000
vn -1.000000 0.000000 0.000000
vn -1.000000 0.000000 0.000000
vn -1.000000 0.000000 0.000000
vn -1.000000 0.000000 0.000000
vn -1.000000 0.000000 0.000000
vn -1.000000 0.000000 0.000000
vn -1.000000 0.000000 0.000000
vn 0.000000 -1.000000 0.000000
vn 0.000000 -1.000000 0.000000
vn 0.000000 -1.000000 0.000000
vn 0.000000 -1.000000 0.000000
vn 1.000000 0.000000 0.000000
vn 1.000000 0.000000 0.000000
vn 1.000000 0.000000 0.000000
vn 1.000000 0.000000 0.000000
vn 0.000000 0.876392 -0.481599
vn 0.000000 0.876392 -0.481599
vn 0.000000 0.748043 -0.663650
vn 0.000000 0.748043 -0.663650
vn -1.000000 0.000000 0.000000
vn -1.000000 0.000000 0.000000
vn -1.000000 0.000000 0.000000
vn -1.000000 0.000000 0.000000
vn 0.000000 -1.000000 0.000000
vn 0.000000 -1.000000 0.000000
vn 0.000000 -1.000000 0.000000
vn 0.000000 -1.000000 0.000000
vn 1.000000 0.000000 0.000000
vn 1.000000 0.000000 0.000000
vn 1.000000 0.000000 0.000000
vn 1.000000 0.000000 0.000000
vn 0.000000 1.000000 0.000000
vn 0.000000 1.000000 0.000000
vn 0.000000 0.876392 -0.481599
vn 0.000000 0.876392 -0.481599
vn -1.000000 0.000000 0.000000
vn -1.000000 0.000000 0.000000
vn -1.000000 0.000000 0.000000
vn -1.000000 0.000000 0.000000
vn 0.000000 -1.000000 0.000000
vn 0.000000 -1.000000 0.000000
vn 0.000000 -1.000000 0.000000
vn 0.000000 -1.000000 0.000000
vn 1.000000 0.000000 0.000000
vn 1.000000 0.000000 0.000000
vn 1.000000 0.000000 0.000000
vn 1.000000 0.000000 0.000000
vn 0.000000 0.876392 0.481599
vn 0.000000 0.876392 0.481599
vn 0.000000 1.000000 0.000000
vn 0.000000 1.000000 0.000000
vn -1.000000 0.000000 0.000000
vn -1.000000 0.000000 0.000000
vn -1.000000 0.000000 0.000000
vn -1.000000 0.000000 0.000000
vn -1.000000 0.000000 0.000000
vn -1.000000 0.000000 0.000000
vn -1.000000 0.000000 0.000000
vn -1.000000 0.000000 0.000000
vn -1.000000 0.000000 0.000000
vn -1.000000 0.000000 0.000000
vn -1.000000 0.000000 0.000000
vn -1.000000 0.000000 0.000000
vn -1.000000 0.000000 0.000000
vn -1.000000 0.000000 0.000000
vn -1.000000 0.000000 0.000000
vn -1.000000 0.000000 0.000000
vn -1.000000 0.000000 0.000000
vn -1.000000 0.000000 0.000000
vn -1.000000 0.000000 0.000000
vn -1.000000 0.000000 0.000000
vn -1.000000 0.000000 0.000000
vn -1.000000 0.000000 0.000000
vn -1.000000 0.000000 0.000000
vn -1.000000 0.000000 0.000000
vn -1.000000 0.000000 0.000000
vn -1.000000 0.000000 0.000000
vn -1.000000 0.000000 0.000000
vn -1.000000 0.000000 0.000000
vn -1.000000 0.000000 0.000000
vn -1.000000 0.000000 0.000000
vn -1.000000 0.000000 0.000000
vn -1.000000 0.000000 0.000000
vn -1.000000 0.000000 0.000000
vn -1.000000 0.000000 0.000000
vn -1.000000 0.000000 0.000000
vn -1.000000 0.000000 0.000000
vn -1.000000 0.000000 0.000000
vn -1.000000 0.000000 0.000000
vn -1.000000 0.000000 0.000000
vn -1.000000 0.000000 0.000000
vn 0.000000 1.000000 0.000000
vn 0.000000 1.000000 0.000000
vn 0.000000 1.000000 0.000000
vn 0.000000 1.000000 0.000000
vn 0.000000 0.000000 -1.000000
vn 0.000000 0.000000 -1.000000
vn 0.000000 0.000000 -1.000000
vn 0.000000 0.000000 -1.000000
vn 0.000000 -0.748045 -0.663648
vn 0.000000 -0.876392 -0.481599
vn 0.000000 -0.876392 -0.481599
vn 0.000000 -0.748045 -0.663648
vn 0.000000 1.000000 0.000000
vn 0.000000 1.000000 0.000000
vn 0.000000 1.000000 0.000000
vn 0.000000 1.000000 0.000000
vn 0.000000 -0.876392 0.481599
vn 0.000000 -0.748041 0.663653
vn 0.000000 -0.748041 0.663653
vn 0.000000 -0.876392 0.481599
vn 0.000000 0.000000 1.000000
vn 0.000000 0.000000 1.000000
vn 0.000000 0.000000 1.000000
vn 0.000000 0.000000 1.000000
vn 0.000000 1.000000 0.000000
vn 0.000000 1.000000 0.000000
vn 0.000000 1.000000 0.000000
vn 0.000000 1.000000 0.000000
vn 0.000000 -1.000000 0.000000
vn 0.000000 -0.876392 0.481599
vn 0.000000 -0.876392 0.481599
vn 0.000000 -1.000000 0.000000
vn 0.000000 1.000000 0.000000
vn 0.000000 1.000000 0.000000
vn 0.000000 1.000000 0.000000
vn 0.000000 1.000000 0.000000
vn 0.000000 -0.876392 -0.481599
vn 0.000000 -1.000000 0.000000
vn 0.000000 -1.000000 0.000000
vn 0.000000 -0.876392 -0.481599
s off
g Grata:group3
usemtl Grata:lambert15SG
f 1/1/1 2/2/2 4/3/3 3/4/4
f 3/4/5 4/3/6 20/5/7 17/6/8
f 5/7/9 6/8/10 8/9/11 7/10/12
f 18/11/13 19/12/14 2/2/15 1/1/16
f 2/13/17 19/14/18 20/15/19 4/16/20
f 31/17/21 32/18/22 33/19/23 34/20/24
f 35/21/25 36/22/26 37/23/27 38/24/28
f 7/10/29 8/9/30 11/25/31 10/26/32
f 12/27/33 11/28/34 8/29/35 6/30/36
f 9/31/37 12/32/38 6/8/39 5/7/40
f 36/22/41 39/33/42 40/34/43 37/23/44
f 10/26/45 11/25/46 15/35/47 14/36/48
f 16/37/49 15/38/50 11/28/51 12/27/52
f 13/39/53 16/40/54 12/32/55 9/31/56
f 39/33/57 31/17/58 34/20/59 40/34/60
f 14/36/61 15/35/62 19/12/63 18/11/64
f 20/15/65 19/14/66 15/38/67 16/37/68
f 17/6/69 20/5/70 16/40/71 13/39/72
f 18/11/73 1/1/74 22/41/75 21/42/76
f 1/1/77 3/4/78 23/43/79 22/41/80
f 3/4/81 17/6/82 24/44/83 23/43/84
f 7/10/85 10/26/86 26/45/87 25/46/88
f 9/31/89 5/7/90 28/47/91 27/48/92
f 5/7/93 7/10/94 25/46/95 28/47/96
f 10/26/97 14/36/98 29/49/99 26/45/100
f 13/39/101 9/31/102 27/48/103 30/50/104
f 14/36/105 18/11/106 21/42/107 29/49/108
f 17/6/109 13/39/110 30/50/111 24/44/112
f 21/42/113 22/41/114 32/51/115 31/52/116
f 22/41/117 23/43/118 33/53/119 32/51/120
f 23/43/121 24/44/122 34/54/123 33/53/124
f 25/46/125 26/45/126 36/55/127 35/56/128
f 27/48/129 28/47/130 38/57/131 37/58/132
f 28/47/133 25/46/134 35/56/135 38/57/136
f 26/45/137 29/49/138 39/59/139 36/55/140
f 30/50/141 27/48/142 37/58/143 40/60/144
f 29/49/145 21/42/146 31/52/147 39/59/148
f 24/44/149 30/50/150 40/60/151 34/54/152
