# This file uses meters as units for non-parametric coordinates.

mtllib Libro.mtl
g default
v 14.995544 0.000000 10.826599
v 14.995544 0.000000 -10.826721
v 14.995544 5.434341 10.826599
v 14.995544 5.434341 -10.826721
v -14.995544 5.434341 10.826599
v -14.995544 5.434341 -10.826721
v -14.995544 0.000000 10.826599
v -14.995544 0.000000 -10.826721
v 14.995544 0.938622 8.661194
v 14.995544 0.938622 -10.826721
v 14.995544 4.495712 -10.826721
v 14.995544 4.495712 8.661194
v -14.995544 4.495712 8.661194
v -14.995544 4.495712 -10.826721
v -14.995544 0.938622 -10.826721
v -14.995544 0.938622 8.661194
v 14.267761 1.024948 8.188354
v 14.267761 1.024948 -10.353882
v 14.267761 4.409401 -10.353882
v 14.267761 4.409401 8.188354
v -14.267822 4.409401 8.188354
v -14.267822 4.409401 -10.353882
v -14.267822 1.024948 -10.353882
v -14.267822 1.024948 8.188354
vt 0.385504 0.638107
vt 0.385281 0.657878
vt 0.381672 0.657837
vt 0.381896 0.638067
vt 0.408674 0.663247
vt 0.413878 0.665998
vt 0.416018 0.673327
vt 0.407301 0.676500
vt 0.381105 0.708035
vt 0.381328 0.688264
vt 0.384937 0.688305
vt 0.384714 0.708076
vt 0.415282 0.657843
vt 0.408377 0.656916
vt 0.408229 0.647713
vt 0.415881 0.647155
vt 0.403191 0.651021
vt 0.401779 0.696790
vt 0.393486 0.696534
vt 0.394898 0.650765
vt 0.407980 0.647555
vt 0.414971 0.646911
vt 0.409570 0.663430
vt 0.414220 0.665900
vt 0.400245 0.700051
vt 0.394816 0.699883
vt 0.416337 0.673446
vt 0.408475 0.676421
vt 0.414441 0.658047
vt 0.408161 0.657115
vt 0.396432 0.647505
vt 0.401861 0.647672
vt 0.407959 0.647541
vt 0.414655 0.646723
vt 0.409960 0.663406
vt 0.414425 0.665965
vt 0.400072 0.701371
vt 0.394907 0.701212
vt 0.416448 0.673402
vt 0.408878 0.676549
vt 0.414119 0.658210
vt 0.408100 0.657107
vt 0.396605 0.646184
vt 0.401770 0.646344
vn 1.000000 0.000000 0.000000
vn 1.000000 0.000000 0.000000
vn 1.000000 0.000000 0.000000
vn 1.000000 0.000000 0.000000
vn 0.000000 1.000000 0.000000
vn 0.000000 1.000000 0.000000
vn 0.000000 1.000000 0.000000
vn 0.000000 1.000000 0.000000
vn -1.000000 0.000000 0.000000
vn -1.000000 0.000000 0.000000
vn -1.000000 0.000000 0.000000
vn -1.000000 0.000000 0.000000
vn 0.000000 -1.000000 0.000000
vn 0.000000 -1.000000 0.000000
vn 0.000000 -1.000000 0.000000
vn 0.000000 -1.000000 0.000000
vn 0.000000 0.000000 -1.000000
vn 0.000000 0.000000 -1.000000
vn 0.000000 0.000000 -1.000000
vn 0.000000 0.000000 -1.000000
vn 0.000000 0.000000 1.000000
vn 0.000000 0.000000 1.000000
vn 0.000000 0.000000 1.000000
vn 0.000000 0.000000 1.000000
vn 1.000000 -0.000008 0.000000
vn 1.000000 -0.000019 0.000000
vn 1.000000 -0.000019 0.000000
vn 1.000000 -0.000014 0.000000
vn 1.000000 0.000025 0.000000
vn 1.000000 0.000010 0.000000
vn 1.000000 0.000019 0.000000
vn 1.000000 0.000025 0.000000
vn 1.000000 0.000010 0.000000
vn 1.000000 -0.000008 0.000000
vn 1.000000 -0.000014 0.000000
vn 1.000000 0.000019 0.000000
vn -1.000000 0.000003 0.000000
vn -1.000000 0.000006 0.000000
vn -1.000000 0.000006 0.000000
vn -1.000000 0.000005 0.000000
vn -1.000000 0.000000 0.000000
vn -1.000000 0.000000 0.000000
vn -1.000000 0.000000 0.000000
vn -1.000000 0.000000 0.000000
vn -1.000000 0.000000 0.000000
vn -1.000000 0.000003 0.000000
vn -1.000000 0.000005 0.000000
vn -1.000000 0.000000 0.000000
vn 0.000000 0.000000 -1.000000
vn 0.000000 0.000000 -1.000000
vn 0.000000 0.000000 -1.000000
vn 0.000000 0.000000 -1.000000
vn 0.000000 0.000000 -1.000000
vn 0.000000 0.000000 -1.000000
vn 0.000000 0.000000 -1.000000
vn 0.000000 0.000000 -1.000000
vn 0.117792 0.993038 0.000000
vn 0.117792 0.993038 0.000000
vn 0.117792 0.993038 0.000000
vn 0.117792 0.993038 0.000000
vn 0.117771 -0.993041 0.000000
vn 0.117771 -0.993041 0.000000
vn 0.117771 -0.993041 0.000000
vn 0.117771 -0.993041 0.000000
vn 0.544806 0.000000 -0.838562
vn 0.544806 0.000000 -0.838562
vn 0.544806 0.000000 -0.838562
vn 0.544806 0.000000 -0.838562
vn -0.117776 -0.993040 0.000000
vn -0.117776 -0.993040 0.000000
vn -0.117776 -0.993040 0.000000
vn -0.117776 -0.993040 0.000000
vn -0.117796 0.993038 0.000000
vn -0.117796 0.993038 0.000000
vn -0.117796 0.993038 0.000000
vn -0.117796 0.993038 0.000000
vn -0.544817 0.000000 -0.838555
vn -0.544817 0.000000 -0.838555
vn -0.544817 0.000000 -0.838555
vn -0.544817 0.000000 -0.838555
vn 0.000000 0.983738 -0.179608
vn 0.000000 0.983738 -0.179608
vn 0.000000 0.983738 -0.179608
vn 0.000000 0.983738 -0.179608
vn 0.000000 -0.983746 -0.179568
vn 0.000000 -0.983746 -0.179568
vn 0.000000 -0.983746 -0.179568
vn 0.000000 -0.983746 -0.179568
s off
g Libro:group3
usemtl Libro:lambert17SG
f 17/1/1 18/2/2 19/3/3 20/4/4
usemtl Libro:lambert18SG
f 3/5/5 4/6/6 6/7/7 5/8/8
usemtl Libro:lambert17SG
f 21/9/9 22/10/10 23/11/11 24/12/12
usemtl Libro:lambert18SG
f 7/13/13 8/14/14 2/15/15 1/16/16
usemtl Libro:lambert17SG
f 18/2/17 23/11/18 22/10/19 19/3/20
usemtl Libro:lambert18SG
f 7/17/21 1/18/22 3/19/23 5/20/24
f 1/16/25 2/15/26 10/21/27 9/22/28
f 4/6/29 3/5/30 12/23/31 11/24/32
f 3/19/33 1/18/34 9/25/35 12/26/36
f 5/8/37 6/7/38 14/27/39 13/28/40
f 8/14/41 7/13/42 16/29/43 15/30/44
f 7/17/45 5/20/46 13/31/47 16/32/48
f 2/15/49 8/14/50 15/30/51 10/21/52
f 6/7/53 4/6/54 11/24/55 14/27/56
f 9/22/57 10/21/58 18/33/59 17/34/60
f 11/24/61 12/23/62 20/35/63 19/36/64
f 12/26/65 9/25/66 17/37/67 20/38/68
f 13/28/69 14/27/70 22/39/71 21/40/72
f 15/30/73 16/29/74 24/41/75 23/42/76
f 16/32/77 13/31/78 21/43/79 24/44/80
f 10/21/81 15/30/82 23/42/83 18/33/84
f 14/27/85 11/24/86 19/36/87 22/39/88
