# This file uses meters as units for non-parametric coordinates.

mtllib Libreria.mtl
g default
v -18.826782 39.883749 82.595215
v 19.461487 39.883749 82.595215
v -18.826782 45.042116 82.595215
v 19.461487 45.042116 82.595215
v -18.826782 45.042116 -82.595154
v 19.461487 45.042116 -82.595154
v -18.826782 39.883749 -82.595154
v 19.461487 39.883749 -82.595154
v -23.336914 0.000000 85.023315
v 23.336853 0.000000 85.023315
v -23.336914 170.046446 85.023315
v 23.336853 170.046446 85.023315
v -23.336914 170.046446 -85.023193
v 23.336853 170.046446 -85.023193
v -23.336914 0.000000 -85.023193
v 23.336853 0.000000 -85.023193
v 24.252625 5.324959 -79.698181
v 24.252625 5.324959 79.698242
v 24.252625 164.721464 -79.698181
v 24.252625 164.721464 79.698242
v -16.079224 5.324959 -79.698181
v -16.079224 5.324959 79.698242
v -16.079224 164.721464 -79.698181
v -16.079224 164.721464 79.698242
v -18.826782 125.028883 82.595215
v 19.461487 125.028883 82.595215
v -18.826782 130.187269 82.595215
v 19.461487 130.187269 82.595215
v -18.826782 130.187269 -82.595154
v 19.461487 130.187269 -82.595154
v -18.826782 125.028883 -82.595154
v 19.461487 125.028883 -82.595154
v -18.826782 81.830564 82.595215
v 19.461487 81.830564 82.595215
v -18.826782 86.988943 82.595215
v 19.461487 86.988943 82.595215
v -18.826782 86.988943 -82.595154
v 19.461487 86.988943 -82.595154
v -18.826782 81.830564 -82.595154
v 19.461487 81.830564 -82.595154
vt 0.828628 0.299862
vt 0.833332 0.290949
vt 0.871783 0.311244
vt 0.867079 0.320156
vt 0.877121 0.301131
vt 0.872417 0.310043
vt 0.833966 0.289749
vt 0.838669 0.280836
vt 0.951778 0.329863
vt 0.943041 0.336554
vt 0.910131 0.314971
vt 0.915950 0.305006
vt 0.916562 0.440218
vt 0.910823 0.430944
vt 0.943348 0.408346
vt 0.951538 0.415325
vt 0.956137 0.372392
vt 0.967019 0.372651
vt 0.861499 0.167888
vt 0.966233 0.167888
vt 0.966233 0.272622
vt 0.861499 0.272622
vt 0.966688 0.029272
vt 0.854957 0.029272
vt 0.854957 0.141003
vt 0.966688 0.141003
vt 0.954699 0.372396
vt 0.941933 0.337451
vt 0.942258 0.407499
vt 0.911153 0.429159
vt 0.910631 0.316835
vt 0.945365 0.372662
vt 0.934837 0.343532
vt 0.934791 0.401544
vt 0.905931 0.420920
vt 0.906074 0.324988
vt 0.828628 0.389068
vt 0.833332 0.380155
vt 0.871783 0.400450
vt 0.867079 0.409362
vt 0.877121 0.390337
vt 0.872417 0.399249
vt 0.833965 0.378955
vt 0.838669 0.370042
vt 0.828628 0.343809
vt 0.833332 0.334897
vt 0.871783 0.355191
vt 0.867079 0.364103
vt 0.877121 0.345078
vt 0.872417 0.353990
vt 0.833966 0.333696
vt 0.838669 0.324784
vn 0.000000 1.000000 0.000000
vn 0.000000 1.000000 0.000000
vn 0.000000 1.000000 0.000000
vn 0.000000 1.000000 0.000000
vn 0.000000 -1.000000 0.000000
vn 0.000000 -1.000000 0.000000
vn 0.000000 -1.000000 0.000000
vn 0.000000 -1.000000 0.000000
vn 1.000000 0.000000 0.000000
vn 1.000000 0.000000 0.000000
vn 1.000000 0.000000 0.000000
vn 1.000000 0.000000 0.000000
vn 0.000000 0.000000 1.000000
vn 0.000000 0.000000 1.000000
vn 0.000000 0.000000 1.000000
vn 0.000000 0.000000 1.000000
vn 0.000000 1.000000 0.000000
vn 0.000000 1.000000 0.000000
vn 0.000000 1.000000 0.000000
vn 0.000000 1.000000 0.000000
vn 0.000000 0.000000 -1.000000
vn 0.000000 0.000000 -1.000000
vn 0.000000 0.000000 -1.000000
vn 0.000000 0.000000 -1.000000
vn 0.000000 -1.000000 0.000000
vn 0.000000 -1.000000 0.000000
vn 0.000000 -1.000000 0.000000
vn 0.000000 -1.000000 0.000000
vn 1.000000 0.000000 0.000000
vn 1.000000 0.000000 0.000000
vn 1.000000 0.000000 0.000000
vn 1.000000 0.000000 0.000000
vn -1.000000 0.000000 0.000000
vn -1.000000 0.000000 0.000000
vn -1.000000 0.000000 0.000000
vn -1.000000 0.000000 0.000000
vn 0.992688 -0.085354 0.085357
vn 0.992688 -0.085356 -0.085358
vn 0.992688 -0.085356 -0.085357
vn 0.992688 -0.085355 0.085355
vn 0.992688 -0.085356 -0.085358
vn 0.992688 0.085355 -0.085357
vn 0.992688 0.085355 -0.085357
vn 0.992688 -0.085356 -0.085357
vn 0.992688 0.085355 -0.085357
vn 0.992688 0.085353 0.085356
vn 0.992688 0.085354 0.085355
vn 0.992688 0.085355 -0.085357
vn 0.992688 0.085353 0.085356
vn 0.992688 -0.085354 0.085357
vn 0.992688 -0.085355 0.085355
vn 0.992688 0.085354 0.085355
vn 0.000000 1.000000 0.000000
vn 0.000000 1.000000 0.000000
vn 0.000000 1.000000 0.000000
vn 0.000000 1.000000 0.000000
vn 0.000000 0.000000 1.000000
vn 0.000000 0.000000 1.000000
vn 0.000000 0.000000 1.000000
vn 0.000000 0.000000 1.000000
vn 0.000000 -1.000000 0.000000
vn 0.000000 -1.000000 0.000000
vn 0.000000 -1.000000 0.000000
vn 0.000000 -1.000000 0.000000
vn 0.000000 0.000000 -1.000000
vn 0.000000 0.000000 -1.000000
vn 0.000000 0.000000 -1.000000
vn 0.000000 0.000000 -1.000000
vn 0.000000 1.000000 0.000000
vn 0.000000 1.000000 0.000000
vn 0.000000 1.000000 0.000000
vn 0.000000 1.000000 0.000000
vn 0.000000 -1.000000 0.000000
vn 0.000000 -1.000000 0.000000
vn 0.000000 -1.000000 0.000000
vn 0.000000 -1.000000 0.000000
vn 1.000000 0.000000 0.000000
vn 1.000000 0.000000 0.000000
vn 1.000000 0.000000 0.000000
vn 1.000000 0.000000 0.000000
vn 0.000000 1.000000 0.000000
vn 0.000000 1.000000 0.000000
vn 0.000000 1.000000 0.000000
vn 0.000000 1.000000 0.000000
vn 0.000000 -1.000000 0.000000
vn 0.000000 -1.000000 0.000000
vn 0.000000 -1.000000 0.000000
vn 0.000000 -1.000000 0.000000
vn 1.000000 0.000000 0.000000
vn 1.000000 0.000000 0.000000
vn 1.000000 0.000000 0.000000
vn 1.000000 0.000000 0.000000
s off
g Libreria:group3
usemtl Libreria:lambert13SG
f 3/1/1 4/2/2 6/3/3 5/4/4
f 7/5/5 8/6/6 2/7/7 1/8/8
f 2/7/9 8/6/10 6/3/11 4/2/12
f 9/9/13 10/10/14 12/11/15 11/12/16
f 11/13/17 12/14/18 14/15/19 13/16/20
f 13/16/21 14/15/22 16/17/23 15/18/24
f 15/18/25 16/17/26 10/10/27 9/9/28
usemtl Libreria:lambert44SG
f 22/19/29 21/20/30 23/21/31 24/22/32
usemtl Libreria:lambert13SG
f 15/23/33 9/24/34 11/25/35 13/26/36
f 10/10/37 16/17/38 17/27/39 18/28/40
f 16/17/41 14/15/42 19/29/43 17/27/44
f 14/15/45 12/14/46 20/30/47 19/29/48
f 12/11/49 10/10/50 18/28/51 20/31/52
f 18/28/53 17/27/54 21/32/55 22/33/56
f 17/27/57 19/29/58 23/34/59 21/32/60
f 19/29/61 20/30/62 24/35/63 23/34/64
f 20/31/65 18/28/66 22/33/67 24/36/68
f 27/37/69 28/38/70 30/39/71 29/40/72
f 31/41/73 32/42/74 26/43/75 25/44/76
f 26/43/77 32/42/78 30/39/79 28/38/80
f 35/45/81 36/46/82 38/47/83 37/48/84
f 39/49/85 40/50/86 34/51/87 33/52/88
f 34/51/89 40/50/90 38/47/91 36/46/92
