# This file uses meters as units for non-parametric coordinates.

mtllib Muro.mtl
g default
v -14.907532 0.000000 129.111694
v 14.907532 0.000000 129.111694
v -14.907532 317.864971 129.111694
v 14.907532 317.864971 129.111694
v -14.907532 317.864971 -129.111694
v 14.907532 317.864971 -129.111694
v -14.907532 0.000000 -129.111694
v 14.907532 0.000000 -129.111694
v -14.907532 339.856396 129.111694
v 14.907532 339.856396 129.111694
v 14.907532 339.856396 -129.111694
v -14.907532 339.856396 -129.111694
v -30.861755 317.864971 129.111694
v -30.861755 317.864971 -129.111694
v -30.861755 339.856396 129.111694
v -30.861755 339.856396 -129.111694
vt 2.190043 0.462058
vt 2.182943 0.459968
vt 2.190983 0.378689
vt 2.198329 0.379288
vt 2.194663 0.558711
vt 2.195187 0.551352
vt 2.255954 0.552975
vt 2.256212 0.560385
vt 2.256286 0.386569
vt 2.263515 0.386488
vt 2.264602 0.457626
vt 2.257351 0.459793
vt 2.257811 0.466942
vt 2.191157 0.469601
vt 2.257536 0.547679
vt 2.194310 0.546120
vt 2.195724 0.376353
vt 2.195724 0.376353
vt 2.261491 0.383886
vt 2.262041 0.384836
vt 2.253989 0.569438
vt 2.196314 0.567603
vt 2.194504 0.562665
vt 2.256266 0.564337
vt 2.254008 0.573386
vt 2.196150 0.571562
vt 2.195724 0.376353
vt 2.199781 0.373862
vt 2.256363 0.381819
vt 2.261232 0.380784
vn 0.000000 0.000000 1.000000
vn 0.000000 0.000000 1.000000
vn 0.000000 0.000000 1.000000
vn 0.000000 0.000000 1.000000
vn 0.000000 1.000000 0.000000
vn 0.000000 1.000000 0.000000
vn 0.000000 1.000000 0.000000
vn 0.000000 1.000000 0.000000
vn 0.000000 0.000000 -1.000000
vn 0.000000 0.000000 -1.000000
vn 0.000000 0.000000 -1.000000
vn 0.000000 0.000000 -1.000000
vn 0.000000 -1.000000 0.000000
vn 0.000000 -1.000000 0.000000
vn 0.000000 -1.000000 0.000000
vn 0.000000 -1.000000 0.000000
vn 1.000000 0.000000 0.000000
vn 1.000000 0.000000 0.000000
vn 1.000000 0.000000 0.000000
vn 1.000000 0.000000 0.000000
vn -1.000000 0.000000 0.000000
vn -1.000000 0.000000 0.000000
vn -1.000000 0.000000 0.000000
vn -1.000000 0.000000 0.000000
vn 0.000000 0.000000 1.000000
vn 0.000000 0.000000 1.000000
vn 0.000000 0.000000 1.000000
vn 0.000000 0.000000 1.000000
vn 1.000000 0.000000 0.000000
vn 1.000000 0.000000 0.000000
vn 1.000000 0.000000 0.000000
vn 1.000000 0.000000 0.000000
vn 0.000000 0.000000 -1.000000
vn 0.000000 0.000000 -1.000000
vn 0.000000 0.000000 -1.000000
vn 0.000000 0.000000 -1.000000
vn -1.000000 0.000000 0.000000
vn -1.000000 0.000000 0.000000
vn -1.000000 0.000000 0.000000
vn -1.000000 0.000000 0.000000
vn 0.000000 -1.000000 0.000000
vn 0.000000 -1.000000 0.000000
vn 0.000000 -1.000000 0.000000
vn 0.000000 -1.000000 0.000000
vn 0.000000 0.000000 1.000000
vn 0.000000 0.000000 1.000000
vn 0.000000 0.000000 1.000000
vn 0.000000 0.000000 1.000000
vn 0.000000 1.000000 0.000000
vn 0.000000 1.000000 0.000000
vn 0.000000 1.000000 0.000000
vn 0.000000 1.000000 0.000000
vn 0.000000 0.000000 -1.000000
vn 0.000000 0.000000 -1.000000
vn 0.000000 0.000000 -1.000000
vn 0.000000 0.000000 -1.000000
s off
g Muro:group3
usemtl Muro:lambert15SG
f 1/1/1 2/2/2 4/3/3 3/4/4
f 9/5/5 10/6/6 11/7/7 12/8/8
f 5/9/9 6/10/10 8/11/11 7/12/12
f 7/12/13 8/13/14 2/14/15 1/1/16
f 2/14/17 8/13/18 6/15/19 4/16/20
f 7/12/21 1/1/22 3/4/23 5/9/24
f 3/4/25 4/3/26 10/17/27 9/18/28
f 4/16/29 6/15/30 11/7/31 10/6/32
f 6/10/33 5/9/34 12/19/35 11/20/36
f 14/21/37 13/22/38 15/23/39 16/24/40
f 5/25/41 3/26/42 13/22/43 14/21/44
f 3/4/45 9/18/46 15/27/47 13/28/48
f 9/5/49 12/8/50 16/24/51 15/23/52
f 12/19/53 5/9/54 14/29/55 16/30/56
