# This file uses meters as units for non-parametric coordinates.

mtllib Pavimento con acqua.mtl
g default
v 72.741028 0.000000 74.541870
v 72.741028 0.000000 -74.541870
v 72.741028 10.284859 74.541870
v 72.741028 10.284859 -74.541870
v -72.740967 0.000000 -74.541870
v -72.740967 0.000000 74.541870
v -72.740967 10.284859 74.541870
v -72.740967 10.284859 -74.541870
v 65.481018 10.284859 67.102295
v 65.481018 10.284859 -67.102234
v -65.480988 10.284859 -67.102234
v -65.480988 10.284859 67.102295
v 65.481018 5.923439 67.102295
v 65.481018 5.923439 -67.102234
v -65.480988 5.923439 -67.102234
v -65.480988 5.923439 67.102295
vt 2.674754 0.899660
vt 2.607418 0.900166
vt 2.607431 0.895626
vt 2.674780 0.895112
vt 2.607091 0.824721
vt 2.673738 0.824559
vt 2.673783 0.829067
vt 2.607002 0.829301
vt 2.602548 0.824706
vt 2.602991 0.760312
vt 2.607537 0.760326
vt 2.673691 0.760397
vt 2.678236 0.760409
vt 2.678281 0.824561
vt 2.611589 0.833764
vt 2.669347 0.833629
vt 2.670127 0.890680
vt 2.611928 0.891033
vt 2.670553 0.832280
vt 2.610260 0.832526
vt 2.671470 0.891912
vt 2.610708 0.892389
vn -1.000000 0.000000 0.000000
vn -1.000000 0.000000 0.000000
vn -1.000000 0.000000 0.000000
vn -1.000000 0.000000 0.000000
vn 1.000000 0.000000 0.000000
vn 1.000000 0.000000 0.000000
vn 1.000000 0.000000 0.000000
vn 1.000000 0.000000 0.000000
vn 0.000000 0.000000 1.000000
vn 0.000000 0.000000 1.000000
vn 0.000000 0.000000 1.000000
vn 0.000000 0.000000 1.000000
vn 0.000000 0.000000 -1.000000
vn 0.000000 0.000000 -1.000000
vn 0.000000 0.000000 -1.000000
vn 0.000000 0.000000 -1.000000
vn 0.000000 1.000000 0.000000
vn 0.000000 1.000000 0.000000
vn 0.000000 1.000000 0.000000
vn 0.000000 1.000000 0.000000
vn 0.000000 -1.000000 0.000000
vn 0.000000 -1.000000 0.000000
vn 0.000000 -1.000000 0.000000
vn 0.000000 -1.000000 0.000000
vn 0.000000 1.000000 0.000000
vn 0.000000 1.000000 0.000000
vn 0.000000 1.000000 0.000000
vn 0.000000 1.000000 0.000000
vn 0.000000 1.000000 0.000000
vn 0.000000 1.000000 0.000000
vn 0.000000 1.000000 0.000000
vn 0.000000 1.000000 0.000000
vn 0.000000 1.000000 0.000000
vn 0.000000 1.000000 0.000000
vn 0.000000 1.000000 0.000000
vn 0.000000 1.000000 0.000000
vn 0.000000 1.000000 0.000000
vn 0.000000 1.000000 0.000000
vn 0.000000 1.000000 0.000000
vn 0.000000 1.000000 0.000000
vn -1.000000 0.000000 -0.000000
vn -1.000000 0.000000 -0.000000
vn -1.000000 0.000000 -0.000000
vn -1.000000 0.000000 -0.000000
vn 0.000000 0.000000 1.000000
vn 0.000000 0.000000 1.000000
vn 0.000000 0.000000 1.000000
vn 0.000000 0.000000 1.000000
vn 1.000000 0.000000 0.000000
vn 1.000000 0.000000 0.000000
vn 1.000000 0.000000 0.000000
vn 1.000000 0.000000 0.000000
vn 0.000000 0.000000 -1.000000
vn 0.000000 0.000000 -1.000000
vn 0.000000 0.000000 -1.000000
vn 0.000000 0.000000 -1.000000
s off
g Pavimento_con_acqua:group3
usemtl initialShadingGroup
f 5/1/1 6/2/2 7/3/3 8/4/4
f 1/5/5 2/6/6 4/7/7 3/8/8
f 3/9/9 7/10/10 6/11/11 1/5/12
f 2/6/13 5/12/14 8/13/15 4/14/16
f 13/15/17 14/16/18 15/17/19 16/18/20
f 1/5/21 6/11/22 5/12/23 2/6/24
f 3/8/25 4/7/26 10/19/27 9/20/28
f 4/7/29 8/4/30 11/21/31 10/19/32
f 8/4/33 7/3/34 12/22/35 11/21/36
f 7/3/37 3/8/38 9/20/39 12/22/40
f 9/20/41 10/19/42 14/16/43 13/15/44
f 10/19/45 11/21/46 15/17/47 14/16/48
f 11/21/49 12/22/50 16/18/51 15/17/52
f 12/22/53 9/20/54 13/15/55 16/18/56
