# This file uses meters as units for non-parametric coordinates.

mtllib Pila di legna.mtl
g default
v 62.153627 30.180047 15.562478
v 62.160768 39.267403 12.155862
v 62.268007 44.668752 4.196999
v 62.434389 44.320947 -5.274009
v 62.596437 38.356831 -12.639488
v 62.692262 29.054517 -15.086326
v -62.997862 29.463189 13.389931
v -62.990782 38.550549 9.983254
v -62.883544 43.951890 2.024453
v -62.717162 43.604073 -7.446555
v -62.555174 37.639977 -14.812156
v -62.459349 28.337647 -17.258872
v 62.422914 29.617276 0.238076
v -62.728636 28.900410 -1.934470
v 62.153627 15.490899 -0.117576
v 62.160768 24.578263 -3.524192
v 62.268007 29.979611 -11.483054
v 62.434389 29.631795 -20.954063
v 62.596437 23.667691 -28.319602
v 62.692262 14.365369 -30.766319
v -62.997862 14.774049 -2.290122
v -62.990782 23.861405 -5.696738
v -62.883544 29.262742 -13.655601
v -62.717162 28.914925 -23.126609
v -62.555174 22.950810 -30.492088
v -62.459349 13.648499 -32.938926
v 62.422914 14.928140 -15.441917
v -62.728636 14.211270 -17.614524
v 62.153627 15.490899 30.076943
v 62.160768 24.578263 26.670266
v 62.268007 29.979611 18.711465
v 62.434389 29.631795 9.240456
v 62.596437 23.667691 1.874917
v 62.692262 14.365369 -0.571800
v -62.997862 14.774049 27.904336
v -62.990782 23.861405 24.497720
v -62.883544 29.262742 16.538857
v -62.717162 28.914925 7.067910
v -62.555174 22.950810 -0.297691
v -62.459349 13.648499 -2.744346
v 62.422914 14.928140 14.752541
v -62.728636 14.211270 12.579934
v 62.153627 0.817036 44.420022
v 62.160768 9.904408 41.013283
v 62.268007 15.305741 33.054543
v 62.434389 14.957928 23.583535
v 62.596437 8.993821 16.217995
v 62.692262 -0.308501 13.771218
v -62.997862 0.100179 42.247414
v -62.990782 9.187543 38.840737
v -62.883544 14.588887 30.881875
v -62.717162 14.241067 21.410928
v -62.555174 8.276952 14.045388
v -62.459349 -1.025363 11.598672
v 62.422914 0.254262 29.095620
v -62.728636 -0.462592 26.923074
v 62.153627 0.817036 13.602273
v 62.160768 9.904408 10.195595
v 62.268007 15.305741 2.236794
v 62.434389 14.957928 -7.234153
v 62.596437 8.993821 -14.599693
v 62.692262 -0.308501 -17.046470
v -62.997862 0.100179 11.429726
v -62.990782 9.187543 8.023110
v -62.883544 14.588887 0.064248
v -62.717162 14.241067 -9.406760
v -62.555174 8.276952 -16.772239
v -62.459349 -1.025363 -19.219016
v 62.422914 0.254262 -1.722068
v -62.728636 -0.462592 -3.894553
v 62.153627 0.817036 -17.088706
v 62.160768 9.904408 -20.495384
v 62.268007 15.305741 -28.454185
v 62.434389 14.957928 -37.925193
v 62.596437 8.993821 -45.290794
v 62.692262 -0.308501 -47.737449
v -62.997862 0.100179 -19.261314
v -62.990782 9.187543 -22.667991
v -62.883544 14.588887 -30.626792
v -62.717162 14.241067 -40.097739
v -62.555174 8.276952 -47.463340
v -62.459349 -1.025363 -49.910056
v 62.422914 0.254262 -32.413108
v -62.728636 -0.462592 -34.585716
vt 1.127279 0.698003
vt 1.127157 0.693904
vt 1.180029 0.692331
vt 1.180151 0.696430
vt 1.127036 0.689841
vt 1.179908 0.688267
vt 1.126917 0.685837
vt 1.179789 0.684264
vt 1.126798 0.681833
vt 1.179670 0.680260
vt 1.126677 0.677770
vt 1.179549 0.676197
vt 1.267858 0.565240
vt 1.262192 0.567311
vt 1.261920 0.557782
vt 1.271255 0.560320
vt 1.271087 0.554431
vt 1.267417 0.549822
vt 1.261648 0.548253
vt 1.184419 0.569533
vt 1.178644 0.567788
vt 1.184147 0.560003
vt 1.174972 0.563070
vt 1.174803 0.557181
vt 1.178204 0.552369
vt 1.183875 0.550474
vt 1.064867 0.697437
vt 1.064751 0.693338
vt 1.117625 0.691838
vt 1.117741 0.695937
vt 1.064635 0.689275
vt 1.117509 0.687774
vt 1.064522 0.685271
vt 1.117396 0.683770
vt 1.064408 0.681267
vt 1.117282 0.679766
vt 1.064293 0.677203
vt 1.117167 0.675703
vt 1.162724 0.536875
vt 1.156971 0.538690
vt 1.157128 0.529158
vt 1.166340 0.532113
vt 1.166437 0.526222
vt 1.162978 0.521452
vt 1.157284 0.519626
vt 1.079177 0.537413
vt 1.073487 0.535411
vt 1.079334 0.527881
vt 1.070030 0.530533
vt 1.070127 0.524642
vt 1.073740 0.519988
vt 1.079490 0.518349
vt 1.125283 0.665032
vt 1.125108 0.660935
vt 1.177955 0.658675
vt 1.178130 0.662772
vt 1.124934 0.656874
vt 1.177781 0.654614
vt 1.124763 0.652872
vt 1.177610 0.650612
vt 1.124591 0.648870
vt 1.177439 0.646610
vt 1.124418 0.644809
vt 1.177265 0.642549
vt 1.163387 0.569606
vt 1.157634 0.571421
vt 1.157791 0.561889
vt 1.167003 0.564844
vt 1.167099 0.558953
vt 1.163640 0.554183
vt 1.157947 0.552357
vt 1.079840 0.570144
vt 1.074150 0.568142
vt 1.079997 0.560613
vt 1.070693 0.563264
vt 1.070789 0.557373
vt 1.074403 0.552719
vt 1.080153 0.551081
vt 1.063250 0.667723
vt 1.063047 0.663627
vt 1.115878 0.661016
vt 1.116080 0.665112
vt 1.062846 0.659567
vt 1.115677 0.656956
vt 1.062649 0.655567
vt 1.115479 0.652955
vt 1.062451 0.651566
vt 1.115282 0.648954
vt 1.062250 0.647506
vt 1.115081 0.644894
vt 1.269004 0.531907
vt 1.263405 0.534152
vt 1.262839 0.524635
vt 1.272249 0.526885
vt 1.271899 0.521004
vt 1.268089 0.516509
vt 1.262274 0.515119
vt 1.185737 0.538766
vt 1.179912 0.537200
vt 1.185172 0.529250
vt 1.176095 0.532597
vt 1.175746 0.526716
vt 1.178997 0.521802
vt 1.184607 0.519733
vt 1.061417 0.638302
vt 1.061052 0.634217
vt 1.113738 0.629516
vt 1.114102 0.633600
vt 1.060691 0.630169
vt 1.113377 0.625467
vt 1.060335 0.626179
vt 1.113021 0.621477
vt 1.059979 0.622189
vt 1.112664 0.617487
vt 1.059617 0.618140
vt 1.112303 0.613439
vt 1.158542 0.594391
vt 1.152916 0.596569
vt 1.152465 0.587046
vt 1.161846 0.589408
vt 1.161567 0.583523
vt 1.157811 0.578983
vt 1.152013 0.577524
vt 1.075199 0.600256
vt 1.069393 0.598621
vt 1.074748 0.590734
vt 1.065632 0.593973
vt 1.065352 0.588088
vt 1.068662 0.583213
vt 1.074296 0.581211
vt 1.125554 0.632348
vt 1.125206 0.628262
vt 1.177910 0.623768
vt 1.178258 0.627855
vt 1.124860 0.624212
vt 1.177565 0.619718
vt 1.124520 0.620220
vt 1.177224 0.615727
vt 1.124180 0.616229
vt 1.176884 0.611736
vt 1.123834 0.612179
vt 1.176539 0.607686
vt 1.265714 0.595744
vt 1.259980 0.597617
vt 1.260038 0.588084
vt 1.269280 0.590944
vt 1.269316 0.585053
vt 1.265809 0.580319
vt 1.260097 0.578551
vt 1.182177 0.597140
vt 1.176466 0.595197
vt 1.182235 0.587607
vt 1.172959 0.590354
vt 1.172995 0.584462
vt 1.176561 0.579772
vt 1.182294 0.578074
vn -0.018263 0.350977 0.936206
vn -0.018263 0.350977 0.936206
vn -0.018263 0.350977 0.936206
vn -0.018263 0.350977 0.936206
vn -0.017191 0.617193 0.786624
vn -0.010333 0.960438 0.278303
vn -0.010333 0.960438 0.278303
vn -0.017191 0.617193 0.786624
vn -0.010333 0.960438 0.278303
vn 0.000730 0.936366 -0.351024
vn 0.000730 0.936366 -0.351024
vn -0.010333 0.960438 0.278303
vn 0.000730 0.936366 -0.351024
vn 0.006471 0.777220 -0.629195
vn 0.006471 0.777220 -0.629195
vn 0.000730 0.936366 -0.351024
vn 0.015328 0.254488 -0.966955
vn 0.015328 0.254488 -0.966955
vn 0.015328 0.254488 -0.966955
vn 0.015328 0.254488 -0.966955
vn 0.999833 0.005727 0.017357
vn 0.999833 0.005727 0.017357
vn 0.999833 0.005727 0.017357
vn 0.999833 0.005727 0.017357
vn 0.999833 0.005727 0.017357
vn 0.999833 0.005727 0.017357
vn 0.999833 0.005727 0.017357
vn 0.999833 0.005727 0.017357
vn 0.999833 0.005727 0.017357
vn 0.999833 0.005727 0.017357
vn 0.999833 0.005727 0.017357
vn 0.999833 0.005727 0.017357
vn 0.999833 0.005726 0.017357
vn 0.999833 0.005727 0.017357
vn 0.999833 0.005727 0.017357
vn -0.999833 -0.005729 -0.017357
vn -0.999833 -0.005728 -0.017357
vn -0.999833 -0.005727 -0.017357
vn -0.999833 -0.005728 -0.017357
vn -0.999833 -0.005727 -0.017357
vn -0.999833 -0.005727 -0.017357
vn -0.999833 -0.005727 -0.017357
vn -0.999833 -0.005726 -0.017357
vn -0.999833 -0.005727 -0.017357
vn -0.999833 -0.005726 -0.017357
vn -0.999833 -0.005727 -0.017356
vn -0.999833 -0.005727 -0.017357
vn -0.999833 -0.005727 -0.017356
vn -0.999833 -0.005728 -0.017356
vn -0.999833 -0.005727 -0.017357
vn 0.005085 -0.999310 0.036788
vn 0.005085 -0.999310 0.036788
vn 0.005085 -0.999310 0.036788
vn 0.005085 -0.999310 0.036788
vn 0.005085 -0.999310 0.036788
vn 0.005085 -0.999310 0.036788
vn -0.018262 0.350979 0.936205
vn -0.017191 0.617194 0.786623
vn -0.017191 0.617194 0.786623
vn -0.018262 0.350979 0.936205
vn -0.017191 0.617194 0.786623
vn -0.010333 0.960438 0.278303
vn -0.010333 0.960438 0.278303
vn -0.017191 0.617194 0.786623
vn -0.010333 0.960438 0.278303
vn 0.000730 0.936366 -0.351024
vn 0.000730 0.936366 -0.351024
vn -0.010333 0.960438 0.278303
vn 0.000730 0.936366 -0.351024
vn 0.006471 0.777220 -0.629195
vn 0.006471 0.777220 -0.629195
vn 0.000730 0.936366 -0.351024
vn 0.015328 0.254488 -0.966955
vn 0.015328 0.254488 -0.966955
vn 0.015328 0.254488 -0.966955
vn 0.015328 0.254488 -0.966955
vn 0.999833 0.005727 0.017357
vn 0.999833 0.005727 0.017356
vn 0.999833 0.005727 0.017357
vn 0.999833 0.005727 0.017357
vn 0.999833 0.005727 0.017357
vn 0.999833 0.005727 0.017357
vn 0.999833 0.005727 0.017357
vn 0.999833 0.005727 0.017357
vn 0.999833 0.005727 0.017357
vn 0.999833 0.005727 0.017357
vn 0.999833 0.005727 0.017357
vn 0.999833 0.005727 0.017357
vn 0.999833 0.005726 0.017357
vn 0.999833 0.005727 0.017357
vn 0.999833 0.005727 0.017357
vn -0.999833 -0.005729 -0.017357
vn -0.999833 -0.005728 -0.017357
vn -0.999833 -0.005727 -0.017357
vn -0.999833 -0.005728 -0.017357
vn -0.999833 -0.005727 -0.017357
vn -0.999833 -0.005727 -0.017357
vn -0.999833 -0.005727 -0.017357
vn -0.999833 -0.005726 -0.017357
vn -0.999833 -0.005727 -0.017357
vn -0.999833 -0.005726 -0.017357
vn -0.999833 -0.005727 -0.017356
vn -0.999833 -0.005727 -0.017357
vn -0.999833 -0.005727 -0.017356
vn -0.999833 -0.005728 -0.017356
vn -0.999833 -0.005727 -0.017357
vn 0.005085 -0.999310 0.036788
vn 0.005085 -0.999310 0.036788
vn 0.005085 -0.999310 0.036788
vn 0.005085 -0.999310 0.036788
vn 0.005085 -0.999310 0.036788
vn 0.005085 -0.999310 0.036788
vn -0.018262 0.350978 0.936206
vn -0.017191 0.617193 0.786624
vn -0.017191 0.617193 0.786624
vn -0.018262 0.350978 0.936206
vn -0.017191 0.617193 0.786624
vn -0.010333 0.960438 0.278303
vn -0.010333 0.960438 0.278303
vn -0.017191 0.617193 0.786624
vn -0.010333 0.960438 0.278303
vn 0.000730 0.936366 -0.351024
vn 0.000730 0.936366 -0.351024
vn -0.010333 0.960438 0.278303
vn 0.000730 0.936366 -0.351024
vn 0.006471 0.777220 -0.629195
vn 0.006471 0.777220 -0.629195
vn 0.000730 0.936366 -0.351024
vn 0.015328 0.254488 -0.966955
vn 0.015328 0.254488 -0.966955
vn 0.015328 0.254488 -0.966955
vn 0.015328 0.254488 -0.966955
vn 0.999833 0.005727 0.017357
vn 0.999833 0.005727 0.017357
vn 0.999833 0.005727 0.017357
vn 0.999833 0.005727 0.017357
vn 0.999833 0.005727 0.017357
vn 0.999833 0.005727 0.017357
vn 0.999833 0.005727 0.017357
vn 0.999833 0.005727 0.017357
vn 0.999833 0.005727 0.017357
vn 0.999833 0.005727 0.017357
vn 0.999833 0.005727 0.017357
vn 0.999833 0.005727 0.017357
vn 0.999833 0.005726 0.017357
vn 0.999833 0.005727 0.017357
vn 0.999833 0.005727 0.017357
vn -0.999833 -0.005729 -0.017357
vn -0.999833 -0.005728 -0.017357
vn -0.999833 -0.005727 -0.017357
vn -0.999833 -0.005728 -0.017357
vn -0.999833 -0.005727 -0.017357
vn -0.999833 -0.005727 -0.017357
vn -0.999833 -0.005727 -0.017357
vn -0.999833 -0.005726 -0.017357
vn -0.999833 -0.005727 -0.017357
vn -0.999833 -0.005726 -0.017357
vn -0.999833 -0.005727 -0.017356
vn -0.999833 -0.005727 -0.017357
vn -0.999833 -0.005727 -0.017356
vn -0.999833 -0.005728 -0.017356
vn -0.999833 -0.005727 -0.017357
vn 0.005085 -0.999310 0.036788
vn 0.005085 -0.999310 0.036788
vn 0.005085 -0.999310 0.036788
vn 0.005085 -0.999310 0.036788
vn 0.005085 -0.999310 0.036788
vn 0.005085 -0.999310 0.036788
vn -0.018263 0.350979 0.936205
vn -0.017191 0.617193 0.786624
vn -0.017191 0.617193 0.786624
vn -0.018263 0.350979 0.936205
vn -0.017191 0.617193 0.786624
vn -0.010333 0.960438 0.278303
vn -0.010333 0.960438 0.278303
vn -0.017191 0.617193 0.786624
vn -0.010333 0.960438 0.278303
vn 0.000730 0.936366 -0.351024
vn 0.000730 0.936366 -0.351024
vn -0.010333 0.960438 0.278303
vn 0.000730 0.936366 -0.351024
vn 0.006471 0.777221 -0.629195
vn 0.006471 0.777221 -0.629195
vn 0.000730 0.936366 -0.351024
vn 0.015328 0.254488 -0.966955
vn 0.015328 0.254488 -0.966955
vn 0.015328 0.254488 -0.966955
vn 0.015328 0.254488 -0.966955
vn 0.999833 0.005727 0.017356
vn 0.999833 0.005727 0.017356
vn 0.999833 0.005727 0.017357
vn 0.999833 0.005727 0.017357
vn 0.999833 0.005727 0.017356
vn 0.999833 0.005727 0.017357
vn 0.999833 0.005727 0.017357
vn 0.999833 0.005727 0.017357
vn 0.999833 0.005727 0.017357
vn 0.999833 0.005727 0.017357
vn 0.999833 0.005727 0.017357
vn 0.999833 0.005727 0.017357
vn 0.999833 0.005726 0.017357
vn 0.999833 0.005727 0.017357
vn 0.999833 0.005727 0.017357
vn -0.999833 -0.005729 -0.017357
vn -0.999833 -0.005728 -0.017357
vn -0.999833 -0.005727 -0.017357
vn -0.999833 -0.005728 -0.017357
vn -0.999833 -0.005727 -0.017357
vn -0.999833 -0.005727 -0.017357
vn -0.999833 -0.005727 -0.017357
vn -0.999833 -0.005726 -0.017357
vn -0.999833 -0.005727 -0.017357
vn -0.999833 -0.005726 -0.017357
vn -0.999833 -0.005727 -0.017356
vn -0.999833 -0.005727 -0.017357
vn -0.999833 -0.005727 -0.017356
vn -0.999833 -0.005728 -0.017357
vn -0.999833 -0.005727 -0.017357
vn 0.005085 -0.999310 0.036788
vn 0.005085 -0.999310 0.036788
vn 0.005085 -0.999310 0.036788
vn 0.005085 -0.999310 0.036788
vn 0.005085 -0.999310 0.036788
vn 0.005085 -0.999310 0.036788
vn -0.018263 0.350977 0.936206
vn -0.017191 0.617193 0.786624
vn -0.017191 0.617193 0.786624
vn -0.018263 0.350977 0.936206
vn -0.017191 0.617193 0.786624
vn -0.010333 0.960438 0.278303
vn -0.010333 0.960438 0.278303
vn -0.017191 0.617193 0.786624
vn -0.010333 0.960438 0.278303
vn 0.000730 0.936366 -0.351024
vn 0.000730 0.936366 -0.351024
vn -0.010333 0.960438 0.278303
vn 0.000730 0.936366 -0.351024
vn 0.006471 0.777221 -0.629195
vn 0.006471 0.777221 -0.629195
vn 0.000730 0.936366 -0.351024
vn 0.015328 0.254488 -0.966955
vn 0.015328 0.254488 -0.966955
vn 0.015328 0.254488 -0.966955
vn 0.015328 0.254488 -0.966955
vn 0.999833 0.005727 0.017357
vn 0.999833 0.005727 0.017356
vn 0.999833 0.005727 0.017357
vn 0.999833 0.005727 0.017357
vn 0.999833 0.005727 0.017357
vn 0.999833 0.005727 0.017357
vn 0.999833 0.005727 0.017357
vn 0.999833 0.005727 0.017357
vn 0.999833 0.005727 0.017357
vn 0.999833 0.005727 0.017357
vn 0.999833 0.005727 0.017357
vn 0.999833 0.005727 0.017357
vn 0.999833 0.005726 0.017357
vn 0.999833 0.005727 0.017357
vn 0.999833 0.005727 0.017357
vn -0.999833 -0.005729 -0.017357
vn -0.999833 -0.005728 -0.017357
vn -0.999833 -0.005727 -0.017357
vn -0.999833 -0.005728 -0.017357
vn -0.999833 -0.005727 -0.017357
vn -0.999833 -0.005727 -0.017357
vn -0.999833 -0.005727 -0.017357
vn -0.999833 -0.005726 -0.017357
vn -0.999833 -0.005727 -0.017357
vn -0.999833 -0.005726 -0.017357
vn -0.999833 -0.005727 -0.017356
vn -0.999833 -0.005727 -0.017357
vn -0.999833 -0.005727 -0.017356
vn -0.999833 -0.005728 -0.017356
vn -0.999833 -0.005727 -0.017357
vn 0.005085 -0.999310 0.036788
vn 0.005085 -0.999310 0.036788
vn 0.005085 -0.999310 0.036788
vn 0.005085 -0.999310 0.036788
vn 0.005085 -0.999310 0.036788
vn 0.005085 -0.999310 0.036788
vn -0.018262 0.350977 0.936206
vn -0.017191 0.617193 0.786624
vn -0.017191 0.617193 0.786624
vn -0.018262 0.350977 0.936206
vn -0.017191 0.617193 0.786624
vn -0.010333 0.960438 0.278303
vn -0.010333 0.960438 0.278303
vn -0.017191 0.617193 0.786624
vn -0.010333 0.960438 0.278303
vn 0.000730 0.936366 -0.351024
vn 0.000730 0.936366 -0.351024
vn -0.010333 0.960438 0.278303
vn 0.000730 0.936366 -0.351024
vn 0.006471 0.777221 -0.629195
vn 0.006471 0.777221 -0.629195
vn 0.000730 0.936366 -0.351024
vn 0.015328 0.254488 -0.966955
vn 0.015328 0.254488 -0.966955
vn 0.015328 0.254488 -0.966955
vn 0.015328 0.254488 -0.966955
vn 0.999833 0.005727 0.017357
vn 0.999833 0.005727 0.017356
vn 0.999833 0.005727 0.017357
vn 0.999833 0.005727 0.017357
vn 0.999833 0.005727 0.017357
vn 0.999833 0.005727 0.017357
vn 0.999833 0.005727 0.017357
vn 0.999833 0.005727 0.017357
vn 0.999833 0.005727 0.017357
vn 0.999833 0.005727 0.017357
vn 0.999833 0.005727 0.017357
vn 0.999833 0.005727 0.017357
vn 0.999833 0.005726 0.017357
vn 0.999833 0.005727 0.017357
vn 0.999833 0.005727 0.017357
vn -0.999833 -0.005729 -0.017357
vn -0.999833 -0.005728 -0.017357
vn -0.999833 -0.005727 -0.017357
vn -0.999833 -0.005728 -0.017357
vn -0.999833 -0.005727 -0.017357
vn -0.999833 -0.005727 -0.017357
vn -0.999833 -0.005727 -0.017357
vn -0.999833 -0.005726 -0.017357
vn -0.999833 -0.005727 -0.017357
vn -0.999833 -0.005726 -0.017357
vn -0.999833 -0.005727 -0.017356
vn -0.999833 -0.005727 -0.017357
vn -0.999833 -0.005727 -0.017356
vn -0.999833 -0.005728 -0.017356
vn -0.999833 -0.005727 -0.017357
vn 0.005085 -0.999310 0.036788
vn 0.005085 -0.999310 0.036788
vn 0.005085 -0.999310 0.036788
vn 0.005085 -0.999310 0.036788
vn 0.005085 -0.999310 0.036788
vn 0.005085 -0.999310 0.036788
s off
g Pila_di_legna:group3
usemtl initialShadingGroup
f 1/1/1 2/2/2 8/3/3 7/4/4
f 2/2/5 3/5/6 9/6/7 8/3/8
f 3/5/9 4/7/10 10/8/11 9/6/12
f 4/7/13 5/9/14 11/10/15 10/8/16
f 5/9/17 6/11/18 12/12/19 11/10/20
f 2/13/21 1/14/22 13/15/23
f 3/16/24 2/13/25 13/15/26
f 4/17/27 3/16/28 13/15/29
f 5/18/30 4/17/31 13/15/32
f 6/19/33 5/18/34 13/15/35
f 7/20/36 8/21/37 14/22/38
f 8/21/39 9/23/40 14/22/41
f 9/23/42 10/24/43 14/22/44
f 10/24/45 11/25/46 14/22/47
f 11/25/48 12/26/49 14/22/50
f 7/20/51 14/22/52 12/26/53 6/19/54 13/15/55 1/14/56
f 15/27/57 16/28/58 22/29/59 21/30/60
f 16/28/61 17/31/62 23/32/63 22/29/64
f 17/31/65 18/33/66 24/34/67 23/32/68
f 18/33/69 19/35/70 25/36/71 24/34/72
f 19/35/73 20/37/74 26/38/75 25/36/76
f 16/39/77 15/40/78 27/41/79
f 17/42/80 16/39/81 27/41/82
f 18/43/83 17/42/84 27/41/85
f 19/44/86 18/43/87 27/41/88
f 20/45/89 19/44/90 27/41/91
f 21/46/92 22/47/93 28/48/94
f 22/47/95 23/49/96 28/48/97
f 23/49/98 24/50/99 28/48/100
f 24/50/101 25/51/102 28/48/103
f 25/51/104 26/52/105 28/48/106
f 21/46/107 28/48/108 26/52/109 20/45/110 27/41/111 15/40/112
f 29/53/113 30/54/114 36/55/115 35/56/116
f 30/54/117 31/57/118 37/58/119 36/55/120
f 31/57/121 32/59/122 38/60/123 37/58/124
f 32/59/125 33/61/126 39/62/127 38/60/128
f 33/61/129 34/63/130 40/64/131 39/62/132
f 30/65/133 29/66/134 41/67/135
f 31/68/136 30/65/137 41/67/138
f 32/69/139 31/68/140 41/67/141
f 33/70/142 32/69/143 41/67/144
f 34/71/145 33/70/146 41/67/147
f 35/72/148 36/73/149 42/74/150
f 36/73/151 37/75/152 42/74/153
f 37/75/154 38/76/155 42/74/156
f 38/76/157 39/77/158 42/74/159
f 39/77/160 40/78/161 42/74/162
f 35/72/163 42/74/164 40/78/165 34/71/166 41/67/167 29/66/168
f 43/79/169 44/80/170 50/81/171 49/82/172
f 44/80/173 45/83/174 51/84/175 50/81/176
f 45/83/177 46/85/178 52/86/179 51/84/180
f 46/85/181 47/87/182 53/88/183 52/86/184
f 47/87/185 48/89/186 54/90/187 53/88/188
f 44/91/189 43/92/190 55/93/191
f 45/94/192 44/91/193 55/93/194
f 46/95/195 45/94/196 55/93/197
f 47/96/198 46/95/199 55/93/200
f 48/97/201 47/96/202 55/93/203
f 49/98/204 50/99/205 56/100/206
f 50/99/207 51/101/208 56/100/209
f 51/101/210 52/102/211 56/100/212
f 52/102/213 53/103/214 56/100/215
f 53/103/216 54/104/217 56/100/218
f 49/98/219 56/100/220 54/104/221 48/97/222 55/93/223 43/92/224
f 57/105/225 58/106/226 64/107/227 63/108/228
f 58/106/229 59/109/230 65/110/231 64/107/232
f 59/109/233 60/111/234 66/112/235 65/110/236
f 60/111/237 61/113/238 67/114/239 66/112/240
f 61/113/241 62/115/242 68/116/243 67/114/244
f 58/117/245 57/118/246 69/119/247
f 59/120/248 58/117/249 69/119/250
f 60/121/251 59/120/252 69/119/253
f 61/122/254 60/121/255 69/119/256
f 62/123/257 61/122/258 69/119/259
f 63/124/260 64/125/261 70/126/262
f 64/125/263 65/127/264 70/126/265
f 65/127/266 66/128/267 70/126/268
f 66/128/269 67/129/270 70/126/271
f 67/129/272 68/130/273 70/126/274
f 63/124/275 70/126/276 68/130/277 62/123/278 69/119/279 57/118/280
f 71/131/281 72/132/282 78/133/283 77/134/284
f 72/132/285 73/135/286 79/136/287 78/133/288
f 73/135/289 74/137/290 80/138/291 79/136/292
f 74/137/293 75/139/294 81/140/295 80/138/296
f 75/139/297 76/141/298 82/142/299 81/140/300
f 72/143/301 71/144/302 83/145/303
f 73/146/304 72/143/305 83/145/306
f 74/147/307 73/146/308 83/145/309
f 75/148/310 74/147/311 83/145/312
f 76/149/313 75/148/314 83/145/315
f 77/150/316 78/151/317 84/152/318
f 78/151/319 79/153/320 84/152/321
f 79/153/322 80/154/323 84/152/324
f 80/154/325 81/155/326 84/152/327
f 81/155/328 82/156/329 84/152/330
f 77/150/331 84/152/332 82/156/333 76/149/334 83/145/335 71/144/336
