# This file uses meters as units for non-parametric coordinates.

mtllib Pilastro 01.mtl
g default
v -17.226685 0.000000 -19.997498
v -17.226685 0.000000 37.582947
v 39.094360 0.000000 -22.429016
v -17.226685 313.871521 -19.997498
v -17.226685 313.871521 37.582947
v 39.094360 313.871521 -22.429016
v -25.033813 315.407562 -28.700500
v -25.033813 315.407562 46.285828
v 46.901245 315.407562 -22.429016
v -25.033813 336.412567 -28.700500
v -25.033813 336.412567 46.285828
v 46.901245 336.412567 -22.429016
vt 2.227829 0.910338
vt 2.205860 0.905522
vt 2.214086 0.787106
vt 2.229071 0.804109
vt 2.178077 0.901824
vt 2.178716 0.788392
vt 2.159015 0.901177
vt 2.164091 0.808030
vt 2.189696 0.919313
vt 2.196189 0.757711
vt 2.221828 0.778803
vt 2.175300 0.779972
vt 2.218488 0.786302
vt 2.233299 0.805351
vt 2.179469 0.786299
vt 2.160191 0.808641
vt 2.241216 0.801927
vt 2.153479 0.804626
vn -1.000000 0.000000 0.000000
vn -1.000000 0.000000 0.000000
vn -1.000000 0.000000 0.000000
vn -1.000000 0.000000 0.000000
vn 0.729174 0.000000 0.684329
vn 0.729174 0.000000 0.684329
vn 0.728922 -0.015739 0.684415
vn 0.728811 -0.020478 0.684408
vn -0.043132 0.000000 -0.999069
vn -0.043132 0.000000 -0.999069
vn -0.042543 -0.022425 -0.998843
vn -0.042360 -0.029228 -0.998675
vn 0.000000 -1.000000 0.000000
vn 0.000000 -1.000000 0.000000
vn 0.000000 -1.000000 0.000000
vn 0.000000 1.000000 0.000000
vn 0.000000 1.000000 0.000000
vn 0.000000 1.000000 0.000000
vn -0.999060 -0.043351 0.000000
vn -0.999060 -0.043351 0.000000
vn -0.193043 -0.981190 0.000000
vn -0.193043 -0.981190 0.000000
vn 0.728811 -0.020478 0.684408
vn 0.728922 -0.015739 0.684415
vn 0.316861 -0.894387 0.315706
vn 0.316861 -0.894387 0.315706
vn -0.042360 -0.029228 -0.998675
vn -0.042543 -0.022425 -0.998843
vn 0.009965 -0.942929 -0.332844
vn 0.009965 -0.942929 -0.332844
vn -1.000000 0.000000 0.000000
vn -1.000000 0.000000 0.000000
vn -1.000000 0.000000 0.000000
vn -1.000000 0.000000 0.000000
vn 0.690735 0.000000 0.723108
vn 0.690735 0.000000 0.723108
vn 0.690735 0.000000 0.723108
vn 0.690735 0.000000 0.723108
vn 0.086852 0.000000 -0.996221
vn 0.086852 0.000000 -0.996221
vn 0.086852 0.000000 -0.996221
vn 0.086852 0.000000 -0.996221
s off
g Pilastro_01:group3
usemtl initialShadingGroup
f 1/1/1 2/2/2 5/3/3 4/4/4
f 2/2/5 3/5/6 6/6/7 5/3/8
f 3/5/9 1/7/10 4/8/11 6/6/12
f 1/9/13 3/5/14 2/2/15
f 10/10/16 11/11/17 12/12/18
f 4/4/19 5/3/20 8/13/21 7/14/22
f 5/3/23 6/6/24 9/15/25 8/13/26
f 6/6/27 4/8/28 7/16/29 9/15/30
f 7/14/31 8/13/32 11/11/33 10/17/34
f 8/13/35 9/15/36 12/12/37 11/11/38
f 9/15/39 7/16/40 10/18/41 12/12/42
