# This file uses meters as units for non-parametric coordinates.

mtllib Scatoletta.mtl
g default
v -26.184204 -0.000000 36.384888
v 26.184204 -0.000000 36.384888
v -26.184204 16.895276 36.384888
v 26.184204 16.895276 36.384888
v -26.184204 16.895276 -36.384949
v 26.184204 16.895276 -36.384949
v -26.184204 -0.000000 -36.384949
v 26.184204 -0.000000 -36.384949
vt 0.057112 0.131076
vt 0.103652 0.130667
vt 0.103784 0.145682
vt 0.057244 0.146091
vt 0.104354 0.210353
vt 0.057813 0.210763
vt 0.104486 0.225368
vt 0.057946 0.225778
vt 0.056542 0.066405
vt 0.103082 0.065995
vt 0.118097 0.065863
vt 0.118667 0.130534
vt 0.042097 0.131209
vt 0.041527 0.066538
vn 0.000000 0.000000 1.000000
vn 0.000000 0.000000 1.000000
vn 0.000000 0.000000 1.000000
vn 0.000000 0.000000 1.000000
vn 0.000000 1.000000 0.000000
vn 0.000000 1.000000 0.000000
vn 0.000000 1.000000 0.000000
vn 0.000000 1.000000 0.000000
vn 0.000000 0.000000 -1.000000
vn 0.000000 0.000000 -1.000000
vn 0.000000 0.000000 -1.000000
vn 0.000000 0.000000 -1.000000
vn 0.000000 -1.000000 0.000000
vn 0.000000 -1.000000 0.000000
vn 0.000000 -1.000000 0.000000
vn 0.000000 -1.000000 0.000000
vn 1.000000 0.000000 0.000000
vn 1.000000 0.000000 0.000000
vn 1.000000 0.000000 0.000000
vn 1.000000 0.000000 0.000000
vn -1.000000 0.000000 0.000000
vn -1.000000 0.000000 0.000000
vn -1.000000 0.000000 0.000000
vn -1.000000 0.000000 0.000000
s off
g Scatola:group3
usemtl Scatola:lambert33SG
f 1/1/1 2/2/2 4/3/3 3/4/4
f 3/4/5 4/3/6 6/5/7 5/6/8
f 5/6/9 6/5/10 8/7/11 7/8/12
f 7/9/13 8/10/14 2/2/15 1/1/16
f 2/2/17 8/10/18 6/11/19 4/12/20
f 7/9/21 1/1/22 3/13/23 5/14/24
