# This file uses meters as units for non-parametric coordinates.

mtllib Scatola.mtl
g default
v -760.657951 2.505681 573.315186
v -708.289574 2.505681 573.315186
v -760.657951 19.400957 573.315186
v -708.289574 19.400957 573.315186
v -760.657951 19.400957 500.545349
v -708.289574 19.400957 500.545349
v -760.657951 2.505681 500.545349
v -708.289574 2.505681 500.545349
vt 0.057112 0.131076
vt 0.103652 0.130667
vt 0.118667 0.130534
vt 0.057244 0.146091
vt 0.118097 0.065863
vt 0.057813 0.210763
vt 0.103082 0.065995
vt 0.056542 0.066405
vt 0.104354 0.210353
vt 0.041527 0.066538
vt 0.103784 0.145682
vt 0.042097 0.131209
vt 0.057946 0.225778
vt 0.104486 0.225368
vn 0.000000 0.000000 1.000000
vn 0.000000 0.000000 1.000000
vn 0.000000 0.000000 1.000000
vn 0.000000 0.000000 1.000000
vn 0.000000 1.000000 0.000000
vn 0.000000 1.000000 0.000000
vn 0.000000 1.000000 0.000000
vn 0.000000 1.000000 0.000000
vn 0.000000 0.000000 -1.000000
vn 0.000000 0.000000 -1.000000
vn 0.000000 0.000000 -1.000000
vn 0.000000 0.000000 -1.000000
vn 0.000000 -1.000000 0.000000
vn 0.000000 -1.000000 0.000000
vn 0.000000 -1.000000 0.000000
vn 0.000000 -1.000000 0.000000
vn 1.000000 0.000000 0.000000
vn 1.000000 0.000000 0.000000
vn 1.000000 0.000000 0.000000
vn 1.000000 0.000000 0.000000
vn -1.000000 0.000000 0.000000
vn -1.000000 0.000000 0.000000
vn -1.000000 0.000000 0.000000
vn -1.000000 0.000000 0.000000
s off
g Little_box Propos:group3
usemtl lambert33SG
f 1/1/1 2/2/2 4/11/3 3/4/4
f 3/4/5 4/11/6 6/9/7 5/6/8
f 5/6/9 6/9/10 8/14/11 7/13/12
f 7/8/13 8/7/14 2/2/15 1/1/16
f 2/2/17 8/7/18 6/5/19 4/3/20
f 7/8/21 1/1/22 3/12/23 5/10/24
