# This file uses meters as units for non-parametric coordinates.

mtllib Sedia.mtl
g default
v 23.079590 35.612940 23.544373
v 23.079590 35.612940 -24.134460
v 23.079590 39.794855 23.544373
v 23.079590 39.794855 -24.134460
v -24.599243 39.794855 23.544342
v -24.599243 39.794855 -24.134506
v -24.599243 35.612940 23.544342
v -24.599243 35.612940 -24.134506
v 23.079529 39.794855 16.493225
v -24.599304 39.794855 16.493256
v -24.599304 35.612940 16.493256
v 23.079529 35.612940 16.493225
v 23.079590 39.794855 -17.537476
v -24.599243 39.794855 -17.537445
v -24.599243 35.612940 -17.537445
v 23.079590 35.612940 -17.537476
v 17.994080 39.794855 16.493256
v 17.994080 39.794855 23.544342
v 17.994080 35.612940 23.544342
v 17.994080 35.612940 16.493256
v 17.994080 35.612940 -17.537506
v 17.994019 35.612940 -24.134506
v 17.994019 39.794855 -24.134506
v 17.994080 39.794855 -17.537506
v -17.994080 39.794855 16.493256
v -17.994080 39.794855 23.544342
v -17.994080 35.612940 23.544342
v -17.994080 35.612940 16.493256
v -17.994080 35.612940 -17.537476
v -17.994019 35.612940 -24.134552
v -17.994019 39.794855 -24.134552
v -17.994080 39.794855 -17.537476
v 17.994080 0.000000 23.544342
v 17.994080 0.000000 16.493256
v 23.079529 0.000000 16.493225
v 23.079590 0.000000 23.544373
v 17.994080 0.000000 -17.537506
v 23.079590 0.000000 -17.537476
v 17.994019 0.000000 -24.134506
v 23.079590 0.000000 -24.134460
v -24.599243 0.000000 23.544342
v -24.599304 0.000000 16.493256
v -17.994080 0.000000 16.493256
v -17.994080 0.000000 23.544342
v -17.994080 0.000000 -17.537476
v -17.994019 0.000000 -24.134552
v -24.599243 0.000000 -17.537445
v -24.599243 0.000000 -24.134506
v -17.994019 78.200323 14.979004
v -17.994080 73.821951 23.544342
v -24.599304 78.200323 14.979004
v -24.599243 73.821951 23.544342
v -17.994019 73.821951 -24.134552
v -17.994080 78.200323 -16.023193
v -24.599243 73.821951 -24.134506
v -24.599304 78.200323 -16.023193
v -17.994080 80.839796 0.000000
v -17.994080 39.794855 0.000000
v 17.994080 39.794855 0.000000
v 23.079590 39.794855 0.000000
v 23.079590 35.612940 0.000000
v 17.994080 35.612940 0.000000
v -17.994080 35.612940 0.000000
v -24.599243 35.612940 0.000000
v -24.599243 39.794855 0.000000
v -24.599243 80.839796 0.000000
vt 0.624526 0.199200
vt 0.628475 0.197970
vt 0.629172 0.200544
vt 0.624031 0.201433
vt 0.750958 0.203457
vt 0.758969 0.204943
vt 0.757855 0.210684
vt 0.749856 0.209210
vt 0.609812 0.171308
vt 0.613805 0.167452
vt 0.615413 0.169796
vt 0.612065 0.171877
vt 0.689736 0.073762
vt 0.690696 0.064333
vt 0.697496 0.065025
vt 0.696537 0.074454
vt 0.651753 0.186359
vt 0.651040 0.183715
vt 0.653632 0.183048
vt 0.654133 0.187161
vt 0.622988 0.196939
vt 0.620776 0.198548
vt 0.777901 0.208526
vt 0.798022 0.212709
vt 0.796833 0.218435
vt 0.776749 0.214253
vt 0.625216 0.165234
vt 0.624085 0.162706
vt 0.635051 0.157788
vt 0.635698 0.160496
vt 0.597902 0.073413
vt 0.600955 0.079878
vt 0.578658 0.090404
vt 0.575606 0.083938
vt 0.639555 0.196262
vt 0.638354 0.193779
vt 0.648757 0.188521
vt 0.650408 0.190663
vt 0.805491 0.214330
vt 0.804288 0.220071
vt 0.640408 0.157372
vt 0.639323 0.159416
vt 0.772648 0.126502
vt 0.779372 0.127008
vt 0.778716 0.135731
vt 0.771992 0.135225
vt 0.749658 0.251235
vt 0.741334 0.250146
vt 0.613180 0.175494
vt 0.610568 0.176346
vt 0.652487 0.111501
vt 0.643523 0.115733
vt 0.621923 0.069979
vt 0.630888 0.065747
vt 0.622554 0.125632
vt 0.600258 0.136157
vt 0.570271 0.094363
vt 0.591871 0.140117
vt 0.641397 0.162590
vt 0.643755 0.161203
vt 0.796163 0.261172
vt 0.788624 0.259140
vt 0.768654 0.254526
vt 0.736534 0.287792
vt 0.744243 0.294522
vt 0.739857 0.300522
vt 0.729620 0.290338
vt 0.687728 0.136638
vt 0.688561 0.127769
vt 0.696869 0.128549
vt 0.696036 0.137418
vt 0.626518 0.134029
vt 0.604222 0.144555
vt 0.779728 0.073421
vt 0.783556 0.066164
vt 0.790822 0.069997
vt 0.786993 0.077254
vt 0.777060 0.300854
vt 0.786314 0.297993
vt 0.791518 0.302458
vt 0.778991 0.308440
vt 0.758061 0.307993
vt 0.759473 0.300931
vt 0.684888 0.121386
vt 0.675459 0.120426
vt 0.680307 0.072802
vt 0.668658 0.119733
vt 0.673506 0.072110
vt 0.701117 0.123038
vt 0.691688 0.122078
vt 0.705966 0.075414
vt 0.790620 0.183980
vt 0.783896 0.183474
vt 0.787439 0.136387
vt 0.794163 0.136893
vt 0.775173 0.182818
vt 0.768449 0.182312
vt 0.759726 0.181656
vt 0.763269 0.134568
vt 0.683521 0.181430
vt 0.674652 0.180597
vt 0.678860 0.135805
vt 0.666345 0.179817
vt 0.670552 0.135024
vt 0.700697 0.183043
vt 0.691828 0.182211
vt 0.704904 0.138251
vt 0.759061 0.112595
vt 0.751805 0.108767
vt 0.772471 0.069592
vt 0.780850 0.124090
vt 0.773584 0.120257
vt 0.794250 0.081082
vt 0.801516 0.084915
vt 0.766327 0.116428
vt 0.613865 0.278961
vt 0.602885 0.272601
vt 0.633578 0.219610
vt 0.650867 0.220518
vt 0.733693 0.249727
vt 0.803715 0.263820
vt 0.677136 0.315609
vt 0.666862 0.309658
vt 0.699147 0.248483
vt 0.707829 0.262618
vt 0.639550 0.293839
vt 0.676575 0.229919
vt 0.618871 0.063514
vt 0.647487 0.124130
vn 1.000000 0.000000 -0.000009
vn 1.000000 0.000000 -0.000007
vn 1.000000 0.000000 -0.000001
vn 1.000000 0.000000 -0.000009
vn 0.000000 1.000000 0.000000
vn 0.000000 1.000000 0.000000
vn 0.000000 1.000000 0.000000
vn 0.000000 1.000000 0.000000
vn -1.000000 0.000000 0.000004
vn -1.000000 0.000000 0.000000
vn -1.000000 0.000000 0.000003
vn -1.000000 0.000000 0.000004
vn 0.000000 -1.000000 0.000000
vn 0.000000 -1.000000 0.000000
vn 0.000000 -1.000000 0.000000
vn 0.000000 -1.000000 0.000000
vn 0.000006 0.000000 -1.000000
vn 0.000004 0.000000 -1.000000
vn 0.000002 0.000000 -1.000000
vn 0.000011 0.000000 -1.000000
vn -0.000003 0.000000 1.000000
vn -0.000005 0.000000 1.000000
vn -0.000006 0.000000 1.000000
vn -0.000001 0.000000 1.000000
vn 0.000000 1.000000 0.000000
vn 0.000000 1.000000 0.000000
vn 0.000000 1.000000 0.000000
vn 0.000000 1.000000 0.000000
vn -1.000000 0.000000 -0.000001
vn -1.000000 0.000000 0.000000
vn -1.000000 0.000000 0.000000
vn -1.000000 0.000000 0.000000
vn 0.000000 -1.000000 0.000000
vn 0.000000 -1.000000 0.000000
vn 0.000000 -1.000000 0.000000
vn 0.000000 -1.000000 0.000000
vn 1.000000 0.000000 0.000002
vn 1.000000 0.000000 0.000002
vn 1.000000 0.000000 0.000000
vn 1.000000 0.000000 0.000001
vn 0.000000 1.000000 0.000000
vn 0.000000 1.000000 0.000000
vn 0.000000 1.000000 0.000000
vn 0.000000 1.000000 0.000000
vn -1.000000 0.000000 0.000000
vn -1.000000 0.000000 0.000000
vn -1.000000 0.000000 -0.000002
vn -1.000000 0.000000 0.000000
vn 0.000000 -1.000000 0.000000
vn 0.000000 -1.000000 0.000000
vn 0.000000 -1.000000 0.000000
vn 0.000000 -1.000000 0.000000
vn 1.000000 0.000000 0.000001
vn 1.000000 0.000000 0.000000
vn 1.000000 0.000000 0.000000
vn 1.000000 0.000000 0.000000
vn 0.000000 1.000000 0.000000
vn 0.000000 1.000000 0.000000
vn 0.000000 1.000000 0.000000
vn 0.000000 1.000000 0.000000
vn 0.000000 0.000000 1.000000
vn -0.000003 0.000000 1.000000
vn -0.000001 0.000000 1.000000
vn 0.000000 0.000000 1.000000
vn 0.000000 -1.000000 0.000000
vn 0.000000 -1.000000 0.000000
vn 0.000000 -1.000000 0.000000
vn 0.000000 -1.000000 0.000000
vn 0.000000 -1.000000 0.000000
vn 0.000000 -1.000000 0.000000
vn 0.000000 -1.000000 0.000000
vn 0.000000 -1.000000 0.000000
vn 0.000000 -1.000000 0.000000
vn 0.000000 -1.000000 0.000000
vn 0.000000 -1.000000 0.000000
vn 0.000000 -1.000000 0.000000
vn 0.000002 0.000000 -1.000000
vn 0.000004 0.000000 -1.000000
vn -0.000005 0.000000 -1.000000
vn -0.000005 0.000000 -1.000000
vn 0.000000 1.000000 0.000000
vn 0.000000 1.000000 0.000000
vn 0.000000 1.000000 -0.000001
vn 0.000000 1.000000 0.000000
vn 0.000000 1.000000 0.000000
vn 0.000000 1.000000 0.000000
vn 0.000000 1.000000 0.000000
vn 0.000000 1.000000 0.000000
vn 0.000000 0.890412 0.455155
vn 0.000000 0.958334 0.285650
vn 0.000000 0.958334 0.285650
vn 0.000000 0.890412 0.455155
vn 0.000000 0.000000 1.000000
vn 0.000000 0.000000 1.000000
vn 0.000000 0.000000 1.000000
vn 0.000000 0.000000 1.000000
vn 0.000000 -1.000000 0.000000
vn 0.000000 -1.000000 0.000000
vn 0.000000 -1.000000 0.000000
vn 0.000000 -1.000000 0.000000
vn 0.000000 -1.000000 0.000000
vn 0.000000 -1.000000 0.000000
vn 0.000000 -1.000000 0.000000
vn 0.000000 -1.000000 0.000000
vn 0.000000 -1.000000 0.000000
vn 0.000000 -1.000000 0.000000
vn 0.000000 -1.000000 0.000000
vn 0.000000 -1.000000 0.000000
vn -0.000005 0.000000 -1.000000
vn -0.000005 0.000000 -1.000000
vn -0.000008 0.000000 -1.000000
vn -0.000008 0.000000 -1.000000
vn -0.000001 0.960228 -0.279216
vn -0.000002 0.879985 -0.475001
vn -0.000002 0.879985 -0.475001
vn -0.000001 0.960228 -0.279216
vn 0.000000 1.000000 0.000001
vn 0.000000 1.000000 0.000001
vn -0.000001 0.960228 -0.279216
vn -0.000001 0.960228 -0.279216
vn -1.000000 0.000000 0.000000
vn -1.000000 0.000000 0.000000
vn -1.000000 0.000000 0.000000
vn -1.000000 0.000000 0.000000
vn -0.000011 0.000000 -1.000000
vn -0.000011 0.000000 -1.000000
vn -0.000011 0.000000 -1.000000
vn -0.000011 0.000000 -1.000000
vn 1.000000 0.000000 -0.000007
vn 1.000000 0.000000 -0.000009
vn 1.000000 0.000000 -0.000009
vn 1.000000 0.000000 -0.000009
vn -0.000005 0.000000 1.000000
vn -0.000003 0.000000 1.000000
vn -0.000005 0.000000 1.000000
vn -0.000005 0.000000 1.000000
vn -0.000005 0.000000 1.000000
vn -0.000005 0.000000 1.000000
vn -0.000005 0.000000 1.000000
vn -0.000005 0.000000 1.000000
vn -1.000000 0.000000 0.000009
vn -1.000000 0.000000 0.000009
vn -1.000000 0.000000 0.000009
vn -1.000000 0.000000 0.000009
vn 0.000004 0.000000 -1.000000
vn 0.000006 0.000000 -1.000000
vn 0.000005 0.000000 -1.000000
vn 0.000005 0.000000 -1.000000
vn 1.000000 0.000000 0.000000
vn 1.000000 0.000000 0.000000
vn 1.000000 0.000000 0.000000
vn 1.000000 0.000000 0.000000
vn -1.000000 0.000000 0.000004
vn -1.000000 0.000000 0.000003
vn -1.000000 0.000000 0.000004
vn -1.000000 0.000000 0.000004
vn 0.000000 0.000000 -1.000000
vn 0.000000 0.000000 -1.000000
vn 0.000000 0.000000 -1.000000
vn 0.000000 0.000000 -1.000000
vn 1.000000 0.000000 0.000000
vn 1.000000 0.000000 0.000000
vn 1.000000 0.000000 0.000000
vn 1.000000 0.000000 0.000000
vn 0.000000 0.000000 1.000000
vn 0.000000 0.000000 1.000000
vn 0.000000 0.000000 1.000000
vn 0.000000 0.000000 1.000000
vn 1.000000 0.000000 0.000009
vn 1.000000 0.000000 0.000009
vn 1.000000 0.000000 0.000009
vn 1.000000 0.000000 0.000009
vn 0.000004 0.000000 1.000000
vn 0.000004 0.000000 1.000000
vn 0.000004 0.000000 1.000000
vn 0.000004 0.000000 1.000000
vn -1.000000 0.000000 0.000000
vn -1.000000 0.000000 0.000000
vn -1.000000 0.000000 0.000000
vn -1.000000 0.000000 0.000000
vn -0.000008 0.000000 -1.000000
vn -0.000005 0.000000 -1.000000
vn -0.000008 0.000000 -1.000000
vn -0.000008 0.000000 -1.000000
vn 1.000000 -0.000001 0.000004
vn 1.000000 -0.000001 0.000000
vn 1.000000 -0.000001 -0.000001
vn 1.000000 -0.000001 0.000004
vn -1.000000 0.000000 0.000000
vn -1.000000 0.000000 0.000004
vn -1.000000 0.000000 0.000004
vn -1.000000 0.000000 -0.000001
vn 0.000000 0.000000 1.000000
vn 0.000000 0.000000 1.000000
vn 0.000000 0.000000 1.000000
vn 0.000000 0.000000 1.000000
vn 1.000000 0.000000 0.000002
vn 1.000000 0.000000 0.000008
vn 1.000000 0.000000 0.000008
vn 1.000000 0.000000 0.000002
vn -0.000005 0.000000 -1.000000
vn -0.000008 0.000000 -1.000000
vn -0.000009 0.000000 -1.000000
vn -0.000009 0.000000 -1.000000
vn -1.000000 0.000000 -0.000002
vn -1.000000 0.000000 0.000000
vn -1.000000 0.000000 0.000000
vn -1.000000 0.000000 -0.000002
vn 1.000000 0.000000 -0.000001
vn 1.000000 0.000000 0.000002
vn 1.000000 0.000000 0.000002
vn 1.000000 0.000000 -0.000001
vn -1.000000 0.000000 0.000000
vn -1.000000 0.000000 0.000000
vn -1.000000 0.000000 0.000000
vn -1.000000 0.000000 0.000000
vn 1.000000 -0.000001 0.000000
vn 1.000000 0.000000 -0.000001
vn 1.000000 0.000000 -0.000001
vn 1.000000 -0.000001 -0.000001
vn 0.000000 1.000000 0.000000
vn 0.000000 1.000000 0.000000
vn 0.000000 1.000000 0.000000
vn 0.000000 1.000000 0.000000
vn 0.000000 1.000000 0.000000
vn 0.000000 1.000000 0.000000
vn 0.000000 1.000000 0.000000
vn 0.000000 1.000000 0.000000
vn 1.000000 0.000000 -0.000001
vn 1.000000 0.000000 -0.000007
vn 1.000000 0.000000 0.000002
vn 1.000000 0.000000 0.000002
vn 0.000000 -1.000000 0.000000
vn 0.000000 -1.000000 0.000000
vn 0.000000 -1.000000 0.000000
vn 0.000000 -1.000000 0.000000
vn 0.000000 -1.000000 0.000000
vn 0.000000 -1.000000 0.000000
vn 0.000000 -1.000000 0.000000
vn 0.000000 -1.000000 0.000000
vn 0.000000 -1.000000 0.000000
vn 0.000000 -1.000000 0.000000
vn 0.000000 -1.000000 0.000000
vn 0.000000 -1.000000 0.000000
vn -1.000000 0.000000 0.000003
vn -1.000000 0.000000 0.000000
vn -1.000000 0.000000 0.000000
vn -1.000000 0.000000 -0.000001
vn -1.000000 0.000000 0.000000
vn -1.000000 0.000000 0.000000
vn -1.000000 0.000000 0.000000
vn -1.000000 0.000000 -0.000001
vn 0.000000 0.958334 0.285650
vn 0.000000 1.000000 0.000001
vn 0.000000 1.000000 0.000001
vn 0.000000 0.958334 0.285650
s off
g Sedia:group3
usemtl Sedia:lambert3SG
f 1/1/1 12/2/2 9/3/3 3/4/4
f 3/5/5 9/6/6 17/7/7 18/8/8
f 5/9/9 10/10/10 11/11/11 7/12/12
f 33/13/13 34/14/14 35/15/15 36/16/16
f 2/17/17 22/18/18 23/19/19 4/20/20
f 19/21/21 1/1/22 3/4/23 18/22/24
f 60/23/25 13/24/26 24/25/27 59/26/28
f 64/27/29 65/28/30 14/29/31 15/30/32
f 61/31/33 62/32/34 21/33/35 16/34/36
f 60/35/37 61/36/38 16/37/39 13/38/40
f 13/24/41 4/39/42 23/40/43 24/25/44
f 15/30/45 14/29/46 6/41/47 8/42/48
f 38/43/49 37/44/50 39/45/51 40/46/52
f 13/38/53 16/37/54 2/17/55 4/20/56
f 18/8/57 17/7/58 25/47/59 26/48/60
f 27/49/61 19/21/62 18/22/63 26/50/64
f 27/51/65 28/52/66 20/53/67 19/54/68
f 21/33/69 62/32/70 63/55/71 29/56/72
f 22/57/73 21/33/74 29/56/75 30/58/76
f 23/19/77 22/18/78 30/59/79 31/60/80
f 24/25/81 23/40/82 31/61/83 32/62/84
f 59/26/85 24/25/86 32/62/87 58/63/88
f 50/64/89 49/65/90 51/66/91 52/67/92
f 7/12/93 27/49/94 26/50/95 5/9/96
f 41/68/97 42/69/98 43/70/99 44/71/100
f 29/56/101 63/55/102 64/72/103 15/73/104
f 46/74/105 45/75/106 47/76/107 48/77/108
f 31/60/109 30/59/110 8/42/111 6/41/112
f 54/78/113 53/79/114 55/80/115 56/81/116
f 66/82/117 57/83/118 54/78/119 56/81/120
f 19/84/121 20/85/122 34/86/123 33/13/124
f 20/85/125 12/87/126 35/88/127 34/86/128
f 12/89/129 1/90/130 36/16/131 35/91/132
f 1/90/133 19/84/134 33/13/135 36/16/136
f 16/92/137 21/93/138 37/94/139 38/95/140
f 21/93/141 22/96/142 39/45/143 37/94/144
f 22/96/145 2/97/146 40/46/147 39/45/148
f 2/97/149 16/98/150 38/99/151 40/46/152
f 7/100/153 11/101/154 42/102/155 41/68/156
f 11/101/157 28/103/158 43/104/159 42/102/160
f 28/105/161 27/106/162 44/71/163 43/107/164
f 27/106/165 7/100/166 41/68/167 44/71/168
f 30/108/169 29/109/170 45/110/171 46/74/172
f 29/111/173 15/112/174 47/113/175 45/114/176
f 15/112/177 8/115/178 48/77/179 47/113/180
f 8/115/181 30/108/182 46/74/183 48/77/184
f 26/48/185 25/47/186 49/65/187 50/64/188
f 10/116/189 5/117/190 52/118/191 51/119/192
f 5/120/193 26/48/194 50/64/195 52/67/196
f 32/62/197 31/61/198 53/79/199 54/78/200
f 31/61/201 6/121/202 55/80/203 53/79/204
f 6/122/205 14/123/206 56/124/207 55/125/208
f 58/63/209 32/62/210 54/78/211 57/83/212
f 14/123/213 65/126/214 66/127/215 56/124/216
f 25/47/217 58/63/218 57/83/219 49/65/220
f 17/7/221 59/26/222 58/63/223 25/47/224
f 9/6/225 60/23/226 59/26/227 17/7/228
f 9/3/229 12/2/230 61/36/231 60/35/232
f 12/128/233 20/53/234 62/32/235 61/31/236
f 63/55/237 62/32/238 20/53/239 28/52/240
f 64/72/241 63/55/242 28/52/243 11/129/244
f 11/11/245 10/10/246 65/28/247 64/27/248
f 66/127/249 65/126/250 10/116/251 51/119/252
f 49/65/253 57/83/254 66/82/255 51/66/256
