# This file uses meters as units for non-parametric coordinates.

mtllib Sgabello.mtl
g default
v 7.029358 0.000000 -12.078766
v 9.678711 0.000000 -8.446259
v 7.029358 19.923014 -12.078766
v 9.678711 19.923014 -8.446259
v 10.661804 19.923014 -14.728180
v 13.311157 19.923014 -11.095612
v 10.661804 0.000000 -14.728180
v 13.311157 0.000000 -11.095612
v 2.191223 0.000000 12.125153
v 4.840637 0.000000 15.757629
v 2.191223 19.923014 12.125153
v 4.840637 19.923014 15.757629
v 5.823730 19.923014 9.475739
v 8.473145 19.923014 13.108307
v 5.823730 0.000000 9.475739
v 8.473145 0.000000 13.108307
v -17.278564 0.000000 -4.214050
v -14.629211 0.000000 -0.581512
v -17.278564 19.923014 -4.214050
v -14.629211 19.923014 -0.581512
v -13.646118 19.923014 -6.863403
v -10.996704 19.923014 -3.230835
v -13.646118 0.000000 -6.863403
v -10.996704 0.000000 -3.230835
v 21.383118 18.241623 3.346588
v 17.486511 18.241623 -12.753815
v 3.346497 18.241623 -21.383118
v -12.753845 18.241623 -17.486450
v -21.383179 18.241623 -3.346527
v -17.486511 18.241623 12.753876
v -3.346497 18.241623 21.383209
v 12.753845 18.241623 17.486542
v 21.383118 22.692988 3.346588
v 17.486511 22.692988 -12.753815
v 3.346497 22.692988 -21.383118
v -12.753845 22.692988 -17.486450
v -21.383179 22.692988 -3.346527
v -17.486511 22.692988 12.753876
v -3.346497 22.692988 21.383209
v 12.753845 22.692988 17.486542
v 0.000000 18.241623 0.000000
v 0.000000 22.692988 0.000000
vt 0.066395 0.615338
vt 0.086999 0.586016
vt 0.091465 0.557293
vt 0.095504 0.613342
vt 0.038343 0.617304
vt 0.034303 0.561253
vt 0.063410 0.559258
vt 0.042806 0.588579
vt 0.164076 0.513252
vt 0.143346 0.542816
vt 0.113782 0.522087
vt 0.134512 0.492523
vt 0.065595 0.511510
vt 0.024503 0.452448
vt 0.057159 0.435779
vt 0.046783 0.480075
vt 0.091685 0.487569
vt 0.102005 0.443255
vt 0.083190 0.411591
vt 0.124308 0.470605
vt 0.150871 0.615554
vt 0.116344 0.605472
vt 0.126426 0.570945
vt 0.160953 0.581027
vt 0.208109 0.439905
vt 0.173561 0.429808
vt 0.146308 0.440086
vt 0.196177 0.413343
vt 0.223060 0.463495
vt 0.173197 0.490237
vt 0.161280 0.463635
vt 0.195813 0.473732
vt 0.285390 0.465652
vt 0.250863 0.455570
vt 0.260946 0.421043
vt 0.295473 0.431125
vt 0.206367 0.511135
vt 0.237830 0.506594
vt 0.236221 0.513415
vt 0.210019 0.517118
vt 0.263388 0.525448
vt 0.257461 0.529180
vt 0.268106 0.557025
vt 0.261288 0.555423
vt 0.249047 0.582621
vt 0.245394 0.576639
vt 0.217582 0.587164
vt 0.219191 0.580343
vt 0.192023 0.568309
vt 0.197949 0.564578
vt 0.187306 0.536729
vt 0.194123 0.538333
vt 0.344996 0.511726
vt 0.340774 0.534054
vt 0.315933 0.517793
vt 0.332194 0.492952
vt 0.309866 0.488730
vt 0.291092 0.501532
vt 0.286870 0.523860
vt 0.299672 0.542634
vt 0.322000 0.546856
vt 0.304779 0.651262
vt 0.278901 0.641132
vt 0.304068 0.614959
vt 0.267765 0.615670
vt 0.277896 0.589792
vt 0.303357 0.578657
vt 0.329235 0.588787
vt 0.340371 0.614248
vt 0.330240 0.640126
vn -0.807937 0.000000 0.589269
vn -0.807937 0.000000 0.589269
vn -0.807937 0.000000 0.589269
vn -0.807937 0.000000 0.589269
vn 0.807941 0.000000 -0.589263
vn 0.807941 0.000000 -0.589263
vn 0.807941 0.000000 -0.589263
vn 0.807941 0.000000 -0.589263
vn 0.000000 -1.000000 0.000000
vn 0.000000 -1.000000 0.000000
vn 0.000000 -1.000000 0.000000
vn 0.000000 -1.000000 0.000000
vn 0.589270 0.000000 0.807936
vn 0.589270 0.000000 0.807936
vn 0.589270 0.000000 0.807936
vn 0.589270 0.000000 0.807936
vn -0.589278 0.000000 -0.807931
vn -0.589278 0.000000 -0.807931
vn -0.589278 0.000000 -0.807931
vn -0.589278 0.000000 -0.807931
vn -0.807934 0.000000 0.589273
vn -0.807934 0.000000 0.589273
vn -0.807934 0.000000 0.589273
vn -0.807934 0.000000 0.589273
vn 0.807938 0.000000 -0.589267
vn 0.807938 0.000000 -0.589267
vn 0.807938 0.000000 -0.589267
vn 0.807938 0.000000 -0.589267
vn 0.000000 -1.000000 0.000000
vn 0.000000 -1.000000 0.000000
vn 0.000000 -1.000000 0.000000
vn 0.000000 -1.000000 0.000000
vn 0.589257 0.000000 0.807946
vn 0.589257 0.000000 0.807946
vn 0.589257 0.000000 0.807946
vn 0.589257 0.000000 0.807946
vn -0.589274 0.000000 -0.807933
vn -0.589274 0.000000 -0.807933
vn -0.589274 0.000000 -0.807933
vn -0.589274 0.000000 -0.807933
vn -0.807938 0.000000 0.589268
vn -0.807938 0.000000 0.589268
vn -0.807938 0.000000 0.589268
vn -0.807938 0.000000 0.589268
vn 0.807938 0.000000 -0.589267
vn 0.807938 0.000000 -0.589267
vn 0.807938 0.000000 -0.589267
vn 0.807938 0.000000 -0.589267
vn 0.000000 -1.000000 0.000000
vn 0.000000 -1.000000 0.000000
vn 0.000000 -1.000000 0.000000
vn 0.000000 -1.000000 0.000000
vn 0.589260 0.000000 0.807943
vn 0.589260 0.000000 0.807943
vn 0.589260 0.000000 0.807943
vn 0.589260 0.000000 0.807943
vn -0.589270 0.000000 -0.807936
vn -0.589270 0.000000 -0.807936
vn -0.589270 0.000000 -0.807936
vn -0.589270 0.000000 -0.807936
vn 0.971940 0.000000 -0.235230
vn 0.971940 0.000000 -0.235230
vn 0.971940 0.000000 -0.235230
vn 0.971940 0.000000 -0.235230
vn 0.520933 0.000000 -0.853598
vn 0.520933 0.000000 -0.853598
vn 0.520933 0.000000 -0.853598
vn 0.520933 0.000000 -0.853598
vn -0.235232 0.000000 -0.971939
vn -0.235232 0.000000 -0.971939
vn -0.235232 0.000000 -0.971939
vn -0.235232 0.000000 -0.971939
vn -0.853597 0.000000 -0.520933
vn -0.853597 0.000000 -0.520933
vn -0.853597 0.000000 -0.520933
vn -0.853597 0.000000 -0.520933
vn -0.971940 0.000000 0.235230
vn -0.971940 0.000000 0.235230
vn -0.971940 0.000000 0.235230
vn -0.971940 0.000000 0.235230
vn -0.520931 0.000000 0.853599
vn -0.520931 0.000000 0.853599
vn -0.520931 0.000000 0.853599
vn -0.520931 0.000000 0.853599
vn 0.235233 0.000000 0.971939
vn 0.235233 0.000000 0.971939
vn 0.235233 0.000000 0.971939
vn 0.235233 0.000000 0.971939
vn 0.853598 0.000000 0.520932
vn 0.853598 0.000000 0.520932
vn 0.853598 0.000000 0.520932
vn 0.853598 0.000000 0.520932
vn 0.000000 -1.000000 0.000000
vn 0.000000 -1.000000 0.000000
vn 0.000000 -1.000000 0.000000
vn 0.000000 -1.000000 0.000000
vn 0.000000 -1.000000 0.000000
vn 0.000000 -1.000000 0.000000
vn 0.000000 -1.000000 0.000000
vn 0.000000 -1.000000 0.000000
vn 0.000000 -1.000000 0.000000
vn 0.000000 -1.000000 0.000000
vn 0.000000 -1.000000 0.000000
vn 0.000000 -1.000000 0.000000
vn 0.000000 -1.000000 0.000000
vn 0.000000 -1.000000 0.000000
vn 0.000000 -1.000000 0.000000
vn 0.000000 -1.000000 0.000000
vn 0.000000 -1.000000 0.000000
vn 0.000000 -1.000000 0.000000
vn 0.000000 -1.000000 0.000000
vn 0.000000 -1.000000 0.000000
vn 0.000000 -1.000000 0.000000
vn 0.000000 -1.000000 0.000000
vn 0.000000 -1.000000 0.000000
vn 0.000000 -1.000000 0.000000
vn 0.000000 1.000000 0.000000
vn 0.000000 1.000000 0.000000
vn 0.000000 1.000000 0.000000
vn 0.000000 1.000000 0.000000
vn 0.000000 1.000000 0.000000
vn 0.000000 1.000000 0.000000
vn 0.000000 1.000000 0.000000
vn 0.000000 1.000000 0.000000
vn 0.000000 1.000000 0.000000
vn 0.000000 1.000000 0.000000
vn 0.000000 1.000000 0.000000
vn 0.000000 1.000000 0.000000
vn 0.000000 1.000000 0.000000
vn 0.000000 1.000000 0.000000
vn 0.000000 1.000000 0.000000
vn 0.000000 1.000000 0.000000
vn 0.000000 1.000000 0.000000
vn 0.000000 1.000000 0.000000
vn 0.000000 1.000000 0.000000
vn 0.000000 1.000000 0.000000
vn 0.000000 1.000000 0.000000
vn 0.000000 1.000000 0.000000
vn 0.000000 1.000000 0.000000
vn 0.000000 1.000000 0.000000
s off
g Sgabello:group3
usemtl Sgabello:lambert12SG
f 1/1/1 2/2/2 4/3/3 3/4/4
f 5/5/5 6/6/6 8/7/7 7/8/8
f 7/9/9 8/10/10 2/11/11 1/12/12
f 2/2/13 8/7/14 6/6/15 4/3/16
f 7/8/17 1/1/18 3/4/19 5/5/20
f 9/13/21 10/14/22 12/15/23 11/16/24
f 13/17/25 14/18/26 16/19/27 15/20/28
f 15/21/29 16/22/30 10/23/31 9/24/32
f 10/14/33 16/19/34 14/18/35 12/15/36
f 15/20/37 9/13/38 11/16/39 13/17/40
f 17/25/41 18/26/42 20/27/43 19/28/44
f 21/29/45 22/30/46 24/31/47 23/32/48
f 23/33/49 24/34/50 18/35/51 17/36/52
f 18/26/53 24/31/54 22/30/55 20/27/56
f 23/32/57 17/25/58 19/28/59 21/29/60
f 25/37/61 26/38/62 34/39/63 33/40/64
f 26/38/65 27/41/66 35/42/67 34/39/68
f 27/41/69 28/43/70 36/44/71 35/42/72
f 28/43/73 29/45/74 37/46/75 36/44/76
f 29/45/77 30/47/78 38/48/79 37/46/80
f 30/47/81 31/49/82 39/50/83 38/48/84
f 31/49/85 32/51/86 40/52/87 39/50/88
f 32/51/89 25/37/90 33/40/91 40/52/92
f 26/53/93 25/54/94 41/55/95
f 27/56/96 26/53/97 41/55/98
f 28/57/99 27/56/100 41/55/101
f 29/58/102 28/57/103 41/55/104
f 30/59/105 29/58/106 41/55/107
f 31/60/108 30/59/109 41/55/110
f 32/61/111 31/60/112 41/55/113
f 25/54/114 32/61/115 41/55/116
f 33/62/117 34/63/118 42/64/119
f 34/63/120 35/65/121 42/64/122
f 35/65/123 36/66/124 42/64/125
f 36/66/126 37/67/127 42/64/128
f 37/67/129 38/68/130 42/64/131
f 38/68/132 39/69/133 42/64/134
f 39/69/135 40/70/136 42/64/137
f 40/70/138 33/62/139 42/64/140
