# This file uses meters as units for non-parametric coordinates.

mtllib Tavolo 01.mtl
g default
v -60.828430 53.094511 81.176788
v 59.673218 53.094511 81.176788
v -60.828430 57.087396 81.176788
v 59.673218 57.087396 81.176788
v -60.828430 57.087396 -80.764717
v 59.673218 57.087396 -80.764717
v -60.828430 53.094511 -80.764717
v 59.673218 53.094511 -80.764717
v -60.828430 57.087396 70.940582
v -60.828430 53.094511 70.940582
v 59.673218 53.094511 70.940582
v 59.673218 57.087396 70.940582
v -60.828430 57.087396 -70.940571
v -60.828430 53.094511 -70.940571
v 59.673218 53.094511 -70.940571
v 59.673218 57.087396 -70.940571
v -48.946716 57.087396 81.176788
v -48.946716 57.087396 70.940582
v -48.946716 57.087396 -70.940571
v -48.946716 57.087396 -80.764717
v -48.946716 53.094511 -80.764717
v -48.946716 53.094511 -70.940571
v -48.946716 53.094511 70.940582
v -48.946716 53.094511 81.176788
v 48.946472 57.087396 81.176788
v 48.946472 57.087396 70.940582
v 48.946472 57.087396 -70.940571
v 48.946472 57.087396 -80.764717
v 48.946472 53.094511 -80.764717
v 48.946472 53.094511 -70.940571
v 48.946472 53.094511 70.940582
v 48.946472 53.094511 81.176788
v -60.828430 0.000000 70.940582
v -48.946716 0.000000 70.940582
v -48.946716 0.000000 81.176788
v -60.828430 0.000000 81.176788
v -60.828430 0.000000 -80.764717
v -48.946716 0.000000 -80.764717
v -48.946716 0.000000 -70.940571
v -60.828430 0.000000 -70.940571
v 48.946472 -0.000033 -80.764717
v 48.946472 -0.000033 -70.940571
v 59.673218 -0.000033 -80.764717
v 59.673218 -0.000033 -70.940571
v 48.946472 0.000000 70.940582
v 48.946472 0.000000 81.176788
v 59.673218 0.000000 70.940582
v 59.673218 0.000000 81.176788
vt 0.408348 0.234748
vt 0.407186 0.231337
vt 0.408475 0.231096
vt 0.409006 0.233838
vt 0.396518 0.247213
vt 0.399367 0.247070
vt 0.399367 0.249670
vt 0.396518 0.249793
vt 0.450565 0.230733
vt 0.450550 0.227930
vt 0.451836 0.227946
vt 0.451508 0.231342
vt 0.445579 0.258516
vt 0.449044 0.258657
vt 0.448923 0.261642
vt 0.445458 0.261501
vt 0.405692 0.201693
vt 0.408677 0.200680
vt 0.408842 0.201973
vt 0.406476 0.202385
vt 0.411404 0.235198
vt 0.411404 0.233905
vt 0.448635 0.232487
vt 0.448366 0.231220
vt 0.516670 0.193500
vt 0.516910 0.197467
vt 0.469543 0.200338
vt 0.469302 0.196372
vt 0.446769 0.198542
vt 0.446670 0.199835
vt 0.399367 0.283691
vt 0.396518 0.283691
vt 0.465254 0.262273
vt 0.461838 0.261954
vt 0.462102 0.259130
vt 0.465517 0.259449
vt 0.449782 0.199226
vt 0.448950 0.199973
vt 0.399367 0.286046
vt 0.396518 0.286046
vt 0.422836 0.247209
vt 0.422836 0.249665
vt 0.422836 0.283687
vt 0.422836 0.286042
vt 0.449374 0.202438
vt 0.450650 0.202253
vt 0.520190 0.197269
vt 0.522171 0.229951
vt 0.518892 0.230149
vt 0.471524 0.233021
vt 0.466125 0.200546
vt 0.468106 0.233228
vt 0.405074 0.204917
vt 0.406373 0.204941
vt 0.425408 0.247210
vt 0.425408 0.249665
vt 0.425408 0.283687
vt 0.425408 0.286042
vt 0.505405 0.262451
vt 0.505602 0.265362
vt 0.502424 0.265578
vt 0.502226 0.262667
vt 0.519109 0.233731
vt 0.471741 0.236602
vt 0.480594 0.263459
vt 0.481027 0.260418
vt 0.484213 0.260871
vt 0.483780 0.263912
vt 0.441704 0.280365
vt 0.438240 0.280225
vt 0.439009 0.261240
vt 0.442473 0.261380
vt 0.451139 0.280747
vt 0.448154 0.280626
vt 0.451907 0.261763
vt 0.444689 0.280486
vt 0.463509 0.280990
vt 0.460093 0.280671
vt 0.457269 0.280408
vt 0.459014 0.261691
vt 0.469749 0.281571
vt 0.466333 0.281253
vt 0.468078 0.262536
vt 0.471494 0.262854
vt 0.509822 0.284458
vt 0.506911 0.284655
vt 0.508513 0.265165
vt 0.503733 0.284871
vt 0.500822 0.285068
vt 0.499513 0.265776
vt 0.497643 0.285284
vt 0.496334 0.265991
vt 0.477841 0.282799
vt 0.474800 0.282366
vt 0.477553 0.263026
vt 0.487254 0.284139
vt 0.484068 0.283685
vt 0.486821 0.264345
vt 0.490007 0.264799
vt 0.481027 0.283253
vn 0.000000 0.000000 1.000000
vn 0.000000 0.000000 1.000000
vn 0.000000 0.000000 1.000000
vn 0.000000 0.000000 1.000000
vn 0.000000 1.000000 0.000000
vn 0.000000 1.000000 0.000000
vn 0.000000 1.000000 0.000000
vn 0.000000 1.000000 0.000000
vn 0.000000 0.000000 -1.000000
vn 0.000000 0.000000 -1.000000
vn 0.000000 0.000000 -1.000000
vn 0.000000 0.000000 -1.000000
vn 0.000000 -1.000000 0.000000
vn 0.000000 -1.000000 0.000000
vn 0.000000 -1.000000 0.000000
vn 0.000000 -1.000000 0.000000
vn 1.000000 0.000000 0.000000
vn 1.000000 0.000000 0.000000
vn 1.000000 0.000000 0.000000
vn 1.000000 0.000000 0.000000
vn -1.000000 0.000000 0.000000
vn -1.000000 0.000000 0.000000
vn -1.000000 0.000000 0.000000
vn -1.000000 0.000000 0.000000
vn -1.000000 0.000000 0.000000
vn -1.000000 0.000000 0.000000
vn -1.000000 0.000000 0.000000
vn -1.000000 0.000000 0.000000
vn 0.000000 -1.000000 0.000000
vn 0.000000 -1.000000 0.000000
vn 0.000000 -1.000000 0.000000
vn 0.000000 -1.000000 0.000000
vn 1.000000 0.000000 0.000000
vn 1.000000 0.000000 0.000000
vn 1.000000 0.000000 0.000000
vn 1.000000 0.000000 0.000000
vn 0.000000 1.000000 0.000000
vn 0.000000 1.000000 0.000000
vn 0.000000 1.000000 0.000000
vn 0.000000 1.000000 0.000000
vn -1.000000 0.000000 0.000000
vn -1.000000 0.000000 0.000000
vn -1.000000 0.000000 0.000000
vn -1.000000 0.000000 0.000000
vn 0.000000 -1.000000 0.000000
vn 0.000000 -1.000000 0.000000
vn 0.000000 -1.000000 0.000000
vn 0.000000 -1.000000 0.000000
vn 1.000000 0.000000 0.000000
vn 1.000000 0.000000 0.000000
vn 1.000000 0.000000 0.000000
vn 1.000000 0.000000 0.000000
vn 0.000000 1.000000 0.000000
vn 0.000000 1.000000 0.000000
vn 0.000000 1.000000 0.000000
vn 0.000000 1.000000 0.000000
vn 0.000000 1.000000 0.000000
vn 0.000000 1.000000 0.000000
vn 0.000000 1.000000 0.000000
vn 0.000000 1.000000 0.000000
vn 0.000000 1.000000 0.000000
vn 0.000000 1.000000 0.000000
vn 0.000000 1.000000 0.000000
vn 0.000000 1.000000 0.000000
vn 0.000000 1.000000 0.000000
vn 0.000000 1.000000 0.000000
vn 0.000000 1.000000 0.000000
vn 0.000000 1.000000 0.000000
vn 0.000000 0.000000 -1.000000
vn 0.000000 0.000000 -1.000000
vn 0.000000 0.000000 -1.000000
vn 0.000000 0.000000 -1.000000
vn 0.000000 -1.000000 0.000000
vn 0.000000 -1.000000 0.000000
vn 0.000000 -1.000000 0.000000
vn 0.000000 -1.000000 0.000000
vn 0.000000 -1.000000 0.000000
vn 0.000000 -1.000000 0.000000
vn 0.000000 -1.000000 0.000000
vn 0.000000 -1.000000 0.000000
vn 0.000000 -1.000000 0.000000
vn 0.000000 -1.000000 0.000000
vn 0.000000 -1.000000 0.000000
vn 0.000000 -1.000000 0.000000
vn 0.000000 0.000000 1.000000
vn 0.000000 0.000000 1.000000
vn 0.000000 0.000000 1.000000
vn 0.000000 0.000000 1.000000
vn 0.000000 1.000000 0.000000
vn 0.000000 1.000000 0.000000
vn 0.000000 1.000000 0.000000
vn 0.000000 1.000000 0.000000
vn 0.000000 1.000000 0.000000
vn 0.000000 1.000000 0.000000
vn 0.000000 1.000000 0.000000
vn 0.000000 1.000000 0.000000
vn 0.000000 1.000000 0.000000
vn 0.000000 1.000000 0.000000
vn 0.000000 1.000000 0.000000
vn 0.000000 1.000000 0.000000
vn 0.000000 0.000000 -1.000000
vn 0.000000 0.000000 -1.000000
vn 0.000000 0.000000 -1.000000
vn 0.000000 0.000000 -1.000000
vn 0.000000 -1.000000 0.000000
vn 0.000000 -1.000000 0.000000
vn 0.000000 -1.000000 0.000000
vn 0.000000 -1.000000 0.000000
vn 0.000000 -1.000000 0.000000
vn 0.000000 -1.000000 0.000000
vn 0.000000 -1.000000 0.000000
vn 0.000000 -1.000000 0.000000
vn 0.000000 -1.000000 0.000000
vn 0.000000 -1.000000 0.000000
vn 0.000000 -1.000000 0.000000
vn 0.000000 -1.000000 0.000000
vn 0.000000 0.000000 1.000000
vn 0.000000 0.000000 1.000000
vn 0.000000 0.000000 1.000000
vn 0.000000 0.000000 1.000000
vn 0.000000 0.000000 -1.000000
vn 0.000000 0.000000 -1.000000
vn 0.000000 0.000000 -1.000000
vn 0.000000 0.000000 -1.000000
vn 1.000000 0.000000 0.000000
vn 1.000000 0.000000 0.000000
vn 1.000000 0.000000 0.000000
vn 1.000000 0.000000 0.000000
vn 0.000000 0.000000 1.000000
vn 0.000000 0.000000 1.000000
vn 0.000000 0.000000 1.000000
vn 0.000000 0.000000 1.000000
vn -1.000000 0.000000 0.000000
vn -1.000000 0.000000 0.000000
vn -1.000000 0.000000 0.000000
vn -1.000000 0.000000 0.000000
vn 0.000000 0.000000 -1.000000
vn 0.000000 0.000000 -1.000000
vn 0.000000 0.000000 -1.000000
vn 0.000000 0.000000 -1.000000
vn 1.000000 0.000000 0.000000
vn 1.000000 0.000000 0.000000
vn 1.000000 0.000000 0.000000
vn 1.000000 0.000000 0.000000
vn 0.000000 0.000000 1.000000
vn 0.000000 0.000000 1.000000
vn 0.000000 0.000000 1.000000
vn 0.000000 0.000000 1.000000
vn -1.000000 0.000000 0.000000
vn -1.000000 0.000000 0.000000
vn -1.000000 0.000000 0.000000
vn -1.000000 0.000000 0.000000
vn -1.000000 0.000000 0.000000
vn -1.000000 0.000000 0.000000
vn -1.000000 0.000000 0.000000
vn -1.000000 0.000000 0.000000
vn 0.000000 0.000000 -1.000000
vn 0.000000 0.000000 -1.000000
vn 0.000000 0.000000 -1.000000
vn 0.000000 0.000000 -1.000000
vn 1.000000 0.000000 0.000000
vn 1.000000 0.000000 0.000000
vn 1.000000 0.000000 0.000000
vn 1.000000 0.000000 0.000000
vn 0.000000 0.000000 1.000000
vn 0.000000 0.000000 1.000000
vn 0.000000 0.000000 1.000000
vn 0.000000 0.000000 1.000000
vn -1.000000 0.000000 0.000000
vn -1.000000 0.000000 0.000000
vn -1.000000 0.000000 0.000000
vn -1.000000 0.000000 0.000000
vn 0.000000 0.000000 -1.000000
vn 0.000000 0.000000 -1.000000
vn 0.000000 0.000000 -1.000000
vn 0.000000 0.000000 -1.000000
vn 1.000000 0.000000 0.000000
vn 1.000000 0.000000 0.000000
vn 1.000000 0.000000 0.000000
vn 1.000000 0.000000 0.000000
vn 0.000000 0.000000 1.000000
vn 0.000000 0.000000 1.000000
vn 0.000000 0.000000 1.000000
vn 0.000000 0.000000 1.000000
s off
g Tavolo01:group3
usemtl Tavolo01:lambert2SG
f 1/1/1 24/2/2 17/3/3 3/4/4
f 3/5/5 17/6/6 18/7/7 9/8/8
f 5/9/9 20/10/10 21/11/11 7/12/12
f 33/13/13 34/14/14 35/15/15 36/16/16
f 2/17/17 11/18/18 12/19/19 4/20/20
f 10/21/21 1/1/22 3/4/23 9/22/24
f 14/23/25 10/21/26 9/22/27 13/24/28
f 14/25/29 22/26/30 23/27/31 10/28/32
f 12/19/33 11/18/34 15/29/35 16/30/36
f 9/8/37 18/7/38 19/31/39 13/32/40
f 7/12/41 14/23/42 13/24/43 5/9/44
f 37/33/45 38/34/46 39/35/47 40/36/48
f 16/30/49 15/29/50 8/37/51 6/38/52
f 13/32/53 19/31/54 20/39/55 5/40/56
f 17/6/57 25/41/58 26/42/59 18/7/60
f 19/31/61 18/7/62 26/42/63 27/43/64
f 20/39/65 19/31/66 27/43/67 28/44/68
f 21/11/69 20/10/70 28/45/71 29/46/72
f 22/26/73 21/47/74 29/48/75 30/49/76
f 23/27/77 22/26/78 30/49/79 31/50/80
f 24/51/81 23/27/82 31/50/83 32/52/84
f 17/3/85 24/2/86 32/53/87 25/54/88
f 25/41/89 4/55/90 12/56/91 26/42/92
f 27/43/93 26/42/94 12/56/95 16/57/96
f 28/44/97 27/43/98 16/57/99 6/58/100
f 29/46/101 28/45/102 6/38/103 8/37/104
f 42/59/105 41/60/106 43/61/107 44/62/108
f 31/50/109 30/49/110 15/63/111 11/64/112
f 46/65/113 45/66/114 47/67/115 48/68/116
f 25/54/117 32/53/118 2/17/119 4/20/120
f 10/69/121 23/70/122 34/71/123 33/72/124
f 23/73/125 24/74/126 35/15/127 34/75/128
f 24/74/129 1/76/130 36/16/131 35/15/132
f 1/76/133 10/69/134 33/72/135 36/16/136
f 7/77/137 21/78/138 38/34/139 37/33/140
f 21/78/141 22/79/142 39/80/143 38/34/144
f 22/81/145 14/82/146 40/83/147 39/84/148
f 14/82/149 7/77/150 37/33/151 40/83/152
f 30/85/153 29/86/154 41/60/155 42/87/156
f 29/86/157 8/88/158 43/61/159 41/60/160
f 8/88/161 15/89/162 44/90/163 43/61/164
f 15/89/165 30/91/166 42/92/167 44/90/168
f 32/93/169 31/94/170 45/95/171 46/65/172
f 31/96/173 11/97/174 47/98/175 45/99/176
f 11/97/177 2/100/178 48/68/179 47/98/180
f 2/100/181 32/93/182 46/65/183 48/68/184
