# This file uses meters as units for non-parametric coordinates.

mtllib Tavolo01.mtl
g default
v -934.889183 53.041302 210.579147
v -814.387505 53.041302 210.579147
v -934.889183 57.034187 210.579147
v -814.387505 57.034187 210.579147
v -934.889183 57.034187 48.637642
v -814.387505 57.034187 48.637642
v -934.889183 53.041302 48.637642
v -814.387505 53.041302 48.637642
v -934.889183 57.034187 200.342941
v -934.889183 53.041302 200.342941
v -814.387505 53.041302 200.342941
v -814.387505 57.034187 200.342941
v -934.889183 57.034187 58.461788
v -934.889183 53.041302 58.461788
v -814.387505 53.041302 58.461788
v -814.387505 57.034187 58.461788
v -923.007439 57.034187 210.579147
v -923.007439 57.034187 200.342941
v -923.007439 57.034187 58.461788
v -923.007439 57.034187 48.637642
v -923.007439 53.041302 48.637642
v -923.007439 53.041302 58.461788
v -923.007439 53.041302 200.342941
v -923.007439 53.041302 210.579147
v -825.114250 57.034187 210.579147
v -825.114250 57.034187 200.342941
v -825.114250 57.034187 58.461788
v -825.114250 57.034187 48.637642
v -825.114250 53.041302 48.637642
v -825.114250 53.041302 58.461788
v -825.114250 53.041302 200.342941
v -825.114250 53.041302 210.579147
v -934.889183 -0.053209 200.342941
v -923.007439 -0.053209 200.342941
v -923.007439 -0.053209 210.579147
v -934.889183 -0.053209 210.579147
v -934.889183 -0.053209 48.637642
v -923.007439 -0.053209 48.637642
v -923.007439 -0.053209 58.461788
v -934.889183 -0.053209 58.461788
v -825.114250 -0.053242 48.637642
v -825.114250 -0.053242 58.461788
v -814.387505 -0.053242 48.637642
v -814.387505 -0.053242 58.461788
v -825.114250 -0.053209 200.342941
v -825.114250 -0.053209 210.579147
v -814.387505 -0.053209 200.342941
v -814.387505 -0.053209 210.579147
vt 0.444689 0.280486
vt 0.448154 0.280626
vt 0.408475 0.231096
vt 0.396518 0.247213
vt 0.399367 0.249670
vt 0.396518 0.249793
vt 0.450565 0.230733
vt 0.450550 0.227930
vt 0.460093 0.280671
vt 0.463509 0.280990
vt 0.445579 0.258516
vt 0.451907 0.261763
vt 0.448923 0.261642
vt 0.445458 0.261501
vt 0.481027 0.283253
vt 0.484068 0.283685
vt 0.425408 0.249665
vt 0.425408 0.247210
vt 0.441704 0.280365
vt 0.466333 0.281253
vt 0.396518 0.283691
vt 0.469749 0.281571
vt 0.451139 0.280747
vt 0.500822 0.285068
vt 0.425408 0.283687
vt 0.399367 0.283691
vt 0.465254 0.262273
vt 0.461838 0.261954
vt 0.471494 0.262854
vt 0.468078 0.262536
vt 0.503733 0.284871
vt 0.448950 0.199973
vt 0.406373 0.204941
vt 0.422836 0.249665
vt 0.422836 0.283687
vt 0.449374 0.202438
vt 0.506911 0.284655
vt 0.509822 0.284458
vt 0.487254 0.284139
vt 0.477841 0.282799
vt 0.505405 0.262451
vt 0.505602 0.265362
vt 0.502424 0.265578
vt 0.499513 0.265776
vt 0.480594 0.263459
vt 0.490007 0.264799
vt 0.486821 0.264345
vt 0.483780 0.263912
vt 0.471524 0.233021
vt 0.468106 0.233228
vt 0.405074 0.204917
vt 0.405692 0.201693
vt 0.408677 0.200680
vt 0.471741 0.236602
vt 0.450650 0.202253
vt 0.522171 0.229951
vt 0.518892 0.230149
vt 0.519109 0.233731
vt 0.446769 0.198542
vt 0.449782 0.199226
vt 0.469543 0.200338
vt 0.407186 0.231337
vt 0.466125 0.200546
vt 0.520190 0.197269
vt 0.451836 0.227946
vt 0.516910 0.197467
vt 0.448635 0.232487
vt 0.516670 0.193500
vt 0.469302 0.196372
vt 0.411404 0.235198
vt 0.408348 0.234748
vt 0.451508 0.231342
vt 0.484213 0.260871
vt 0.477553 0.263026
vt 0.481027 0.260418
vt 0.474800 0.282366
vt 0.508513 0.265165
vt 0.496334 0.265991
vt 0.502226 0.262667
vt 0.497643 0.285284
vt 0.465517 0.259449
vt 0.459014 0.261691
vt 0.462102 0.259130
vt 0.457269 0.280408
vt 0.442473 0.261380
vt 0.439009 0.261240
vt 0.449044 0.258657
vt 0.438240 0.280225
vt 0.422836 0.286042
vt 0.425408 0.286042
vt 0.422836 0.247209
vt 0.406476 0.202385
vt 0.399367 0.286046
vt 0.399367 0.247070
vt 0.446670 0.199835
vt 0.448366 0.231220
vt 0.396518 0.286046
vt 0.408842 0.201973
vt 0.411404 0.233905
vt 0.409006 0.233838
vn 0.000000 0.000000 1.000000
vn 0.000000 0.000000 1.000000
vn 0.000000 0.000000 1.000000
vn 0.000000 0.000000 1.000000
vn 0.000000 1.000000 0.000000
vn 0.000000 1.000000 0.000000
vn 0.000000 1.000000 0.000000
vn 0.000000 1.000000 0.000000
vn 0.000000 0.000000 -1.000000
vn 0.000000 0.000000 -1.000000
vn 0.000000 0.000000 -1.000000
vn 0.000000 0.000000 -1.000000
vn 0.000000 -1.000000 0.000000
vn 0.000000 -1.000000 0.000000
vn 0.000000 -1.000000 0.000000
vn 0.000000 -1.000000 0.000000
vn 1.000000 0.000000 0.000000
vn 1.000000 0.000000 0.000000
vn 1.000000 0.000000 0.000000
vn 1.000000 0.000000 0.000000
vn -1.000000 0.000000 0.000000
vn -1.000000 0.000000 0.000000
vn -1.000000 0.000000 0.000000
vn -1.000000 0.000000 0.000000
vn -1.000000 0.000000 0.000000
vn -1.000000 0.000000 0.000000
vn 0.000000 -1.000000 0.000000
vn 0.000000 -1.000000 0.000000
vn 0.000000 -1.000000 0.000000
vn 0.000000 -1.000000 0.000000
vn 1.000000 0.000000 0.000000
vn 1.000000 0.000000 0.000000
vn 0.000000 1.000000 0.000000
vn 0.000000 1.000000 0.000000
vn -1.000000 0.000000 0.000000
vn -1.000000 0.000000 0.000000
vn 0.000000 -1.000000 0.000000
vn 0.000000 -1.000000 0.000000
vn 0.000000 -1.000000 0.000000
vn 0.000000 -1.000000 0.000000
vn 1.000000 0.000000 0.000000
vn 1.000000 0.000000 0.000000
vn 0.000000 1.000000 0.000000
vn 0.000000 1.000000 0.000000
vn 0.000000 1.000000 0.000000
vn 0.000000 1.000000 0.000000
vn 0.000000 1.000000 0.000000
vn 0.000000 1.000000 0.000000
vn 0.000000 0.000000 -1.000000
vn 0.000000 0.000000 -1.000000
vn 0.000000 -1.000000 0.000000
vn 0.000000 -1.000000 0.000000
vn 0.000000 -1.000000 0.000000
vn 0.000000 -1.000000 0.000000
vn 0.000000 -1.000000 0.000000
vn 0.000000 -1.000000 0.000000
vn 0.000000 0.000000 1.000000
vn 0.000000 0.000000 1.000000
vn 0.000000 1.000000 0.000000
vn 0.000000 1.000000 0.000000
vn 0.000000 1.000000 0.000000
vn 0.000000 1.000000 0.000000
vn 0.000000 0.000000 -1.000000
vn 0.000000 0.000000 -1.000000
vn 0.000000 -1.000000 0.000000
vn 0.000000 -1.000000 0.000000
vn 0.000000 -1.000000 0.000000
vn 0.000000 -1.000000 0.000000
vn 0.000000 -1.000000 0.000000
vn 0.000000 -1.000000 0.000000
vn 0.000000 -1.000000 0.000000
vn 0.000000 -1.000000 0.000000
vn 0.000000 -1.000000 0.000000
vn 0.000000 -1.000000 0.000000
vn 0.000000 0.000000 1.000000
vn 0.000000 0.000000 1.000000
vn 0.000000 0.000000 -1.000000
vn 0.000000 0.000000 -1.000000
vn 0.000000 0.000000 -1.000000
vn 0.000000 0.000000 -1.000000
vn 1.000000 0.000000 0.000000
vn 1.000000 0.000000 0.000000
vn 1.000000 0.000000 0.000000
vn 1.000000 0.000000 0.000000
vn 0.000000 0.000000 1.000000
vn 0.000000 0.000000 1.000000
vn -1.000000 0.000000 0.000000
vn -1.000000 0.000000 0.000000
vn 0.000000 0.000000 -1.000000
vn 0.000000 0.000000 -1.000000
vn 1.000000 0.000000 0.000000
vn 1.000000 0.000000 0.000000
vn 1.000000 0.000000 0.000000
vn 1.000000 0.000000 0.000000
vn 0.000000 0.000000 1.000000
vn 0.000000 0.000000 1.000000
vn 0.000000 0.000000 1.000000
vn 0.000000 0.000000 1.000000
vn -1.000000 0.000000 0.000000
vn -1.000000 0.000000 0.000000
vn -1.000000 0.000000 0.000000
vn -1.000000 0.000000 0.000000
vn -1.000000 0.000000 0.000000
vn -1.000000 0.000000 0.000000
vn 0.000000 0.000000 -1.000000
vn 0.000000 0.000000 -1.000000
vn 1.000000 0.000000 0.000000
vn 1.000000 0.000000 0.000000
vn 0.000000 0.000000 1.000000
vn 0.000000 0.000000 1.000000
vn 0.000000 0.000000 1.000000
vn 0.000000 0.000000 1.000000
vn -1.000000 0.000000 0.000000
vn -1.000000 0.000000 0.000000
vn -1.000000 0.000000 0.000000
vn -1.000000 0.000000 0.000000
vn 0.000000 0.000000 -1.000000
vn 0.000000 0.000000 -1.000000
vn 0.000000 0.000000 -1.000000
vn 0.000000 0.000000 -1.000000
vn 1.000000 0.000000 0.000000
vn 1.000000 0.000000 0.000000
vn 0.000000 0.000000 1.000000
vn 0.000000 0.000000 1.000000
s 1
g Table Propos:group3
usemtl lambert2SG
f 1/71/1 24/62/2 17/3/3 3/100/4
s 2
f 3/4/5 17/94/6 18/5/7 9/6/8
s 3
f 5/7/9 20/8/10 21/65/11 7/72/12
s off
f 33/11/13 34/87/14 35/13/15 36/14/16
s 4
f 2/52/17 11/53/18 12/98/19 4/92/20
s 5
f 10/70/21 1/71/22 3/100/23 9/99/24
f 14/67/25 10/70/21 9/99/24 13/96/26
s 6
f 14/68/27 22/66/28 23/61/29 10/69/30
s 4
f 12/98/19 11/53/18 15/59/31 16/95/32
s 2
f 9/6/8 18/5/7 19/26/33 13/21/34
s 5
f 7/72/35 14/67/25 13/96/26 5/7/36
s off
f 37/27/37 38/28/38 39/83/39 40/81/40
s 4
f 16/95/32 15/59/31 8/60/41 6/32/42
s 2
f 13/21/34 19/26/33 20/93/43 5/97/44
f 17/94/6 25/91/45 26/34/46 18/5/7
f 19/26/33 18/5/7 26/34/46 27/35/47
f 20/93/43 19/26/33 27/35/47 28/89/48
s 3
f 21/65/11 20/8/10 28/36/49 29/55/50
s 6
f 22/66/28 21/64/51 29/56/52 30/57/53
f 23/61/29 22/66/28 30/57/53 31/49/54
f 24/63/55 23/61/29 31/49/54 32/50/56
s 1
f 17/3/3 24/62/2 32/51/57 25/33/58
s 2
f 25/91/45 4/18/59 12/17/60 26/34/46
f 27/35/47 26/34/46 12/17/60 16/25/61
f 28/89/48 27/35/47 16/25/61 6/90/62
s 3
f 29/55/50 28/36/49 6/32/63 8/60/64
s off
f 42/41/65 41/42/66 43/43/67 44/79/68
s 6
f 31/49/54 30/57/53 15/58/69 11/54/70
s off
f 46/45/71 45/75/72 47/73/73 48/48/74
s 1
f 25/33/58 32/51/57 2/52/75 4/92/76
s off
f 10/19/77 23/88/78 34/86/79 33/85/80
f 23/23/81 24/2/82 35/13/83 34/12/84
s 1
f 24/2/2 1/1/1 36/14/85 35/13/86
s 5
f 1/1/22 10/19/21 33/85/87 36/14/88
s 3
f 7/10/12 21/9/11 38/28/89 37/27/90
s off
f 21/9/91 22/84/92 39/82/93 38/28/94
f 22/22/95 14/20/96 40/30/97 39/29/98
s 5
f 14/20/25 7/10/35 37/27/99 40/30/100
s off
f 30/38/101 29/37/102 41/42/103 42/77/104
s 3
f 29/37/50 8/31/64 43/43/105 41/42/106
s 4
f 8/31/41 15/24/31 44/44/107 43/43/108
s off
f 15/24/109 30/80/110 42/78/111 44/44/112
f 32/40/113 31/76/114 45/74/115 46/45/116
f 31/39/117 11/16/118 47/47/119 45/46/120
s 4
f 11/16/18 2/15/17 48/48/121 47/47/122
s 1
f 2/15/75 32/40/57 46/45/123 48/48/124
