# This file uses meters as units for non-parametric coordinates.

mtllib Tavolo.mtl
g default
v -69.189575 65.106846 -59.425049
v -69.189575 65.106846 58.296631
v -69.189575 70.003094 -59.425049
v -69.189575 70.003094 58.296631
v 68.838318 70.003094 -59.425049
v 68.838318 70.003094 58.296631
v 68.838318 65.106846 -59.425049
v 68.838318 65.106846 58.296631
v -60.464905 70.003094 -59.425049
v -60.464905 65.106846 -59.425049
v -60.464905 65.106846 58.296631
v -60.464905 70.003094 58.296631
v 60.464905 70.003094 -59.425049
v 60.464905 65.106846 -59.425049
v 60.464905 65.106846 58.296631
v 60.464905 70.003094 58.296631
v -69.189575 70.003094 -47.817383
v -60.464905 70.003094 -47.817383
v 60.464905 70.003094 -47.817383
v 68.838318 70.003094 -47.817383
v 68.838318 65.106846 -47.817383
v 60.464905 65.106846 -47.817383
v -60.464905 65.106846 -47.817383
v -69.189575 65.106846 -47.817383
v -69.189575 70.003094 47.817444
v -60.464905 70.003094 47.817444
v 60.464905 70.003094 47.817444
v 68.838318 70.003094 47.817444
v 68.838318 65.106846 47.817444
v 60.464905 65.106846 47.817444
v -60.464905 65.106846 47.817444
v -69.189575 65.106846 47.817444
v -60.464905 0.000000 -59.425049
v -60.464905 0.000000 -47.817383
v -69.189575 0.000000 -47.817383
v -69.189575 0.000000 -59.425049
v 68.838318 0.000000 -59.425049
v 68.838318 0.000000 -47.817383
v 60.464905 0.000000 -47.817383
v 60.464905 0.000000 -59.425049
v 68.838318 -0.000042 47.817444
v 60.464905 -0.000042 47.817444
v 68.838318 -0.000042 58.296631
v 60.464905 -0.000042 58.296631
v -60.464905 0.000000 47.817444
v -69.189575 0.000000 47.817444
v -60.464905 0.000000 58.296631
v -69.189575 0.000000 58.296631
vt 0.723577 0.645275
vt 0.721526 0.645908
vt 0.721402 0.645114
vt 0.723041 0.644854
vt 0.703897 0.671300
vt 0.702556 0.671331
vt 0.702534 0.670323
vt 0.703874 0.670292
vt 0.722082 0.623179
vt 0.720395 0.623127
vt 0.720425 0.622339
vt 0.722461 0.622611
vt 0.738557 0.650512
vt 0.739380 0.644984
vt 0.743534 0.645603
vt 0.742711 0.651131
vt 0.703729 0.646248
vt 0.703171 0.644633
vt 0.703966 0.644550
vt 0.704154 0.645780
vt 0.723920 0.643659
vt 0.723129 0.643622
vt 0.723093 0.624165
vt 0.722314 0.624317
vt 0.708544 0.653137
vt 0.709951 0.653067
vt 0.710680 0.667719
vt 0.709274 0.667790
vt 0.702746 0.624669
vt 0.703533 0.624770
vt 0.702215 0.656354
vt 0.703556 0.656323
vt 0.738035 0.610884
vt 0.737554 0.605265
vt 0.741607 0.604918
vt 0.742088 0.610537
vt 0.703219 0.623078
vt 0.703647 0.623606
vt 0.702193 0.655386
vt 0.703534 0.655356
vt 0.691509 0.671582
vt 0.691486 0.670574
vt 0.691168 0.656605
vt 0.691146 0.655638
vt 0.705119 0.623397
vt 0.705028 0.622613
vt 0.709900 0.652053
vt 0.721488 0.651476
vt 0.721538 0.652491
vt 0.722267 0.667143
vt 0.710733 0.668777
vt 0.722320 0.668200
vt 0.705651 0.646697
vt 0.705687 0.645902
vt 0.690299 0.671610
vt 0.690276 0.670602
vt 0.689958 0.656633
vt 0.689936 0.655666
vt 0.689452 0.676857
vt 0.693397 0.676312
vt 0.694078 0.681250
vt 0.690133 0.681794
vt 0.722808 0.652428
vt 0.723537 0.667080
vt 0.681484 0.610231
vt 0.685550 0.609629
vt 0.686272 0.614513
vt 0.682206 0.615114
vt 0.733939 0.681514
vt 0.728412 0.680691
vt 0.733029 0.649689
vt 0.747776 0.683575
vt 0.743621 0.682956
vt 0.748238 0.651954
vt 0.752393 0.652573
vt 0.738094 0.682133
vt 0.740735 0.642402
vt 0.735116 0.642883
vt 0.732416 0.611366
vt 0.731062 0.643230
vt 0.728362 0.611713
vt 0.750407 0.641573
vt 0.744788 0.642054
vt 0.747708 0.610056
vt 0.707192 0.710701
vt 0.703247 0.711245
vt 0.699016 0.680569
vt 0.702961 0.680025
vt 0.698309 0.711926
vt 0.694364 0.712470
vt 0.689426 0.713151
vt 0.685196 0.682475
vt 0.681810 0.646176
vt 0.677745 0.646777
vt 0.673257 0.616438
vt 0.677323 0.615836
vt 0.695643 0.644130
vt 0.690759 0.644852
vt 0.691155 0.613790
vt 0.686694 0.645454
vn -1.000000 0.000000 0.000000
vn -1.000000 0.000000 0.000000
vn -1.000000 0.000000 0.000000
vn -1.000000 0.000000 0.000000
vn 0.000000 1.000000 0.000000
vn 0.000000 1.000000 0.000000
vn 0.000000 1.000000 0.000000
vn 0.000000 1.000000 0.000000
vn 1.000000 0.000000 0.000003
vn 1.000000 0.000000 0.000000
vn 1.000000 0.000000 0.000002
vn 1.000000 0.000000 0.000003
vn 0.000000 -1.000000 0.000000
vn 0.000000 -1.000000 0.000000
vn 0.000000 -1.000000 0.000000
vn 0.000000 -1.000000 0.000000
vn 0.000000 0.000000 1.000000
vn 0.000000 0.000000 1.000000
vn 0.000000 0.000000 1.000000
vn 0.000000 0.000000 1.000000
vn 0.000000 0.000000 -1.000000
vn 0.000000 0.000000 -1.000000
vn 0.000000 0.000000 -1.000000
vn 0.000000 0.000000 -1.000000
vn 0.000000 0.000000 -1.000000
vn 0.000000 0.000000 -1.000000
vn 0.000000 0.000000 -1.000000
vn 0.000000 0.000000 -1.000000
vn 0.000000 -1.000000 0.000000
vn 0.000000 -1.000000 0.000000
vn 0.000000 -1.000000 0.000000
vn 0.000000 -1.000000 0.000000
vn 0.000000 0.000000 1.000000
vn 0.000000 0.000000 1.000000
vn 0.000000 0.000000 1.000000
vn 0.000000 0.000000 1.000000
vn 0.000000 1.000000 0.000000
vn 0.000000 1.000000 0.000000
vn 0.000000 1.000000 0.000000
vn 0.000000 1.000000 0.000000
vn 0.000000 0.000000 -1.000000
vn 0.000000 0.000000 -1.000000
vn 0.000000 0.000000 -1.000000
vn 0.000000 0.000000 -1.000000
vn 0.000000 -1.000000 0.000000
vn 0.000000 -1.000000 0.000000
vn 0.000000 -1.000000 0.000000
vn 0.000000 -1.000000 0.000000
vn 0.000000 0.000000 1.000000
vn 0.000000 0.000000 1.000000
vn 0.000000 0.000000 1.000000
vn 0.000000 0.000000 1.000000
vn 0.000000 1.000000 0.000000
vn 0.000000 1.000000 0.000000
vn 0.000000 1.000000 0.000000
vn 0.000000 1.000000 0.000000
vn 0.000000 1.000000 0.000000
vn 0.000000 1.000000 0.000000
vn 0.000000 1.000000 0.000000
vn 0.000000 1.000000 0.000000
vn 0.000000 1.000000 0.000000
vn 0.000000 1.000000 0.000000
vn 0.000000 1.000000 0.000000
vn 0.000000 1.000000 0.000000
vn 0.000000 1.000000 0.000000
vn 0.000000 1.000000 0.000000
vn 0.000000 1.000000 0.000000
vn 0.000000 1.000000 0.000000
vn 1.000000 0.000000 0.000002
vn 1.000000 0.000000 0.000000
vn 1.000000 0.000000 0.000000
vn 1.000000 0.000000 0.000000
vn 0.000000 -1.000000 0.000000
vn 0.000000 -1.000000 0.000000
vn 0.000000 -1.000000 0.000000
vn 0.000000 -1.000000 0.000000
vn 0.000000 -1.000000 0.000000
vn 0.000000 -1.000000 0.000000
vn 0.000000 -1.000000 0.000000
vn 0.000000 -1.000000 0.000000
vn 0.000000 -1.000000 0.000000
vn 0.000000 -1.000000 0.000000
vn 0.000000 -1.000000 0.000000
vn 0.000000 -1.000000 0.000000
vn -1.000000 0.000000 0.000000
vn -1.000000 0.000000 0.000000
vn -1.000000 0.000000 0.000000
vn -1.000000 0.000000 0.000000
vn 0.000000 1.000000 0.000000
vn 0.000000 1.000000 0.000000
vn 0.000000 1.000000 0.000001
vn 0.000000 1.000000 0.000000
vn 0.000000 1.000000 0.000000
vn 0.000000 1.000000 0.000000
vn 0.000000 1.000000 0.000001
vn 0.000000 1.000000 0.000001
vn 0.000000 1.000000 0.000000
vn 0.000000 1.000000 0.000000
vn 0.000000 1.000000 0.000001
vn 0.000000 1.000000 0.000000
vn 1.000000 0.000000 0.000000
vn 1.000000 0.000000 0.000000
vn 1.000000 0.000000 0.000000
vn 1.000000 0.000000 0.000000
vn 0.000000 -1.000000 0.000000
vn 0.000000 -1.000000 0.000000
vn 0.000000 -1.000000 0.000000
vn 0.000000 -1.000000 0.000000
vn 0.000000 -1.000000 0.000000
vn 0.000000 -1.000000 0.000000
vn 0.000000 -1.000000 -0.000001
vn 0.000000 -1.000000 -0.000001
vn 0.000000 -1.000000 0.000000
vn 0.000000 -1.000000 0.000000
vn 0.000000 -1.000000 0.000000
vn 0.000000 -1.000000 0.000000
vn -1.000000 0.000000 0.000000
vn -1.000000 0.000000 0.000000
vn -1.000000 0.000000 0.000000
vn -1.000000 0.000000 0.000000
vn 1.000000 0.000000 0.000000
vn 1.000000 0.000000 0.000000
vn 1.000000 0.000000 0.000000
vn 1.000000 0.000000 0.000000
vn 0.000000 0.000000 1.000000
vn 0.000000 0.000000 1.000000
vn 0.000000 0.000000 1.000000
vn 0.000000 0.000000 1.000000
vn -1.000000 0.000000 0.000000
vn -1.000000 0.000000 0.000000
vn -1.000000 0.000000 0.000000
vn -1.000000 0.000000 0.000000
vn 0.000000 0.000000 -1.000000
vn 0.000000 0.000000 -1.000000
vn 0.000000 0.000000 -1.000000
vn 0.000000 0.000000 -1.000000
vn 1.000000 0.000000 0.000003
vn 1.000000 0.000000 0.000002
vn 1.000000 0.000000 0.000003
vn 1.000000 0.000000 0.000003
vn 0.000000 0.000000 1.000000
vn 0.000000 0.000000 1.000000
vn 0.000000 0.000000 1.000000
vn 0.000000 0.000000 1.000000
vn -1.000000 0.000000 0.000000
vn -1.000000 0.000000 0.000000
vn -1.000000 0.000000 0.000000
vn -1.000000 0.000000 0.000000
vn 0.000000 0.000000 -1.000000
vn 0.000000 0.000000 -1.000000
vn 0.000000 0.000000 -1.000000
vn 0.000000 0.000000 -1.000000
vn 0.000000 0.000000 -1.000000
vn 0.000000 0.000000 -1.000000
vn 0.000000 0.000000 -1.000000
vn 0.000000 0.000000 -1.000000
vn 1.000000 0.000000 0.000000
vn 1.000000 0.000000 0.000000
vn 1.000000 0.000000 0.000000
vn 1.000000 0.000000 0.000000
vn 0.000000 0.000000 1.000000
vn 0.000000 0.000000 1.000000
vn 0.000000 0.000000 1.000000
vn 0.000000 0.000000 1.000000
vn -1.000000 0.000000 -0.000003
vn -1.000000 0.000000 -0.000003
vn -1.000000 0.000000 -0.000003
vn -1.000000 0.000000 -0.000003
vn 0.000000 0.000000 -1.000000
vn 0.000000 0.000000 -1.000000
vn 0.000000 0.000000 -1.000000
vn 0.000000 0.000000 -1.000000
vn 1.000000 0.000000 0.000000
vn 1.000000 0.000000 0.000000
vn 1.000000 0.000000 0.000000
vn 1.000000 0.000000 0.000000
vn 0.000000 0.000000 1.000000
vn 0.000000 0.000000 1.000000
vn 0.000000 0.000000 1.000000
vn 0.000000 0.000000 1.000000
vn -1.000000 0.000000 0.000000
vn -1.000000 0.000000 0.000000
vn -1.000000 0.000000 0.000000
vn -1.000000 0.000000 0.000000
s off
g Tavolo:group3
usemtl Tavolo:lambert9SG
f 1/1/1 24/2/2 17/3/3 3/4/4
f 3/5/5 17/6/6 18/7/7 9/8/8
f 5/9/9 20/10/10 21/11/11 7/12/12
f 33/13/13 34/14/14 35/15/15 36/16/16
f 2/17/17 11/18/18 12/19/19 4/20/20
f 10/21/21 1/1/22 3/4/23 9/22/24
f 14/23/25 10/21/26 9/22/27 13/24/28
f 14/25/29 22/26/30 23/27/31 10/28/32
f 12/19/33 11/18/34 15/29/35 16/30/36
f 9/8/37 18/7/38 19/31/39 13/32/40
f 7/12/41 14/23/42 13/24/43 5/9/44
f 37/33/45 38/34/46 39/35/47 40/36/48
f 16/30/49 15/29/50 8/37/51 6/38/52
f 13/32/53 19/31/54 20/39/55 5/40/56
f 17/6/57 25/41/58 26/42/59 18/7/60
f 19/31/61 18/7/62 26/42/63 27/43/64
f 20/39/65 19/31/66 27/43/67 28/44/68
f 21/11/69 20/10/70 28/45/71 29/46/72
f 22/26/73 21/47/74 29/48/75 30/49/76
f 23/27/77 22/26/78 30/49/79 31/50/80
f 24/51/81 23/27/82 31/50/83 32/52/84
f 17/3/85 24/2/86 32/53/87 25/54/88
f 25/41/89 4/55/90 12/56/91 26/42/92
f 27/43/93 26/42/94 12/56/95 16/57/96
f 28/44/97 27/43/98 16/57/99 6/58/100
f 29/46/101 28/45/102 6/38/103 8/37/104
f 42/59/105 41/60/106 43/61/107 44/62/108
f 31/50/109 30/49/110 15/63/111 11/64/112
f 46/65/113 45/66/114 47/67/115 48/68/116
f 25/54/117 32/53/118 2/17/119 4/20/120
f 10/69/121 23/70/122 34/71/123 33/13/124
f 23/72/125 24/73/126 35/74/127 34/75/128
f 24/73/129 1/76/130 36/16/131 35/74/132
f 1/76/133 10/69/134 33/13/135 36/16/136
f 7/77/137 21/78/138 38/79/139 37/33/140
f 21/78/141 22/80/142 39/81/143 38/79/144
f 22/82/145 14/83/146 40/36/147 39/84/148
f 14/83/149 7/77/150 37/33/151 40/36/152
f 30/85/153 29/86/154 41/87/155 42/88/156
f 29/86/157 8/89/158 43/61/159 41/87/160
f 8/89/161 15/90/162 44/62/163 43/61/164
f 15/90/165 30/91/166 42/92/167 44/62/168
f 32/93/169 31/94/170 45/95/171 46/96/172
f 31/97/173 11/98/174 47/67/175 45/99/176
f 11/98/177 2/100/178 48/68/179 47/67/180
f 2/100/181 32/93/182 46/96/183 48/68/184
